<svg width="99" height="180" viewBox="0 0 99 180" fill="none" xmlns="http://www.w3.org/2000/svg">
<g clip-path="url(#clip0_49_61)">
<rect width="99" height="180" fill="url(#paint0_linear_49_61)"/>
<mask id="mask0_49_61" style="mask-type:alpha" maskUnits="userSpaceOnUse" x="20" y="151" width="181" height="61">
<path d="M58.0504 162.05L174.516 161.916" stroke="white" stroke-width="0.75"/>
<path d="M77.3733 152H140.878" stroke="white" stroke-width="0.75"/>
<path d="M38.4242 162.072L55.0845 162.053" stroke="white" stroke-width="0.75" stroke-dasharray="12.36 12.36"/>
<path d="M31.7084 171.834H38.4244" stroke="white" stroke-width="0.75"/>
<path d="M27.3684 171.834H162.797" stroke="white" stroke-width="0.75"/>
</mask>
<g mask="url(#mask0_49_61)">
<path d="M208.429 135H14V200.991H208.429V135Z" fill="url(#paint1_linear_49_61)"/>
</g>
<path d="M-44 135.901L128.986 135.803L148.712 143.285L-28.4917 143.383L-44 135.901Z" fill="url(#paint2_linear_49_61)"/>
<path fill-rule="evenodd" clip-rule="evenodd" d="M127.122 55.9983H16.5291C15.0603 56.0028 13.6524 56.5853 12.6094 57.6196C11.5664 58.6538 10.9722 60.057 10.9549 61.5262V134.29H132.695V61.5275C132.679 60.058 132.086 58.6536 131.042 57.6188C129.999 56.5839 128.591 56.0016 127.122 55.9983Z" fill="url(#paint3_linear_49_61)"/>
<path d="M127.427 69.7671H15.7035V134.895H127.427V69.7671Z" fill="white"/>
<path d="M71.8251 61.4312C72.3651 61.4312 72.8028 60.9934 72.8028 60.4532C72.8028 59.9132 72.3651 59.4754 71.8251 59.4754C71.2849 59.4754 70.8475 59.9132 70.8475 60.4532C70.8475 60.9934 71.2849 61.4312 71.8251 61.4312Z" fill="#911475"/>
<path fill-rule="evenodd" clip-rule="evenodd" d="M137.561 139.902H6.11301C-0.720125 139.902 -5.32184 138.854 -5.32184 137.857V134.825C-5.30356 134.665 -5.2235 134.519 -5.09854 134.418C-4.97377 134.316 -4.81405 134.268 -4.65412 134.284H148.327C148.486 134.268 148.647 134.316 148.772 134.418C148.897 134.519 148.977 134.665 148.995 134.825V137.976C148.995 138.766 145.43 139.902 137.561 139.902Z" fill="#C3DBFF"/>
<path fill-rule="evenodd" clip-rule="evenodd" d="M148.995 137.976C148.995 138.765 145.43 139.902 137.561 139.902H6.11301C-0.720125 139.902 -5.32184 138.854 -5.32184 137.857L148.995 137.976Z" fill="white"/>
<path fill-rule="evenodd" clip-rule="evenodd" d="M88.5478 134.506V135.195C88.5478 135.686 87.5815 135.834 86.8502 135.834H56.845C56.0758 135.834 55.1025 135.686 55.1025 135.195V134.506" fill="#911475"/>
<path d="M127.584 64.6969H15.8604V69.7683H127.584V64.6969Z" fill="url(#paint4_linear_49_61)"/>
<path d="M19.8111 68.082C20.2801 68.082 20.6604 67.7016 20.6604 67.2323C20.6604 66.7631 20.2801 66.3826 19.8111 66.3826C19.3418 66.3826 18.9616 66.7631 18.9616 67.2323C18.9616 67.7016 19.3418 68.082 19.8111 68.082Z" fill="white"/>
<path d="M22.5578 68.082C23.0271 68.082 23.4073 67.7016 23.4073 67.2323C23.4073 66.7631 23.0271 66.3826 22.5578 66.3826C22.0887 66.3826 21.7085 66.7631 21.7085 67.2323C21.7085 67.7016 22.0887 68.082 22.5578 68.082Z" fill="white"/>
<path d="M25.3048 68.082C25.7738 68.082 26.1541 67.7016 26.1541 67.2323C26.1541 66.7631 25.7738 66.3826 25.3048 66.3826C24.8355 66.3826 24.4553 66.7631 24.4553 67.2323C24.4553 67.7016 24.8355 68.082 25.3048 68.082Z" fill="white"/>
<path d="M137.623 140.256H6.17696C0.321669 140.256 -5.60535 139.434 -5.60535 137.863V134.831C-5.58707 134.579 -5.47025 134.344 -5.28013 134.178C-5.09 134.011 -4.84187 133.927 -4.58976 133.942H148.391C148.643 133.927 148.891 134.011 149.08 134.178C149.271 134.344 149.388 134.579 149.406 134.831V137.982C149.404 139.343 144.668 140.256 137.623 140.256ZM-4.59036 134.638C-4.77393 134.638 -4.91081 134.74 -4.91081 134.831V137.862C-4.81763 138.343 -1.38229 139.56 6.17637 139.56H137.623C145.629 139.56 148.553 138.388 148.714 137.961L148.71 134.829C148.71 134.738 148.571 134.635 148.391 134.635L-4.59036 134.638Z" fill="#911475"/>
<path d="M148.391 133.942H133.042V61.5276C133.034 59.9635 132.406 58.4666 131.296 57.3652C130.186 56.2638 128.684 55.6477 127.12 55.6521H16.5289C14.9654 55.6477 13.4638 56.2638 12.3537 57.3652C11.2435 58.4666 10.6156 59.9635 10.607 61.5276V133.942H-4.59037C-4.84248 133.926 -5.09062 134.011 -5.28094 134.178C-5.47106 134.344 -5.58788 134.579 -5.60596 134.831V137.862C-5.60596 139.433 0.321656 140.255 6.17636 140.255H137.623C144.668 140.255 149.404 139.342 149.406 137.981V134.83C149.386 134.578 149.269 134.344 149.08 134.178C148.889 134.012 148.643 133.927 148.391 133.942ZM11.3022 61.5276C11.3268 60.1531 11.8868 58.8424 12.8631 57.8749C13.8393 56.9074 15.1547 56.3593 16.5289 56.3474H127.123C128.502 56.3426 129.827 56.8854 130.807 57.8567C131.786 58.8277 132.341 60.1479 132.349 61.5276V133.942H11.3022V61.5276ZM137.623 139.561H6.17715C-1.38231 139.561 -4.81765 138.344 -4.91003 137.863V134.831C-4.91003 134.74 -4.77315 134.637 -4.58958 134.637H148.391C148.573 134.637 148.71 134.74 148.71 134.831L148.714 137.963C148.553 138.389 145.629 139.561 137.623 139.561Z" fill="#911475"/>
<path d="M119.023 19H27.1481V121.227H119.023V19Z" fill="white" stroke="url(#paint5_linear_49_61)" stroke-width="0.75"/>
<path d="M112 26H35V52H112V26Z" fill="url(#paint6_linear_49_61)" stroke="url(#paint7_linear_49_61)" stroke-width="0.75"/>
<path d="M72 56H35V86H72V56Z" fill="#FFE9CB" fill-opacity="0.6"/>
<path d="M112.009 56H75V60.3997H112.009V56Z" fill="#FFE9CB" fill-opacity="0.6"/>
<path d="M111.777 90.1695H34.6535V94.5692H111.777V90.1695Z" fill="#FFE9CB" fill-opacity="0.6"/>
<path d="M112.009 62H75V66.3997H112.009V62Z" fill="#FFE9CB" fill-opacity="0.6"/>
<path d="M111.777 97.1573H34.6535V101.557H111.777V97.1573Z" fill="#FFE9CB" fill-opacity="0.6"/>
<path d="M112.009 68H75V72.1409H112.009V68Z" fill="#FFE9CB" fill-opacity="0.6"/>
<path d="M111.777 104.404H34.6535V108.545H111.777V104.404Z" fill="#FFE9CB" fill-opacity="0.6"/>
<path d="M112.009 74H75V78.3997H112.009V74Z" fill="#FFE9CB" fill-opacity="0.6"/>
<path d="M98.8099 81H75V85.3997H98.8099V81Z" fill="#FFE9CB" fill-opacity="0.6"/>
<path d="M84.3439 111.391H34.6535V115.791H84.3439V111.391Z" fill="#FFE9CB" fill-opacity="0.6"/>
<path d="M40.6953 37V29H43.8516C44.4583 29 44.9753 29.1159 45.4023 29.3477C45.8294 29.5768 46.1549 29.8958 46.3789 30.3047C46.6055 30.7109 46.7188 31.1797 46.7188 31.7109C46.7188 32.2422 46.6042 32.7109 46.375 33.1172C46.1458 33.5234 45.8138 33.8398 45.3789 34.0664C44.9466 34.293 44.4232 34.4062 43.8086 34.4062H41.7969V33.0508H43.5352C43.8607 33.0508 44.1289 32.9948 44.3398 32.8828C44.5534 32.7682 44.7122 32.6107 44.8164 32.4102C44.9232 32.207 44.9766 31.974 44.9766 31.7109C44.9766 31.4453 44.9232 31.2135 44.8164 31.0156C44.7122 30.8151 44.5534 30.6602 44.3398 30.5508C44.1263 30.4388 43.8555 30.3828 43.5273 30.3828H42.3867V37H40.6953ZM48.1474 37V29H51.3036C51.9078 29 52.4234 29.1081 52.8505 29.3242C53.2802 29.5378 53.607 29.8411 53.831 30.2344C54.0575 30.625 54.1708 31.0846 54.1708 31.6133C54.1708 32.1445 54.0562 32.6016 53.8271 32.9844C53.5979 33.3646 53.2659 33.6562 52.831 33.8594C52.3987 34.0625 51.8752 34.1641 51.2607 34.1641H49.1474V32.8047H50.9872C51.3101 32.8047 51.5784 32.7604 51.7919 32.6719C52.0055 32.5833 52.1643 32.4505 52.2685 32.2734C52.3752 32.0964 52.4286 31.8763 52.4286 31.6133C52.4286 31.3477 52.3752 31.1237 52.2685 30.9414C52.1643 30.7591 52.0042 30.6211 51.788 30.5273C51.5745 30.431 51.3049 30.3828 50.9794 30.3828H49.8388V37H48.1474ZM52.4677 33.3594L54.456 37H52.5888L50.6435 33.3594H52.4677ZM55.6961 37V29H61.0868V30.3945H57.3875V32.3008H60.8094V33.6953H57.3875V35.6055H61.1024V37H55.6961ZM67.1013 31.3008C67.0701 30.9857 66.936 30.7409 66.699 30.5664C66.462 30.3919 66.1404 30.3047 65.7341 30.3047C65.4581 30.3047 65.225 30.3437 65.0349 30.4219C64.8448 30.4974 64.699 30.6029 64.5974 30.7383C64.4985 30.8737 64.449 31.0273 64.449 31.1992C64.4438 31.3424 64.4737 31.4674 64.5388 31.5742C64.6065 31.681 64.699 31.7734 64.8162 31.8516C64.9334 31.9271 65.0688 31.9935 65.2224 32.0508C65.3761 32.1055 65.5401 32.1523 65.7146 32.1914L66.4334 32.3633C66.7823 32.4414 67.1026 32.5456 67.3943 32.6758C67.686 32.806 67.9386 32.9661 68.1521 33.1562C68.3657 33.3464 68.531 33.5703 68.6482 33.8281C68.768 34.0859 68.8292 34.3815 68.8318 34.7148C68.8292 35.2044 68.7042 35.6289 68.4568 35.9883C68.212 36.3451 67.8578 36.6224 67.3943 36.8203C66.9334 37.0156 66.3774 37.1133 65.7263 37.1133C65.0805 37.1133 64.518 37.0143 64.0388 36.8164C63.5623 36.6185 63.1899 36.3255 62.9216 35.9375C62.656 35.5469 62.5167 35.0638 62.5037 34.4883H64.1404C64.1586 34.7565 64.2354 34.9805 64.3709 35.1602C64.5089 35.3372 64.6925 35.4714 64.9216 35.5625C65.1534 35.651 65.4151 35.6953 65.7068 35.6953C65.9933 35.6953 66.242 35.6536 66.4529 35.5703C66.6664 35.487 66.8318 35.3711 66.949 35.2227C67.0662 35.0742 67.1248 34.9036 67.1248 34.7109C67.1248 34.5312 67.0714 34.3802 66.9646 34.2578C66.8604 34.1354 66.7068 34.0312 66.5037 33.9453C66.3032 33.8594 66.0571 33.7812 65.7654 33.7109L64.8943 33.4922C64.2198 33.3281 63.6873 33.0716 63.2966 32.7227C62.906 32.3737 62.712 31.9036 62.7146 31.3125C62.712 30.8281 62.8409 30.4049 63.1013 30.043C63.3643 29.681 63.725 29.3984 64.1834 29.1953C64.6417 28.9922 65.1625 28.8906 65.7459 28.8906C66.3396 28.8906 66.8578 28.9922 67.3005 29.1953C67.7459 29.3984 68.0922 29.681 68.3396 30.043C68.587 30.4049 68.7146 30.8242 68.7224 31.3008H67.1013ZM74.6393 31.3008C74.6081 30.9857 74.474 30.7409 74.237 30.5664C74 30.3919 73.6784 30.3047 73.2721 30.3047C72.9961 30.3047 72.763 30.3437 72.5729 30.4219C72.3828 30.4974 72.237 30.6029 72.1354 30.7383C72.0365 30.8737 71.987 31.0273 71.987 31.1992C71.9818 31.3424 72.0117 31.4674 72.0768 31.5742C72.1445 31.681 72.237 31.7734 72.3542 31.8516C72.4714 31.9271 72.6068 31.9935 72.7604 32.0508C72.9141 32.1055 73.0781 32.1523 73.2526 32.1914L73.9714 32.3633C74.3203 32.4414 74.6406 32.5456 74.9323 32.6758C75.224 32.806 75.4766 32.9661 75.6901 33.1562C75.9037 33.3464 76.069 33.5703 76.1862 33.8281C76.306 34.0859 76.3672 34.3815 76.3698 34.7148C76.3672 35.2044 76.2422 35.6289 75.9948 35.9883C75.75 36.3451 75.3958 36.6224 74.9323 36.8203C74.4714 37.0156 73.9154 37.1133 73.2643 37.1133C72.6185 37.1133 72.056 37.0143 71.5768 36.8164C71.1003 36.6185 70.7279 36.3255 70.4596 35.9375C70.194 35.5469 70.0547 35.0638 70.0417 34.4883H71.6784C71.6966 34.7565 71.7735 34.9805 71.9089 35.1602C72.0469 35.3372 72.2305 35.4714 72.4596 35.5625C72.6914 35.651 72.9531 35.6953 73.2448 35.6953C73.5313 35.6953 73.78 35.6536 73.9909 35.5703C74.2044 35.487 74.3698 35.3711 74.487 35.2227C74.6042 35.0742 74.6628 34.9036 74.6628 34.7109C74.6628 34.5312 74.6094 34.3802 74.5026 34.2578C74.3985 34.1354 74.2448 34.0312 74.0417 33.9453C73.8412 33.8594 73.5951 33.7812 73.3034 33.7109L72.4323 33.4922C71.7578 33.3281 71.2253 33.0716 70.8346 32.7227C70.444 32.3737 70.25 31.9036 70.2526 31.3125C70.25 30.8281 70.3789 30.4049 70.6393 30.043C70.9024 29.681 71.263 29.3984 71.7214 29.1953C72.1797 28.9922 72.7005 28.8906 73.2839 28.8906C73.8776 28.8906 74.3958 28.9922 74.8386 29.1953C75.2839 29.3984 75.6302 29.681 75.8776 30.043C76.125 30.4049 76.2526 30.8242 76.2604 31.3008H74.6393ZM40.6953 48V40H43.8516C44.4557 40 44.9714 40.1081 45.3984 40.3242C45.8281 40.5378 46.1549 40.8411 46.3789 41.2344C46.6055 41.625 46.7188 42.0846 46.7188 42.6133C46.7188 43.1445 46.6042 43.6016 46.375 43.9844C46.1458 44.3646 45.8138 44.6562 45.3789 44.8594C44.9466 45.0625 44.4232 45.1641 43.8086 45.1641H41.6953V43.8047H43.5352C43.8581 43.8047 44.1263 43.7604 44.3398 43.6719C44.5534 43.5833 44.7122 43.4505 44.8164 43.2734C44.9232 43.0964 44.9766 42.8763 44.9766 42.6133C44.9766 42.3477 44.9232 42.1237 44.8164 41.9414C44.7122 41.7591 44.5521 41.6211 44.3359 41.5273C44.1224 41.431 43.8529 41.3828 43.5273 41.3828H42.3867V48H40.6953ZM45.0156 44.3594L47.0039 48H45.1367L43.1914 44.3594H45.0156ZM48.2441 48V40H53.6347V41.3945H49.9355V43.3008H53.3573V44.6953H49.9355V46.6055H53.6503V48H48.2441ZM55.3094 48V40H57.0008V46.6055H60.4305V48H55.3094ZM61.8806 48V40H67.2712V41.3945H63.572V43.3008H66.9939V44.6953H63.572V46.6055H67.2869V48H61.8806ZM70.3249 48H68.5124L71.2741 40H73.4538L76.2116 48H74.3991L72.3952 41.8281H72.3327L70.3249 48ZM70.2116 44.8555H74.4929V46.1758H70.2116V44.8555ZM81.6617 42.3008C81.6305 41.9857 81.4964 41.7409 81.2594 41.5664C81.0224 41.3919 80.7008 41.3047 80.2945 41.3047C80.0185 41.3047 79.7854 41.3437 79.5953 41.4219C79.4052 41.4974 79.2594 41.6029 79.1578 41.7383C79.0589 41.8737 79.0094 42.0273 79.0094 42.1992C79.0042 42.3424 79.0341 42.4674 79.0992 42.5742C79.1669 42.681 79.2594 42.7734 79.3766 42.8516C79.4938 42.9271 79.6292 42.9935 79.7828 43.0508C79.9365 43.1055 80.1005 43.1523 80.275 43.1914L80.9938 43.3633C81.3427 43.4414 81.663 43.5456 81.9547 43.6758C82.2464 43.806 82.499 43.9661 82.7125 44.1562C82.926 44.3464 83.0914 44.5703 83.2086 44.8281C83.3284 45.0859 83.3896 45.3815 83.3922 45.7148C83.3896 46.2044 83.2646 46.6289 83.0172 46.9883C82.7724 47.3451 82.4182 47.6224 81.9547 47.8203C81.4938 48.0156 80.9378 48.1133 80.2867 48.1133C79.6409 48.1133 79.0784 48.0143 78.5992 47.8164C78.1227 47.6185 77.7503 47.3255 77.482 46.9375C77.2164 46.5469 77.0771 46.0638 77.0641 45.4883H78.7008C78.719 45.7565 78.7958 45.9805 78.9313 46.1602C79.0693 46.3372 79.2529 46.4714 79.482 46.5625C79.7138 46.651 79.9755 46.6953 80.2672 46.6953C80.5536 46.6953 80.8023 46.6536 81.0133 46.5703C81.2268 46.487 81.3922 46.3711 81.5094 46.2227C81.6266 46.0742 81.6852 45.9036 81.6852 45.7109C81.6852 45.5312 81.6318 45.3802 81.525 45.2578C81.4208 45.1354 81.2672 45.0312 81.0641 44.9453C80.8635 44.8594 80.6174 44.7812 80.3258 44.7109L79.4547 44.4922C78.7802 44.3281 78.2477 44.0716 77.857 43.7227C77.4664 43.3737 77.2724 42.9036 77.275 42.3125C77.2724 41.8281 77.4013 41.4049 77.6617 41.043C77.9247 40.681 78.2854 40.3984 78.7438 40.1953C79.2021 39.9922 79.7229 39.8906 80.3063 39.8906C80.9 39.8906 81.4182 39.9922 81.8609 40.1953C82.3063 40.3984 82.6526 40.681 82.9 41.043C83.1474 41.4049 83.275 41.8242 83.2828 42.3008H81.6617ZM84.8599 48V40H90.2505V41.3945H86.5513V43.3008H89.9732V44.6953H86.5513V46.6055H90.2661V48H84.8599Z" fill="white"/>
</g>
<defs>
<linearGradient id="paint0_linear_49_61" x1="49.5" y1="0" x2="49.5" y2="180" gradientUnits="userSpaceOnUse">
<stop stop-color="#FFE9CB"/>
<stop offset="1" stop-color="#FFE9CB" stop-opacity="0"/>
<stop offset="1" stop-color="#FFF2E0"/>
</linearGradient>
<linearGradient id="paint1_linear_49_61" x1="17.783" y1="203.296" x2="104.173" y2="107.519" gradientUnits="userSpaceOnUse">
<stop stop-color="#CE2F55"/>
<stop offset="0.369869" stop-color="#FF6633"/>
<stop offset="1" stop-color="#FBAD41"/>
</linearGradient>
<linearGradient id="paint2_linear_49_61" x1="110.057" y1="146.415" x2="-21.1277" y2="177.69" gradientUnits="userSpaceOnUse">
<stop offset="0.276799" stop-color="#CE2F55"/>
<stop offset="0.592376" stop-color="#FF6633"/>
<stop offset="0.75522" stop-color="#FBAD41"/>
<stop offset="0.986753" stop-color="#FFE9CB"/>
</linearGradient>
<linearGradient id="paint3_linear_49_61" x1="71.8247" y1="55.9983" x2="71.8247" y2="134.29" gradientUnits="userSpaceOnUse">
<stop stop-color="#C3DBFF"/>
<stop offset="1" stop-color="white"/>
</linearGradient>
<linearGradient id="paint4_linear_49_61" x1="3.583" y1="67.158" x2="129.717" y2="69.7673" gradientUnits="userSpaceOnUse">
<stop stop-color="#CE2F55"/>
<stop offset="0.229167" stop-color="#FF6633"/>
<stop offset="1" stop-color="#F6821F"/>
</linearGradient>
<linearGradient id="paint5_linear_49_61" x1="73.0856" y1="18.7412" x2="73.0856" y2="121.486" gradientUnits="userSpaceOnUse">
<stop stop-color="#FF6633"/>
<stop offset="1" stop-color="#FF6633" stop-opacity="0"/>
</linearGradient>
<linearGradient id="paint6_linear_49_61" x1="73.5" y1="25.8394" x2="73.5" y2="52.1606" gradientUnits="userSpaceOnUse">
<stop stop-color="#FF6633"/>
<stop offset="1" stop-color="#FBAD41"/>
</linearGradient>
<linearGradient id="paint7_linear_49_61" x1="73.5" y1="25.8394" x2="73.5" y2="52.1606" gradientUnits="userSpaceOnUse">
<stop stop-color="#FF6633"/>
<stop offset="1" stop-color="#FF6633" stop-opacity="0"/>
</linearGradient>
<clipPath id="clip0_49_61">
<rect width="99" height="180" fill="white"/>
</clipPath>
</defs>
</svg>
