<svg width="40" height="40" viewBox="0 0 40 40" fill="none" xmlns="http://www.w3.org/2000/svg">
<g clip-path="url(#clip0_687_17521)">
<path d="M38.7499 11.875H19.1187C17.5267 10.3342 15.5162 9.29624 13.3381 8.89066C11.16 8.48508 8.91074 8.72982 6.87084 9.59435C4.83095 10.4589 3.09078 11.9049 1.86742 13.7521C0.64407 15.5992 -0.00830078 17.7657 -0.00830078 19.9813C-0.00830078 22.1968 0.64407 24.3633 1.86742 26.2104C3.09078 28.0576 4.83095 29.5037 6.87084 30.3682C8.91074 31.2327 11.16 31.4775 13.3381 31.0719C15.5162 30.6663 17.5267 29.6283 19.1187 28.0875H38.7499L39.9999 26.8375V13.125L38.7499 11.875ZM11.2812 28.75C9.54334 28.7488 7.84496 28.2319 6.40104 27.2649C4.95713 26.2978 3.83261 24.9241 3.16987 23.3176C2.50712 21.7111 2.33595 19.9441 2.67802 18.2403C3.02009 16.5364 3.86003 14.9724 5.09148 13.7462C6.32294 12.52 7.89054 11.6868 9.59582 11.352C11.3011 11.0172 13.0674 11.1959 14.671 11.8656C16.2747 12.5352 17.6436 13.6655 18.6044 15.1136C19.5653 16.5616 20.0749 18.2622 20.0687 20C20.067 22.3295 19.1405 24.5631 17.4927 26.2097C15.8449 27.8563 13.6107 28.7813 11.2812 28.7813V28.75ZM37.4999 25.625H21.0624C22.056 23.9169 22.5794 21.9761 22.5794 20C22.5794 18.024 22.056 16.0831 21.0624 14.375H37.4999V25.625Z" fill="#FF6633"/>
<path d="M9.76867 21.4188L7.18742 18.7188L5.38117 20.45L9.73742 25.0063L17.1749 17.4875L15.3937 15.7313L9.76867 21.4188Z" fill="#FF6633"/>
</g>
<defs>
<clipPath id="clip0_687_17521">
<rect width="40" height="40" fill="white"/>
</clipPath>
</defs>
</svg>
