<svg width="120" height="120" viewBox="0 0 120 120" fill="none" xmlns="http://www.w3.org/2000/svg">
<path fill-rule="evenodd" clip-rule="evenodd" d="M57.7334 110.192L60 107.623L62.2666 110.192C64.3935 112.603 67.8418 112.603 69.9687 110.192L110.405 64.3645C112.532 61.9541 112.532 58.0459 110.405 55.6355L69.9687 9.80785C67.8418 7.39738 64.3935 7.39738 62.2666 9.80785L60 12.3766L57.7334 9.80785C55.6065 7.39738 52.1582 7.39738 50.0313 9.80785L9.59516 55.6355C7.46828 58.0459 7.46828 61.9541 9.59516 64.3645L50.0313 110.192C52.1582 112.603 55.6065 112.603 57.7334 110.192ZM51.1127 11.0335L10.6766 56.8611C9.14701 58.5947 9.14701 61.4053 10.6766 63.1389L51.1127 108.966C52.6424 110.7 55.1223 110.7 56.652 108.966L58.7301 106.611C57.9256 106.368 57.1652 105.888 56.534 105.173L20.1415 63.9281C18.2273 61.7587 18.2273 58.2413 20.1415 56.0719L56.534 14.8271C57.1652 14.1118 57.9256 13.6323 58.7301 13.3887L56.652 11.0335C55.1223 9.29994 52.6424 9.29994 51.1127 11.0335ZM61.2699 106.611L63.348 108.966C64.8777 110.7 67.3576 110.7 68.8872 108.966L109.323 63.1389C110.853 61.4053 110.853 58.5947 109.323 56.8611L68.8872 11.0335C67.3576 9.29994 64.8777 9.29994 63.348 11.0335L61.2699 13.3887C62.0744 13.6323 62.8348 14.1118 63.4659 14.8271L99.8585 56.0719C101.773 58.2413 101.773 61.7587 99.8585 63.9281L63.4659 105.173C62.8348 105.888 62.0744 106.368 61.2699 106.611Z" fill="url(#paint0_linear_213_19)"/>
<path d="M54.9227 72.4367L45.635 60.0144L54.8722 47.9461L53.0883 45.5122L42.6811 59.1261L42.6666 60.8667L53.1244 74.8705L54.9227 72.4367Z" fill="white"/>
<path d="M58.1655 42.6667H54.5905L67.4822 60.2889L54.8938 77.3333H58.4905L71.0716 60.2961L58.1655 42.6667Z" fill="white"/>
<path d="M65.0772 42.6667H61.4588L74.5527 60.0794L61.4588 77.3333H65.0844L77.5138 60.9533V59.2128L65.0772 42.6667Z" fill="white"/>
<defs>
<linearGradient id="paint0_linear_213_19" x1="60" y1="8" x2="60" y2="112" gradientUnits="userSpaceOnUse">
<stop stop-color="#FFD43C"/>
<stop offset="0.608962" stop-color="#FF6633"/>
<stop offset="0.974443" stop-color="#CE2F55"/>
</linearGradient>
</defs>
</svg>
