<svg width="106" height="180" viewBox="0 0 106 180" fill="none" xmlns="http://www.w3.org/2000/svg">
<g clip-path="url(#clip0_10320_822)">
<rect width="106" height="180" fill="url(#paint0_linear_10320_822)"/>
<rect x="-6" y="-21" width="130" height="208" fill="url(#paint1_linear_10320_822)"/>
<path d="M53.2803 193.744L112.327 159.352V146.364L53.2803 180.74V193.744Z" fill="white" stroke="#FF6633" stroke-width="0.919097" stroke-linejoin="round"/>
<path d="M53.5124 180.986L112.328 146.346L53.1575 112.488L-5.53476 146.346L53.5124 180.986Z" fill="url(#paint2_linear_10320_822)" stroke="#FF6633" stroke-width="0.919097" stroke-linejoin="round"/>
<path d="M53.2835 178.943L-2.38945 146.496L53.6292 114.777L109.185 146.49L53.2835 178.943Z" fill="url(#paint3_linear_10320_822)" stroke="white" stroke-width="2.14456" stroke-linejoin="round"/>
<path d="M53.2806 193.744L-5.53516 160.134V146.863L53.2806 180.957V193.744Z" fill="url(#paint4_linear_10320_822)" stroke="#FF6633" stroke-width="0.919097" stroke-linejoin="round"/>
<path fill-rule="evenodd" clip-rule="evenodd" d="M83.6165 34.3647H22.9617L22.9617 147.686C22.9586 147.77 22.957 147.855 22.957 147.94C22.957 148.026 22.9586 148.11 22.9617 148.195V149.197C22.8463 160.452 37.4339 167.021 53.2869 167.021C69.1399 167.021 83.7321 159.878 83.6167 149.22L83.6165 149.197V147.993C83.6167 147.975 83.6167 147.958 83.6167 147.94C83.6167 147.923 83.6167 147.905 83.6165 147.888L83.6165 34.3647Z" fill="url(#paint5_linear_10320_822)" fill-opacity="0.73"/>
<path fill-rule="evenodd" clip-rule="evenodd" d="M77.7969 29.7693H30.0947L30.0076 145.511C30.0051 145.577 30.0039 145.644 30.0039 145.71C30.0039 145.776 30.0051 145.843 30.0076 145.909V146.69H30.0947C30.0039 155.465 41.3893 160.587 53.857 160.587C66.3246 160.587 77.71 155 77.6193 146.69H77.7099V145.751C77.71 145.737 77.71 145.724 77.71 145.71C77.71 145.696 77.71 145.683 77.7099 145.669L77.7969 29.7693Z" fill="url(#paint6_linear_10320_822)" fill-opacity="0.73"/>
<path fill-rule="evenodd" clip-rule="evenodd" d="M77.7969 29.7693H30.0947L30.0076 145.511C30.0051 145.577 30.0039 145.644 30.0039 145.71C30.0039 145.776 30.0051 145.843 30.0076 145.909V146.69H30.0947C30.0039 155.465 41.3893 160.587 53.857 160.587C66.3246 160.587 77.71 155 77.6193 146.69H77.7099V145.751C77.71 145.737 77.71 145.724 77.71 145.71C77.71 145.696 77.71 145.683 77.7099 145.669L77.7969 29.7693Z" fill="url(#paint7_linear_10320_822)" fill-opacity="0.73"/>
<ellipse opacity="0.6" cx="53.9004" cy="147.107" rx="23.8965" ry="13.4801" fill="#FFCD89"/>
<path opacity="0.7" d="M50.6634 147.314L43.201 143.006L44.1016 141.223L78.0683 137.063L79.4193 138.958L62.7576 145.383L70.22 149.691L69.3193 151.474L35.3526 155.634L34.0017 153.74L50.6634 147.314Z" fill="url(#paint8_linear_10320_822)"/>
<path d="M54.6666 127.193C50.1825 127.193 46.5469 128.839 46.5469 130.869C46.5469 132.167 48.0322 133.307 50.2748 133.961C51.7315 134.364 53.1985 134.559 54.6666 134.545C56.134 134.559 57.6003 134.364 59.0564 133.961C61.2984 133.307 62.7843 132.167 62.7843 130.869C62.7863 128.839 59.1511 127.193 54.6666 127.193Z" fill="#3E74FF"/>
<path fill-rule="evenodd" clip-rule="evenodd" d="M66.8068 123.906C66.8037 125.546 64.5876 126.988 61.2391 127.816C59.0633 128.326 56.8724 128.573 54.6798 128.556C52.4871 128.573 50.2962 128.326 48.1204 127.816C44.7719 126.987 42.5527 125.542 42.5527 123.899V128.233C42.5527 130.804 47.9819 132.889 54.6798 132.889C61.3776 132.889 66.8068 130.804 66.8068 128.233V123.906Z" fill="url(#paint9_linear_10320_822)"/>
<path d="M54.6438 119.456C47.9407 119.456 42.5059 121.629 42.5059 124.31C42.5059 126.023 44.7263 127.528 48.0786 128.392C50.2562 128.924 52.4492 129.182 54.6438 129.164C56.8373 129.182 59.0292 128.924 61.2059 128.392C64.5575 127.528 66.7786 126.023 66.7786 124.31C66.7817 121.629 61.3476 119.456 54.6438 119.456Z" fill="#3E74FF"/>
<path fill-rule="evenodd" clip-rule="evenodd" d="M67.5455 118.56C67.5423 120.305 65.1843 121.839 61.6215 122.72C59.3065 123.263 56.9754 123.526 54.6424 123.507C52.3094 123.526 49.9783 123.263 47.6633 122.72C44.1005 121.838 41.7393 120.301 41.7393 118.553V123.163C41.7393 125.9 47.5159 128.118 54.6424 128.118C61.7689 128.118 67.5455 125.9 67.5455 123.163V118.56Z" fill="url(#paint10_linear_10320_822)"/>
<path d="M54.6437 113.277C47.2094 113.277 41.1816 115.697 41.1816 118.683C41.1816 120.591 43.6443 122.267 47.3623 123.23C49.7775 123.822 52.2097 124.109 54.6437 124.089C57.0766 124.109 59.5076 123.822 61.9217 123.23C65.6389 122.267 68.1023 120.591 68.1023 118.683C68.1057 115.697 62.0789 113.277 54.6437 113.277Z" fill="#3E74FF"/>
<path fill-rule="evenodd" clip-rule="evenodd" d="M68.7642 112.4C68.7607 114.31 66.1799 115.989 62.2804 116.953C59.7467 117.547 57.1953 117.835 54.6419 117.814C52.0885 117.835 49.537 117.547 47.0033 116.953C43.1038 115.988 40.5195 114.305 40.5195 112.392V117.438C40.5195 120.433 46.842 122.861 54.6419 122.861C62.4417 122.861 68.7642 120.433 68.7642 117.438V112.4Z" fill="url(#paint11_linear_10320_822)"/>
<path d="M54.6436 107.099C46.8437 107.099 40.5195 109.667 40.5195 112.835C40.5195 114.86 43.1033 116.639 47.0041 117.66C49.5382 118.289 52.0899 118.594 54.6436 118.572C57.1962 118.593 59.7467 118.289 62.2796 117.66C66.1796 116.639 68.7642 114.86 68.7642 112.835C68.7678 109.667 62.4445 107.099 54.6436 107.099Z" fill="#3E74FF"/>
<path fill-rule="evenodd" clip-rule="evenodd" d="M41.4028 103.47V105.462C41.4028 108.39 47.4072 110.766 54.8139 110.766C61.7227 110.766 67.4115 108.699 68.1451 106.044L68.1553 111.845C68.1553 114.773 62.1508 117.149 54.7441 117.149C47.3374 117.149 41.333 114.773 41.333 111.845V103.331C41.356 103.378 41.3793 103.424 41.4028 103.47Z" fill="#FFF1DE"/>
<path d="M54.7275 111.997C67.1975 111.997 77.3065 101.888 77.3065 89.4184C77.3065 76.9483 67.1975 66.8394 54.7275 66.8394C42.2574 66.8394 32.1484 76.9483 32.1484 89.4184C32.1484 101.888 42.2574 111.997 54.7275 111.997Z" fill="#FFF1DE"/>
<path d="M40.8124 95.8357C40.2237 93.8401 39.9257 91.7701 39.9275 89.6895C39.9274 84.5586 41.7534 79.5951 45.0788 75.6877C48.4042 71.7802 53.0118 69.1839 58.0767 68.3635C56.9355 68.1798 55.7815 68.0875 54.6256 68.0874C49.0697 68.079 43.726 70.2204 39.7133 74.063C38.1178 77.1339 37.2869 80.5444 37.291 84.005C37.2847 88.2078 38.5088 92.3205 40.8124 95.8357Z" fill="#FFE9CB"/>
<path d="M58.077 68.3687C53.0121 69.1891 48.4045 71.7854 45.0791 75.6929C41.7537 79.6003 39.9277 84.5638 39.9277 89.6947C39.9259 91.7753 40.224 93.8453 40.8127 95.8409C42.7757 98.8456 45.4575 101.313 48.615 103.019C51.7726 104.725 55.3059 105.617 58.895 105.612C64.4508 105.62 69.7943 103.479 73.8072 99.6367C75.4022 96.5657 76.2325 93.1552 76.2278 89.6947C76.2295 84.5631 74.4038 79.5985 71.0778 75.6907C67.7518 71.7829 63.1429 69.1872 58.077 68.3687Z" fill="#FFFAF3"/>
<path d="M67.4546 85.1575C68.3056 87.9809 68.3108 90.9917 67.4697 93.8181C66.7847 96.145 65.5494 98.2728 63.868 100.021C65.6917 99.0865 67.3061 97.7905 68.6132 96.2122C69.9203 94.6339 70.8928 92.8062 71.4713 90.8403C72.6128 86.987 72.1775 82.838 70.2611 79.3055C68.3448 75.773 65.1041 73.146 61.2515 72.0019C60.4747 71.77 59.6802 71.6021 58.876 71.5C61.4453 72.7397 63.6132 74.6787 65.1305 77.0944C66.6479 79.5101 67.4534 82.3047 67.4546 85.1575Z" fill="white"/>
<path d="M46.1152 76.3265C49.5806 74.5333 53.6068 74.1554 57.3453 75.2726C59.7643 75.9915 61.9656 77.3026 63.7499 79.0872C65.5341 80.8717 66.8448 83.0732 67.5633 85.4923C67.5633 79.7158 64.1975 74.0464 58.9145 71.5019C54.0748 70.8712 49.379 72.9171 46.1152 76.3265Z" fill="white"/>
<path d="M40.8117 95.8357C38.511 92.3195 37.2898 88.2069 37.2986 84.005C37.2945 80.5444 38.1254 77.1339 39.7209 74.063C37.6033 76.0772 35.9181 78.5013 34.7677 81.1879C33.6173 83.8744 33.0257 86.767 33.0293 89.6895C33.0287 92.5263 33.587 95.3354 34.6723 97.9564C35.7576 100.577 37.3485 102.959 39.3545 104.965C41.3604 106.971 43.7418 108.562 46.3628 109.647C48.9838 110.732 53.6805 112.064 56.5173 112.063C57.6731 112.063 59.7892 111.473 60.9305 111.291C54.421 111.291 50.3177 108.594 47.2633 105.909C44.2089 103.224 41.973 99.733 40.8117 95.8357Z" fill="#FFD8A1"/>
<path d="M57.313 116.808L57.313 98.3657L61.0098 95.9131M49.5985 89.3248L53.2953 96.0461L53.2953 116.808" stroke="#FFAC33" stroke-width="0.919097"/>
<path d="M56.111 91.0156C56.111 92.8059 57.3331 94.9423 58.8189 95.8002C60.3048 96.658 61.5268 95.9327 61.5268 94.1424C61.5268 92.352 60.3048 90.2156 58.8189 89.3578C57.3331 88.4999 56.111 89.2252 56.111 91.0156Z" stroke="#FFAC33" stroke-width="0.919097"/>
<circle cx="3.68075" cy="3.68075" r="3.2212" transform="matrix(-0.866025 -0.5 -2.20305e-08 1 58.4922 88.7095)" stroke="#FFAC33" stroke-width="0.919097"/>
<path d="M49.0817 86.9575C49.0817 88.7478 50.3038 90.8842 51.7896 91.7421C53.2755 92.5999 54.4975 91.8746 54.4975 90.0843C54.4975 88.2939 53.2755 86.1575 51.7896 85.2997C50.3038 84.4418 49.0817 85.1671 49.0817 86.9575Z" stroke="#FFAC33" stroke-width="0.919097"/>
<path d="M41.4023 106.216V112.267C43.334 117.653 56.0423 117.856 60.8206 116.637C58.9499 116.068 57.8722 114.503 57.5672 113.791V111.181L41.4023 106.216Z" fill="url(#paint12_linear_10320_822)"/>
<path d="M64.1948 117.14C62.995 117.62 61.6219 117.916 60.7149 118.058C60.4064 118.106 60.1719 118.368 60.1719 118.68V121.795C60.1719 122.143 60.4631 122.423 60.8095 122.382C62.4016 122.19 63.9619 121.58 64.8139 121.166C65.0155 121.068 65.1368 120.861 65.1368 120.636V117.739C65.1368 117.271 64.6284 116.966 64.1948 117.14Z" fill="#A1C6FF"/>
<path d="M63.8623 122.757C62.8483 123.148 61.7141 123.394 60.9354 123.518C60.627 123.568 60.3926 123.829 60.3926 124.142V126.76C60.3926 127.108 60.6838 127.388 61.0298 127.344C62.3971 127.168 63.7286 126.655 64.4808 126.295C64.6834 126.198 64.8058 125.991 64.8058 125.766V123.363C64.8058 122.896 64.2978 122.589 63.8623 122.757Z" fill="#A1C6FF"/>
<path d="M63.6455 127.638C62.7782 128.011 61.8272 128.31 61.1521 128.462C60.8477 128.53 60.6133 128.794 60.6133 129.106V131.393C60.6133 131.742 60.9049 132.022 61.2505 131.974C62.4411 131.808 63.5935 131.361 64.2634 131.039C64.4647 130.943 64.5852 130.736 64.5852 130.513V128.225C64.5852 127.757 64.0755 127.452 63.6455 127.638Z" fill="#A1C6FF"/>
<path d="M16.6963 51.9697V47.4023H18.2825C18.6107 47.4023 18.8569 47.457 19.0757 47.5664C19.2945 47.6758 19.4312 47.8126 19.5406 48.004C19.65 48.1955 19.7047 48.3869 19.7047 48.6057C19.7047 48.7972 19.6774 48.9612 19.5953 49.098C19.5133 49.2347 19.4312 49.3168 19.3218 49.3988C19.2124 49.4809 19.0757 49.5356 18.9663 49.5629V49.6176C19.103 49.6176 19.2398 49.6723 19.3765 49.7544C19.5133 49.8364 19.6227 49.9732 19.7321 50.1373C19.8141 50.3014 19.8688 50.5202 19.8688 50.739C19.8688 50.9577 19.8141 51.1765 19.7047 51.368C19.5953 51.5594 19.4312 51.6962 19.2124 51.8056C18.9936 51.915 18.6928 51.9697 18.3372 51.9697H16.6963ZM17.2433 49.3988H18.2552C18.4193 49.3988 18.5834 49.3715 18.6928 49.2894C18.8295 49.2347 18.9389 49.1253 19.021 49.0159C19.103 48.9066 19.1304 48.7698 19.1304 48.6057C19.1304 48.4143 19.0483 48.2228 18.9116 48.0861C18.7748 47.9493 18.556 47.8673 18.2552 47.8673H17.2159V49.3988H17.2433ZM17.2433 51.4774H18.3372C18.6928 51.4774 18.9663 51.3953 19.103 51.2586C19.2671 51.1218 19.3218 50.9577 19.3218 50.739C19.3218 50.5749 19.2945 50.4381 19.2124 50.3014C19.1304 50.1646 19.021 50.0552 18.8842 49.9732C18.7475 49.8911 18.556 49.8638 18.3646 49.8638H17.2433V51.4774Z" fill="white"/>
<path d="M20.7715 47.4023H21.4005L22.6586 49.5356H22.7133L23.9713 47.4023H24.6004L22.9594 50.0826V51.9697H22.4124V50.0826L20.7715 47.4023Z" fill="white"/>
<path d="M31.5193 48.8245H30.9723C30.945 48.6604 30.8903 48.5237 30.8082 48.4143C30.7262 48.3049 30.6168 48.1955 30.5074 48.1134C30.398 48.0314 30.2613 47.9767 30.1245 47.922C29.9878 47.8673 29.851 47.8673 29.6869 47.8673C29.4134 47.8673 29.1673 47.9493 28.9485 48.0861C28.7297 48.2228 28.5383 48.4416 28.4289 48.7151C28.2921 48.9886 28.2374 49.3168 28.2374 49.727C28.2374 50.1099 28.2921 50.4655 28.4289 50.7389C28.5656 51.0124 28.7297 51.2039 28.9485 51.368C29.1673 51.5047 29.4134 51.5868 29.6869 51.5868C29.851 51.5868 29.9878 51.5594 30.1245 51.5321C30.2613 51.4774 30.398 51.4227 30.5074 51.3406C30.6168 51.2586 30.7262 51.1492 30.8082 51.0398C30.8903 50.9304 30.945 50.7663 30.9723 50.6296H31.5193C31.4646 50.8757 31.4099 51.0671 31.3005 51.2586C31.1911 51.45 31.0544 51.5868 30.8903 51.7235C30.7262 51.8603 30.5348 51.9423 30.3433 52.0244C30.1519 52.0791 29.9331 52.1338 29.6869 52.1338C29.304 52.1338 28.9485 52.0517 28.6477 51.8603C28.3468 51.6688 28.1007 51.3953 27.9366 51.0398C27.7725 50.6843 27.6631 50.274 27.6631 49.7817C27.6631 49.2894 27.7451 48.8792 27.9366 48.5237C28.1007 48.1681 28.3468 47.8946 28.6477 47.7032C28.9485 47.5117 29.304 47.4297 29.6869 47.4297C29.9057 47.4297 30.1245 47.457 30.3433 47.5391C30.5348 47.5938 30.7262 47.7032 30.8903 47.8399C31.0544 47.9767 31.1911 48.1134 31.3005 48.3049C31.3826 48.3869 31.4646 48.6057 31.5193 48.8245Z" fill="white"/>
<path d="M32.7773 51.9697V47.4023H33.3243V51.4774H35.4302V51.9697H32.7773Z" fill="white"/>
<path d="M40.5174 49.6723C40.5174 50.1646 40.4354 50.5749 40.2439 50.9304C40.0525 51.286 39.8337 51.5594 39.5328 51.7509C39.232 51.9423 38.8765 52.0244 38.4936 52.0244C38.1107 52.0244 37.7551 51.9423 37.4543 51.7509C37.1535 51.5594 36.9073 51.286 36.7432 50.9304C36.5791 50.5749 36.4697 50.1646 36.4697 49.6723C36.4697 49.1801 36.5518 48.7698 36.7432 48.4143C36.9073 48.0587 37.1535 47.7852 37.4543 47.5938C37.7551 47.4024 38.1107 47.3203 38.4936 47.3203C38.8765 47.3203 39.232 47.4024 39.5328 47.5938C39.8337 47.7852 40.0798 48.0587 40.2439 48.4143C40.4354 48.7972 40.5174 49.2074 40.5174 49.6723ZM39.9978 49.6723C39.9978 49.2895 39.9431 48.9339 39.8063 48.6604C39.6696 48.3869 39.5055 48.1955 39.2867 48.0314C39.0679 47.8946 38.8218 47.8126 38.5483 47.8126C38.2748 47.8126 38.0286 47.8946 37.8098 48.0314C37.591 48.1681 37.3996 48.3869 37.2902 48.6604C37.1535 48.9339 37.0988 49.2621 37.0988 49.6723C37.0988 50.0552 37.1535 50.4108 37.2902 50.6843C37.4269 50.9578 37.591 51.1492 37.8098 51.3133C38.0286 51.45 38.2748 51.5321 38.5483 51.5321C38.8218 51.5321 39.0679 51.45 39.2867 51.3133C39.5055 51.1766 39.6969 50.9578 39.8063 50.6843C39.9157 50.4108 39.9978 50.0826 39.9978 49.6723Z" fill="white"/>
<path d="M44.8112 47.4023H45.3581V50.4108C45.3581 50.7116 45.2761 51.0124 45.1393 51.2312C45.0026 51.45 44.7838 51.6688 44.5103 51.8056C44.2368 51.9423 43.936 52.0244 43.5804 52.0244C43.2249 52.0244 42.9241 51.9423 42.6506 51.8056C42.3771 51.6688 42.1856 51.4774 42.0215 51.2312C41.8848 50.9851 41.8027 50.7116 41.8027 50.4108V47.4023H42.3497V50.3834C42.3497 50.6022 42.4044 50.7936 42.4865 50.9851C42.5959 51.1492 42.7326 51.2859 42.8967 51.3953C43.0608 51.5047 43.3069 51.5321 43.5531 51.5321C43.7992 51.5321 44.018 51.4774 44.2095 51.3953C44.4009 51.2859 44.5377 51.1492 44.6197 50.9851C44.7291 50.821 44.7565 50.6022 44.7565 50.3834V47.4023H44.8112Z" fill="white"/>
<path d="M48.2571 51.9697H46.8623V47.4023H48.3392C48.7767 47.4023 49.1596 47.4844 49.4878 47.6758C49.816 47.8673 50.0348 48.1134 50.1989 48.469C50.363 48.8245 50.4451 49.2074 50.4451 49.6723C50.4451 50.1373 50.363 50.5475 50.1989 50.903C50.0348 51.2586 49.7887 51.5047 49.4605 51.6962C49.1049 51.8603 48.7221 51.9697 48.2571 51.9697ZM47.4093 51.4774H48.2298C48.6127 51.4774 48.9135 51.3953 49.1596 51.2586C49.4058 51.1218 49.5972 50.903 49.7066 50.6296C49.816 50.3561 49.8981 50.0279 49.8981 49.6723C49.8981 49.3168 49.8434 48.9886 49.7066 48.7151C49.5972 48.4416 49.4058 48.2502 49.1596 48.1134C48.9135 47.9767 48.6127 47.8946 48.2571 47.8946H47.4093V51.4774Z" fill="white"/>
<path d="M51.7305 51.9697V47.4023H54.4654V47.8946H52.2775V49.4262H54.2466V49.9185H52.2775V51.9697H51.7305Z" fill="white"/>
<path d="M55.7783 51.9697V47.4023H56.3253V51.4774H58.4585V51.9697H55.7783Z" fill="white"/>
<path d="M59.88 51.9697H59.3057L60.974 47.4023H61.5483L63.2166 51.9697H62.6423L61.2748 48.1408H61.2475L59.88 51.9697ZM60.0988 50.192H62.4235V50.6843H60.0988V50.192Z" fill="white"/>
<path d="M64.3115 51.9697V47.4023H65.8431C66.1986 47.4023 66.4995 47.457 66.7183 47.5938C66.9371 47.7032 67.1285 47.8673 67.2379 48.0861C67.3473 48.3049 67.402 48.5237 67.402 48.7972C67.402 49.0706 67.3473 49.3168 67.2379 49.5082C67.1285 49.6997 66.9644 49.8911 66.7456 50.0005C66.5268 50.1099 66.226 50.1646 65.8704 50.1646H64.6124V49.6723H65.8431C66.0892 49.6723 66.2807 49.645 66.4448 49.5629C66.5815 49.4809 66.6909 49.3988 66.773 49.2621C66.8277 49.1253 66.8824 48.9612 66.8824 48.7972C66.8824 48.6331 66.855 48.4416 66.773 48.3049C66.7183 48.1681 66.6089 48.0587 66.4448 47.9767C66.308 47.8946 66.0892 47.8673 65.8431 47.8673H64.8859V51.9697H64.3115ZM66.4448 49.9185L67.5661 51.9697H66.9371L65.8431 49.9185H66.4448Z" fill="white"/>
<path d="M68.6865 51.9697V47.4023H71.4488V47.8946H69.2609V49.4262H71.3121V49.9185H69.2609V51.4774H71.5035V51.9697H68.6865Z" fill="white"/>
<path d="M21.9741 31.0477V33.263H15V31.0477H21.9741ZM16.723 28.1487H19.5673V39.526C19.5673 39.9089 19.622 40.2097 19.7314 40.4011C19.8408 40.5926 20.0049 40.7293 20.1964 40.8114C20.3878 40.8934 20.6066 40.9208 20.8527 40.9208C21.0442 40.9208 21.2083 40.9208 21.345 40.8934C21.4818 40.8661 21.6185 40.8387 21.7006 40.8114L22.1929 43.054C22.0288 43.1087 21.81 43.1634 21.5365 43.2181C21.263 43.2728 20.9074 43.3275 20.4972 43.3275C19.7861 43.3549 19.1297 43.2455 18.5554 42.9993C17.9811 42.7532 17.5161 42.3976 17.1879 41.878C16.8597 41.3857 16.6957 40.7293 16.6957 39.9909V28.1487H16.723Z" fill="white"/>
<path d="M27.2252 36.0799V43.1907H24.3809V27.0273H27.1705V33.1262H27.3072C27.5807 32.4425 28.0457 31.8955 28.62 31.5126C29.2217 31.1024 29.9875 30.9109 30.9173 30.9109C31.7652 30.9109 32.5036 31.075 33.1326 31.4306C33.7616 31.7861 34.2539 32.3057 34.5821 32.9895C34.9377 33.6732 35.1018 34.4937 35.1018 35.4783V43.1907H32.2574V35.9158C32.2574 35.0954 32.0386 34.4663 31.6284 34.0014C31.2182 33.5365 30.6165 33.3177 29.8781 33.3177C29.3858 33.3177 28.9208 33.4271 28.5106 33.6459C28.1004 33.8647 27.7995 34.1655 27.5807 34.5757C27.3346 35.0133 27.2252 35.5056 27.2252 36.0799Z" fill="white"/>
<path d="M42.1311 43.4368C40.9277 43.4368 39.8611 43.1907 38.9859 42.6711C38.1107 42.1514 37.427 41.4403 36.9621 40.5105C36.4971 39.5806 36.251 38.4866 36.251 37.2012C36.251 35.9431 36.4971 34.8492 36.9621 33.9193C37.427 32.9894 38.1107 32.251 38.9586 31.704C39.8064 31.157 40.8183 30.9109 41.9943 30.9109C42.7327 30.9109 43.4438 31.0203 44.1276 31.2664C44.7839 31.5126 45.3856 31.8681 45.9053 32.3877C46.4249 32.88 46.8351 33.5364 47.1086 34.3022C47.4095 35.068 47.5462 35.9978 47.5462 37.0645V37.9396H37.6184V36.0252H44.8113C44.8113 35.4782 44.6745 34.9859 44.4557 34.5483C44.237 34.1108 43.9088 33.7826 43.4985 33.5364C43.0883 33.2903 42.596 33.1535 42.049 33.1535C41.4747 33.1535 40.955 33.2903 40.5175 33.5638C40.0799 33.8373 39.7243 34.2201 39.4782 34.6577C39.232 35.1227 39.0953 35.615 39.0953 36.1619V37.8302C39.0953 38.5413 39.232 39.143 39.4782 39.6353C39.7243 40.1276 40.1072 40.5105 40.5722 40.784C41.0371 41.0575 41.5841 41.1942 42.1858 41.1942C42.596 41.1942 42.9789 41.1395 43.3071 41.0301C43.6353 40.9207 43.9361 40.7293 44.1823 40.5105C44.4284 40.2917 44.6198 39.9908 44.7292 39.6626L47.4095 39.9635C47.2454 40.6746 46.9172 41.2762 46.4522 41.7959C45.9873 42.3155 45.3856 42.7258 44.6472 42.9993C43.9088 43.2727 43.0609 43.4368 42.1311 43.4368Z" fill="white"/>
<path d="M63.9822 27.0273V43.1907H61.3566L53.7262 32.169H53.5895V43.1907H50.6904V27.0273H53.316L60.919 38.0491H61.0558V27.0273H63.9822Z" fill="white"/>
<path d="M66.2246 43.1907V27.0273H76.7267V29.4888H69.151V33.8647H76.1797V36.3261H69.151V40.7293H76.8088V43.1907H66.2246Z" fill="white"/>
<path d="M77.7393 29.4614V27H90.6481V29.4614H85.6432V43.1634H82.7442V29.4614H77.7393Z" fill="white"/>
</g>
<defs>
<linearGradient id="paint0_linear_10320_822" x1="53" y1="0" x2="53" y2="180" gradientUnits="userSpaceOnUse">
<stop offset="0.425" stop-color="#FFF2E0"/>
<stop offset="1" stop-color="#FFE9CB"/>
</linearGradient>
<linearGradient id="paint1_linear_10320_822" x1="50.5" y1="16" x2="55" y2="126" gradientUnits="userSpaceOnUse">
<stop stop-color="#FF6633"/>
<stop offset="1" stop-color="#FBAD41"/>
</linearGradient>
<linearGradient id="paint2_linear_10320_822" x1="53.3967" y1="180.986" x2="83.5562" y2="130.507" gradientUnits="userSpaceOnUse">
<stop stop-color="#E0EDFF"/>
<stop offset="1" stop-color="white"/>
</linearGradient>
<linearGradient id="paint3_linear_10320_822" x1="-113.223" y1="157.065" x2="171.086" y2="73.9988" gradientUnits="userSpaceOnUse">
<stop stop-color="#0F006B"/>
<stop offset="0.0833333" stop-color="#281A81"/>
<stop offset="0.166667" stop-color="#5D0C83"/>
<stop offset="0.25" stop-color="#911475"/>
<stop offset="0.333333" stop-color="#CE2F55"/>
<stop offset="0.416667" stop-color="#FF6633"/>
<stop offset="0.5" stop-color="#F6821F"/>
<stop offset="0.583333" stop-color="#FBAD41"/>
<stop offset="0.666667" stop-color="#FFCD89"/>
<stop offset="0.75" stop-color="#FFE9CB"/>
<stop offset="0.833333" stop-color="#FFF7EC"/>
<stop offset="0.916667" stop-color="#FFF8EE"/>
<stop offset="1" stop-color="white"/>
</linearGradient>
<linearGradient id="paint4_linear_10320_822" x1="23.8727" y1="193.744" x2="0.889613" y2="165.696" gradientUnits="userSpaceOnUse">
<stop stop-color="#E0EDFF"/>
<stop offset="1" stop-color="white"/>
</linearGradient>
<linearGradient id="paint5_linear_10320_822" x1="53.2872" y1="224.919" x2="53.2869" y2="-121.534" gradientUnits="userSpaceOnUse">
<stop stop-color="#FBAD41"/>
<stop offset="0.507001" stop-color="#FFF1DD" stop-opacity="0"/>
</linearGradient>
<linearGradient id="paint6_linear_10320_822" x1="49.983" y1="213.932" x2="53.8478" y2="-64.4029" gradientUnits="userSpaceOnUse">
<stop stop-color="#FFCD89"/>
<stop offset="0.58375" stop-color="#FFEED8" stop-opacity="0"/>
</linearGradient>
<linearGradient id="paint7_linear_10320_822" x1="51.0276" y1="149.24" x2="54.0239" y2="73.8533" gradientUnits="userSpaceOnUse">
<stop stop-color="#FFCD89"/>
<stop offset="0.327779" stop-color="#FFEED8" stop-opacity="0"/>
</linearGradient>
<linearGradient id="paint8_linear_10320_822" x1="33.8338" y1="159.055" x2="61.9132" y2="123.849" gradientUnits="userSpaceOnUse">
<stop stop-color="white"/>
<stop offset="1" stop-color="white" stop-opacity="0"/>
</linearGradient>
<linearGradient id="paint9_linear_10320_822" x1="54.6315" y1="124.296" x2="54.6315" y2="148.082" gradientUnits="userSpaceOnUse">
<stop stop-color="#6691FF"/>
<stop offset="1" stop-color="#A8CBFF"/>
</linearGradient>
<linearGradient id="paint10_linear_10320_822" x1="54.5911" y1="118.975" x2="54.5911" y2="144.283" gradientUnits="userSpaceOnUse">
<stop stop-color="#6691FF"/>
<stop offset="1" stop-color="#A8CBFF"/>
</linearGradient>
<linearGradient id="paint11_linear_10320_822" x1="54.5857" y1="112.854" x2="54.5857" y2="140.553" gradientUnits="userSpaceOnUse">
<stop stop-color="#6691FF"/>
<stop offset="1" stop-color="#A8CBFF"/>
</linearGradient>
<linearGradient id="paint12_linear_10320_822" x1="41.4158" y1="113.608" x2="70.971" y2="118.021" gradientUnits="userSpaceOnUse">
<stop stop-color="#FFD8A1"/>
<stop offset="1" stop-color="#FFD8A1" stop-opacity="0"/>
</linearGradient>
<clipPath id="clip0_10320_822">
<rect width="106" height="180" fill="white"/>
</clipPath>
</defs>
</svg>
