<svg width="48" height="48" viewBox="0 0 48 48" fill="none" xmlns="http://www.w3.org/2000/svg">
<path d="M38.5575 10.3351L37.5375 10.1926C33.1932 9.55082 29.1605 7.55944 26.01 4.50012L25.1175 3.49512H22.8675L21.9975 4.50012C18.855 7.55385 14.8337 9.54482 10.5 10.1926L9.48002 10.3351L8.19002 11.8351V22.4251C8.15252 37.0876 22.2 44.2501 22.7925 44.5651L23.325 44.8351H24.675L25.2075 44.5651C25.8 44.2726 39.8475 37.0651 39.8475 22.4251V11.8201L38.5575 10.3351ZM36.8475 22.4251C36.8475 34.6876 25.5 41.0476 24 41.8126C22.545 41.0626 11.1525 34.6951 11.1525 22.4251V13.1251C15.9825 12.3524 20.4633 10.129 24 6.75012C27.5357 10.1306 32.017 12.3542 36.8475 13.1251V22.4251Z" fill="#FF6633"/>
<path d="M17.5875 22.7326L15.4125 24.8101L21.69 31.3576L32.565 20.3551L30.435 18.2476L21.72 27.0601L17.5875 22.7326Z" fill="#FF6633"/>
</svg>
