<svg width="120" height="120" viewBox="0 0 120 120" fill="none" xmlns="http://www.w3.org/2000/svg">
<path d="M53.6566 109.147L53.6541 109.145C52.9685 108.814 44.2186 104.487 35.65 95.9848C27.0847 87.4857 18.75 74.8663 18.75 57.9233V30.263C18.75 29.6388 19.2105 29.1102 19.8289 29.0248L26.7317 28.0709C41.1378 26.0977 50.1087 17.345 50.8422 16.6293C50.855 16.6168 50.8654 16.6067 50.8731 16.5992L50.8884 16.5844L50.9028 16.5688L54.8728 12.2677C55.6446 11.4316 57.0413 11.9776 57.0413 13.1155V108.798C57.0413 109.722 56.0732 110.326 55.2429 109.921L53.6566 109.147Z" stroke="url(#paint0_linear_213_2)" stroke-width="1.5" stroke-miterlimit="10"/>
<path d="M65.5433 109.147L65.5459 109.145C66.2315 108.814 74.9813 104.487 83.5499 95.9848C92.1152 87.4857 100.45 74.8663 100.45 57.9233V30.263C100.45 29.6388 99.9894 29.1102 99.3711 29.0248L92.4682 28.0709C78.0622 26.0977 69.0913 17.345 68.3578 16.6293C68.3449 16.6168 68.3346 16.6067 68.3268 16.5992L68.3116 16.5844L68.2971 16.5688L64.3272 12.2677C63.5554 11.4316 62.1586 11.9776 62.1586 13.1155V108.798C62.1586 109.722 63.1267 110.326 63.9571 109.921L65.5433 109.147Z" stroke="url(#paint1_linear_213_2)" stroke-width="1.5" stroke-miterlimit="10"/>
<path d="M56.0852 99.8745C54.9525 99.3211 28.4 86.0384 28.4 58.7893V37.2521C28.4 36.2544 29.1354 35.4093 30.1235 35.2714L35.1631 34.5678C46.457 33.0052 53.42 25.9731 53.7531 25.6476L58.1115 20.8776C58.9028 20.0115 60.2662 20.0093 61.0603 20.8729L65.4802 25.6801C65.5135 25.7127 72.5098 32.9726 84.037 34.5678L89.0765 35.2714C90.0647 35.4093 90.8 36.2544 90.8 37.2521V58.7893C90.8 86.0384 64.2475 99.3211 63.1148 99.8745L60.4655 101.169C59.9091 101.441 59.2582 101.44 58.7028 101.166L56.0852 99.8745Z" fill="url(#paint2_linear_213_2)"/>
<path d="M59.7772 76.4667H58.642L58.1828 76.2402C57.6789 75.9886 45.7333 69.9497 45.7333 57.6708V48.7761L46.8303 47.518L47.7295 47.4111C51.4156 46.866 54.8353 45.1939 57.5067 42.6303L58.2593 41.8H60.1727L60.9189 42.6303C63.5946 45.2021 67.0252 46.8752 70.7216 47.4111L71.5889 47.5306L72.6859 48.7887V57.6708C72.6859 69.9623 60.7403 75.9697 60.2364 76.2402L59.7772 76.4667ZM48.2972 49.8643V57.6708C48.2972 67.9494 57.9787 73.29 59.2224 73.9316C60.4979 73.3026 70.1476 67.9494 70.1476 57.6708V49.8643C66.0339 49.2245 62.2171 47.3587 59.2096 44.5175C56.2056 47.3564 52.3936 49.222 48.2844 49.8643H48.2972Z" fill="white"/>
<path d="M59.1097 57.9946C59.8084 57.9946 60.4914 57.7903 61.0723 57.4074C61.6533 57.0246 62.1061 56.4804 62.3735 55.8437C62.6408 55.207 62.7108 54.5064 62.5745 53.8305C62.4382 53.1547 62.1017 52.5338 61.6077 52.0465C61.1136 51.5592 60.4841 51.2274 59.7989 51.0929C59.1136 50.9585 58.4033 51.0275 57.7577 51.2912C57.1122 51.5549 56.5605 52.0015 56.1723 52.5745C55.7841 53.1475 55.5769 53.8212 55.5769 54.5103C55.5769 55.4344 55.9491 56.3207 56.6116 56.9741C57.2742 57.6275 58.1727 57.9946 59.1097 57.9946Z" fill="white"/>
<path d="M60.3209 58.6815H57.8783C56.4623 58.6829 55.1047 59.238 54.1033 60.2253C53.1018 61.2126 52.5383 62.5513 52.5363 63.9478L53.041 64.4456H65.1531L65.6578 63.9478C65.6558 62.5522 65.093 61.2142 64.0926 60.2271C63.0922 59.2399 61.7359 58.6842 60.3209 58.6815Z" fill="white"/>
<defs>
<linearGradient id="paint0_linear_213_2" x1="57.8126" y1="8" x2="57.8126" y2="121.246" gradientUnits="userSpaceOnUse">
<stop offset="0.0212967" stop-color="#FFD43C"/>
<stop offset="0.616683" stop-color="#FF6633"/>
<stop offset="1" stop-color="#CE2F55"/>
</linearGradient>
<linearGradient id="paint1_linear_213_2" x1="61.3874" y1="8" x2="61.3874" y2="121.246" gradientUnits="userSpaceOnUse">
<stop offset="0.0212967" stop-color="#FFD43C"/>
<stop offset="0.616683" stop-color="#FF6633"/>
<stop offset="1" stop-color="#CE2F55"/>
</linearGradient>
<linearGradient id="paint2_linear_213_2" x1="59.6" y1="9.3" x2="59.6" y2="112.433" gradientUnits="userSpaceOnUse">
<stop offset="0.0212967" stop-color="#FFD43C"/>
<stop offset="0.515678" stop-color="#FF6633"/>
<stop offset="1" stop-color="#CE2F55"/>
</linearGradient>
</defs>
</svg>
