<svg width="91" height="91" viewBox="0 0 91 91" fill="none" xmlns="http://www.w3.org/2000/svg">
<circle cx="45.5723" cy="45.2114" r="45" fill="#5840BA"/>
<g filter="url(#filter0_d_639_4637)">
<path fill-rule="evenodd" clip-rule="evenodd" d="M18.5723 29.0114C18.5723 28.0173 19.3782 27.2114 20.3723 27.2114H70.7723C71.7664 27.2114 72.5723 28.0173 72.5723 29.0114V61.4114C72.5723 62.4055 71.7664 63.2114 70.7723 63.2114H20.3723C19.3782 63.2114 18.5723 62.4055 18.5723 61.4114V29.0114Z" fill="white"/>
<path opacity="0.7" fill-rule="evenodd" clip-rule="evenodd" d="M54.8657 46.7655C54.3092 46.7655 53.8177 46.4884 53.5217 46.0651H45.4578V48.3999H53.0403C53.2886 48.3999 53.5267 48.4985 53.7022 48.6734L55.5746 50.5415C55.75 50.7167 55.8486 50.9542 55.8486 51.2019V54.1962C56.2464 54.4944 56.5039 54.9691 56.5039 55.5039C56.5039 56.4066 55.7705 57.1383 54.8657 57.1383C53.961 57.1383 53.2276 56.4066 53.2276 55.5039C53.2276 54.9283 53.5259 54.4228 53.9764 54.1315V51.5888L52.6525 50.268H45.4574V53.2998C45.4576 53.3082 45.4578 53.3166 45.4578 53.325C45.4578 54.3271 45.0771 55.2792 44.3859 56.0054C43.6869 56.7397 42.7479 57.1611 41.7418 57.1918C41.6991 57.1931 41.6553 57.1938 41.6113 57.1938C40.0434 57.1938 38.6442 56.2469 38.0466 54.7817C37.9131 54.4548 37.6031 54.2432 37.2565 54.2429H37.1746C35.0508 54.2429 33.3229 52.5191 33.3229 50.4002C33.3229 49.3304 33.704 48.5078 34.1078 47.9355C33.1504 47.148 32.5391 45.9561 32.5391 44.6242C32.5391 43.594 32.9105 42.5979 33.5853 41.8194C34.1514 41.1662 34.8998 40.7003 35.7267 40.4792C35.6416 40.2015 35.5962 39.9106 35.5944 39.615C35.5892 38.8116 35.9019 38.0523 36.4749 37.4769C37.0604 36.889 37.8408 36.5651 38.6722 36.5651H38.7924C38.8269 34.7453 40.3085 33.2753 42.1248 33.2753C43.0151 33.2753 43.8513 33.6177 44.4792 34.2397C45.1103 34.8647 45.4579 35.6999 45.4579 36.5912V39.9943H52.6058L53.9297 38.6737V36.2043C53.5054 35.909 53.2276 35.4187 53.2276 34.8634C53.2276 33.9607 53.961 33.229 54.8657 33.229C55.7705 33.229 56.5039 33.9607 56.5039 34.8634C56.5039 35.4187 56.2261 35.909 55.8018 36.2043V39.0604C55.8018 39.3082 55.7032 39.5457 55.5277 39.721L53.6555 41.5889C53.4799 41.764 53.2419 41.8624 52.9936 41.8624H45.4579V44.1972H53.5217C53.8177 43.774 54.3092 43.4968 54.8657 43.4968C55.7705 43.4968 56.5039 44.2285 56.5039 45.1312C56.5039 46.0338 55.7705 46.7655 54.8657 46.7655ZM43.5859 53.2989V49.3658C43.5857 49.3572 43.5856 49.3484 43.5856 49.3397V36.5912C43.5856 35.7792 42.944 35.1431 42.1248 35.1431C41.3194 35.1431 40.6641 35.8101 40.6641 36.63V36.6353C40.6641 37.6266 39.8557 38.4331 38.8621 38.4331H38.672C38.3431 38.4331 38.0343 38.5611 37.8028 38.7935C37.584 39.0132 37.4645 39.3008 37.4664 39.6033C37.4686 39.9331 37.6124 40.2481 37.8613 40.4672C38.134 40.7072 38.2425 41.083 38.14 41.4309C38.0374 41.7788 37.7423 42.0361 37.383 42.0908L36.4612 42.2308C35.2935 42.4113 34.4112 43.4405 34.4112 44.6243C34.4112 45.9601 35.5005 47.0469 36.8394 47.0469C37.3564 47.0469 37.7755 47.4651 37.7755 47.9809C37.7755 48.4966 37.3564 48.9148 36.8394 48.9148C36.4835 48.9148 36.1377 48.8711 35.8068 48.7894C35.5394 49.0942 35.195 49.635 35.195 50.4002C35.195 51.489 36.0831 52.375 37.1744 52.375H37.2573C38.3693 52.3761 39.3592 53.0445 39.7807 54.0778C40.0899 54.836 40.8085 55.326 41.6111 55.326C41.6357 55.326 41.6599 55.3256 41.6841 55.3249C42.7329 55.2929 43.5856 54.3957 43.5856 53.325C43.5856 53.3163 43.5857 53.3076 43.5859 53.2989Z" fill="#8E77F8"/>
<path fill-rule="evenodd" clip-rule="evenodd" d="M14.9727 59.6115C14.9727 58.6174 15.7785 57.8115 16.7727 57.8115H74.3727C75.3668 57.8115 76.1727 58.6174 76.1727 59.6115V61.4115C76.1727 62.4056 75.3668 63.2115 74.3727 63.2115H16.7727C15.7785 63.2115 14.9727 62.4056 14.9727 61.4115V59.6115Z" fill="white"/>
</g>
<defs>
<filter id="filter0_d_639_4637" x="11.3727" y="27.2114" width="68.4" height="43.2" filterUnits="userSpaceOnUse" color-interpolation-filters="sRGB">
<feFlood flood-opacity="0" result="BackgroundImageFix"/>
<feColorMatrix in="SourceAlpha" type="matrix" values="0 0 0 0 0 0 0 0 0 0 0 0 0 0 0 0 0 0 127 0" result="hardAlpha"/>
<feOffset dy="3.6"/>
<feGaussianBlur stdDeviation="1.8"/>
<feColorMatrix type="matrix" values="0 0 0 0 0.258824 0 0 0 0 0.160784 0 0 0 0 0.65098 0 0 0 0.827304 0"/>
<feBlend mode="normal" in2="BackgroundImageFix" result="effect1_dropShadow_639_4637"/>
<feBlend mode="normal" in="SourceGraphic" in2="effect1_dropShadow_639_4637" result="shape"/>
</filter>
</defs>
</svg>
