<svg width="144" height="43" viewBox="0 0 144 43" fill="none" xmlns="http://www.w3.org/2000/svg">
<g clip-path="url(#clip0_639_4711)">
<path d="M76.0061 26.7134C76.0061 26.1244 76.4847 25.6458 77.1106 25.6458C77.7365 25.6458 78.2152 26.1244 78.2152 26.7134C78.2152 27.3025 77.7365 27.818 77.1106 27.818C76.4847 27.818 76.0061 27.3394 76.0061 26.7134ZM76.227 26.7134C76.227 27.1921 76.632 27.5971 77.1474 27.5971C77.6261 27.5971 78.0311 27.2289 78.0311 26.7134C78.0311 26.2348 77.6261 25.8666 77.1474 25.8666C76.5952 25.8666 76.227 26.2716 76.227 26.7134Z" fill="#E31837"/>
<path d="M77.6685 27.3417H77.4475L77.0794 26.7894H76.8585V27.3417H76.7112V26.1267H77.2635C77.374 26.1267 77.4844 26.1267 77.558 26.2004C77.6685 26.2372 77.7053 26.3476 77.7053 26.4581C77.7053 26.679 77.5212 26.7894 77.3003 26.7894L77.6685 27.3417ZM77.0794 26.6421C77.2635 26.6421 77.4844 26.679 77.4844 26.4581C77.4844 26.3108 77.3371 26.274 77.1898 26.274H76.8585V26.6421H77.0794Z" fill="#E31837"/>
<path d="M71.8532 27.8166C79.5851 21.1893 90.4464 14.746 96.4114 12.4265C95.4907 11.8374 94.0551 10.9906 92.4348 10.0701C84.7394 12.6105 75.7559 18.2438 67.7295 24.6134C69.0918 25.6443 70.5278 26.7121 71.8532 27.8166Z" fill="#E31837"/>
<path d="M68.3237 9.8152C67.1823 9.26297 65.9305 8.74749 64.9732 8.30566C62.0645 9.74162 58.2723 11.9139 53.4858 15.338C54.5167 15.8903 55.6213 16.553 56.7995 17.2158C60.4813 14.4912 64.2 11.9139 68.3237 9.8152Z" fill="#012169"/>
<path d="M75.2355 6.6437C73.8364 5.87051 68.9764 4.0664 65.6259 3.29321C64.6318 3.66139 63.2327 4.21367 62.2754 4.61868C63.4904 4.95005 68.0191 6.16506 71.885 8.11644C72.8791 7.6378 74.2782 7.04871 75.2355 6.6437Z" fill="#E31837"/>
<path d="M58.7589 6.17236C54.4512 8.16056 49.9224 10.8851 47.4556 12.4684C48.3393 12.8733 49.2229 13.2047 50.4379 13.7938C55.887 10.1119 60.158 7.86602 61.8516 7.12964C60.6366 6.68782 59.4953 6.39327 58.7589 6.17236Z" fill="#012169"/>
<path d="M78.4389 5.50587C79.4331 5.1745 80.5744 4.87995 81.5685 4.5854C78.6967 3.37039 75.0884 2.08173 71.8484 1.27173C71.3329 1.419 69.7865 1.82401 68.7188 2.15538C69.8234 2.48674 73.4684 3.33357 78.4389 5.50587ZM60.2874 19.3497C61.4656 20.0492 62.7174 21.0065 63.9324 21.8165C71.9957 15.5573 79.9485 10.7341 88.6748 8.00952C87.4593 7.38361 86.3917 6.83133 85.0292 6.1686C79.8012 7.49406 70.8543 11.0655 60.2874 19.3497Z" fill="#E31837"/>
<path d="M0.679932 42.1375H4.65716C6.67064 42.1375 7.61523 41.0935 7.61523 39.627C7.61523 38.4338 6.99379 37.6383 5.70118 37.3897C6.84464 37.1163 7.36665 36.4203 7.36665 35.4011C7.36665 34.1085 6.42206 33.0645 4.40859 33.0645H0.704789V42.1375H0.679932ZM4.13515 38.2847C4.88088 38.2847 5.40289 38.6575 5.40289 39.4032C5.40289 40.1987 4.90574 40.5218 4.13515 40.5218H2.84255V38.2598H4.13515V38.2847ZM3.88657 34.6554C4.6323 34.6554 5.15432 34.9786 5.15432 35.7243C5.15432 36.47 4.65716 36.7931 3.88657 36.7931H2.84255V34.6554H3.88657ZM15.6442 33.0396H13.4071L10.0015 42.1375H12.2636L12.8851 40.2484H16.1662L16.7877 42.1375H19.0746L15.6442 33.0396ZM14.5257 35.2271L15.5946 38.5829H13.4071L14.5257 35.2271ZM30.4097 33.0396H28.3466V39.1298L24.4687 33.0396H22.157V42.1375H24.2201V36.0723L28.098 42.1375H30.4097V33.0396ZM39.9302 42.1375L36.9473 37.5141V42.1375H34.735V33.0396H36.9473V37.4146L39.7811 33.0396H42.242L39.2591 37.4146L42.5154 42.1375H39.9302ZM50.3456 37.5886C50.3456 39.4032 51.4393 40.5218 52.8562 40.5218C54.2731 40.5218 55.3669 39.4032 55.3669 37.5886C55.3669 35.774 54.2731 34.6554 52.8562 34.6554C51.4393 34.6554 50.3456 35.774 50.3456 37.5886ZM48.0089 37.5886C48.0338 34.9288 49.8981 32.8408 52.8562 32.8408C55.8143 32.8408 57.6786 34.9288 57.7035 37.5886C57.6786 40.2484 55.8143 42.3364 52.8562 42.3364C49.8981 42.3364 48.0338 40.2484 48.0089 37.5886ZM60.7362 42.1375H62.9484V38.5581H65.832V36.818H62.9484V34.7797H66.4285L66.8263 33.0396H60.7362V42.1375ZM77.1422 33.0396H74.905L71.4995 42.1375H73.7616L74.383 40.2484H77.6642L78.2857 42.1375H80.5725L77.1422 33.0396ZM76.0236 35.2271L77.0925 38.5829H74.905L76.0236 35.2271ZM93.6973 33.0396H91.112L88.7508 37.9615L86.3896 33.0396H83.8042V42.1375H85.7925V36.0474L88.7261 42.1375L91.6589 36.0474V42.1375H93.722L93.6973 33.0396ZM97.9976 42.1375H104.212V40.3976H100.21V38.3592H103.367V36.6689H100.21V34.7797H103.864L104.262 33.0396H97.9976V42.1375ZM112.639 42.1375H115.05L112.788 38.2847C114.031 37.9366 114.628 37.0666 114.628 35.7989C114.628 34.1582 113.633 33.0645 111.396 33.0645H107.892V42.1624H110.054V38.5829H110.65L112.639 42.1375ZM110.974 34.73C111.894 34.73 112.366 35.1277 112.366 35.8983C112.366 36.6689 111.894 37.0666 110.974 37.0666H110.029V34.73H110.974ZM118.356 42.1375H120.569V33.0645H118.356V42.1375ZM131.457 39.7015C130.611 40.2981 129.866 40.4969 129.095 40.4969C127.404 40.4969 126.211 39.3287 126.211 37.5886C126.211 35.8486 127.38 34.6802 129.02 34.6802C129.766 34.6802 130.511 34.8791 131.332 35.4757V33.4125C130.586 32.9899 129.716 32.8159 128.747 32.8159C125.739 32.8159 123.85 34.904 123.825 37.5637C123.85 40.2484 125.69 42.3116 128.747 42.3116C129.766 42.3116 130.636 42.1375 131.431 41.715V39.7015H131.457ZM139.56 33.0396H137.323L133.917 42.1375H136.179L136.801 40.2484H140.082L140.703 42.1375H142.991L139.56 33.0396ZM138.442 35.2271L139.51 38.5829H137.323L138.442 35.2271Z" fill="#012169"/>
</g>
<defs>
<clipPath id="clip0_639_4711">
<rect width="142.903" height="41.8853" fill="white" transform="translate(0.679932 0.735352)"/>
</clipPath>
</defs>
</svg>
