<svg width="118" height="37" viewBox="0 0 118 37" fill="none" xmlns="http://www.w3.org/2000/svg">
<g clip-path="url(#clip0_639_4704)">
<path d="M110.406 0.552734H6.48479C3.14793 0.552734 0.442871 3.25779 0.442871 6.59465V30.7623C0.442871 34.0992 3.14793 36.8042 6.48479 36.8042H110.406C113.743 36.8042 116.448 34.0992 116.448 30.7623V6.59465C116.448 3.25779 113.743 0.552734 110.406 0.552734Z" fill="url(#paint0_linear_639_4704)"/>
<path d="M102.343 5.99072C99.998 5.99072 98.0513 6.67225 96.7099 7.9628C95.2599 9.46362 94.7922 11.1747 94.7922 14.9992V22.6991C94.7922 26.5236 95.2599 28.2347 96.7136 29.7391C98.0476 31.026 99.998 31.7076 102.343 31.7076C104.689 31.7076 106.585 31.026 107.926 29.7355C109.376 28.2854 109.844 26.6251 109.844 22.6991V14.9992C109.844 11.0768 109.394 9.43099 107.926 7.95918C106.585 6.67225 104.656 5.99072 102.343 5.99072ZM105.465 22.9999C105.465 26.2626 104.486 27.7308 102.293 27.7308C100.099 27.7308 99.1714 26.2807 99.1714 22.9999V14.6983C99.1714 11.4357 100.132 9.96751 102.293 9.96751C104.515 9.96751 105.465 11.3813 105.465 14.6983V22.9999Z" fill="white"/>
<path d="M15.0259 5.99072C12.22 5.99072 10.0884 6.87526 8.86307 8.52833C7.73202 10.0509 7.33325 11.791 7.33325 15.2312V22.4815C7.33325 25.8711 7.73202 27.6148 8.86307 29.1373C10.092 30.8085 12.2273 31.6749 15.0259 31.6749C17.5381 31.6749 19.4992 30.9137 20.8514 29.4092C22.0731 28.086 22.5733 26.3532 22.5733 23.4205V22.6157H18.1979V23.1993C18.1979 26.2916 17.1901 27.7308 15.0259 27.7308C13.8114 27.7308 12.8037 27.1906 12.3251 26.2807C11.8466 25.3708 11.7052 24.2905 11.7052 21.8834V15.8548C11.7052 11.3958 12.5136 9.96751 15.0259 9.96751C17.201 9.96751 18.1979 11.3596 18.1979 14.3467V15.05H22.5733V14.0966C22.5733 11.1965 22.0912 9.55062 20.8514 8.20932C19.5318 6.7375 17.5707 5.99072 15.0259 5.99072Z" fill="white"/>
<path d="M86.3776 25.5085C85.9535 26.984 84.9566 27.7344 83.4123 27.7344C81.4402 27.7344 80.552 26.8317 80.233 24.5153C80.1351 23.7902 80.0916 22.2169 80.088 22.1517V22.0574L80.1714 22.0139L90.9127 16.181V15.5031C90.9127 11.6895 90.4378 9.85876 89.0385 8.25282C87.7552 6.77376 85.7759 5.99072 83.2636 5.99072C80.9508 5.99072 79.0222 6.67225 77.6845 7.9628C76.1583 9.43824 75.7161 11.0188 75.7161 14.9992V22.4489C75.7161 25.7116 76.1438 27.6003 77.2495 29.1554C78.4784 30.823 80.61 31.6931 83.4123 31.6931C86.5625 31.6931 88.85 30.5548 90.0245 28.4014C90.7496 27.216 90.9054 26.0124 90.9598 22.6374H86.5843C86.5806 24.2869 86.5371 24.9466 86.3776 25.5085ZM80.0916 14.1364C80.0916 11.1022 81.0559 9.80801 83.3144 9.80801C85.4895 9.80801 86.4538 11.0079 86.5226 13.8211V13.9153L86.4393 13.9588L80.088 17.4317V14.1364H80.0916Z" fill="white"/>
<path d="M64.1978 5.99536H64.0746C61.8161 6.01711 60.0325 6.6044 58.7746 7.74269L58.6731 7.83332L58.5716 7.74269C57.3101 6.6044 55.5301 6.01711 53.2716 5.99536H53.1484C50.4005 6.02074 48.3124 6.90165 47.1053 8.53297C46.0177 10.0845 45.5754 11.966 45.5754 15.2359V31.1866H49.951V15.5477C49.951 15.4752 49.9945 13.9055 50.096 13.1804C50.4078 10.8893 51.2814 9.98666 53.21 9.96491C55.1386 9.94316 56.0159 10.8857 56.3276 13.1804C56.4255 13.9055 56.469 15.4752 56.4726 15.544V31.2011H60.8808V15.5477C60.8808 15.4788 60.9243 13.9055 61.0258 13.1804C61.3376 10.8893 62.2113 9.98666 64.1398 9.96491C66.0684 9.94316 66.9457 10.8857 67.2575 13.1804C67.3553 13.9055 67.3989 15.4788 67.4025 15.544V31.2011H71.778V15.2504C71.778 11.9878 71.3503 10.099 70.2482 8.54385C69.0338 6.88716 66.9566 6.02074 64.1978 5.99536Z" fill="white"/>
<path d="M33.9277 5.99072C30.7774 5.99072 28.49 7.12902 27.3154 9.28236C26.5904 10.4678 26.4345 11.6713 26.3801 15.0464H30.7557C30.7557 13.4042 30.8101 12.748 30.9623 12.1897C31.3865 10.7143 32.3834 9.96389 33.9277 9.96389C35.8998 9.96389 36.7879 10.8666 37.107 13.183C37.2048 13.9081 37.2483 15.4814 37.252 15.5466V15.6409L37.1686 15.6844L26.4273 21.5173V22.1952C26.4273 26.0088 26.9021 27.8395 28.3015 29.4455C29.5848 30.9245 31.5641 31.7076 34.0763 31.7076C36.3892 31.7076 38.3178 31.026 39.6554 29.7355C41.1816 28.26 41.6239 26.6795 41.6239 22.6991V15.2494C41.6239 11.9867 41.1961 10.098 40.0905 8.54283C38.8652 6.88614 36.7299 5.99072 33.9277 5.99072ZM37.2302 23.5618C37.2302 26.5961 36.2659 27.8903 34.0074 27.8903C31.8324 27.8903 30.8681 26.6903 30.7992 23.8772V23.7794L30.8826 23.7358L37.2302 20.2593V23.5618Z" fill="white"/>
</g>
<defs>
<linearGradient id="paint0_linear_639_4704" x1="-4.77735" y1="18.6785" x2="124.568" y2="18.6785" gradientUnits="userSpaceOnUse">
<stop stop-color="#020205"/>
<stop offset="1" stop-color="#661E85"/>
</linearGradient>
<clipPath id="clip0_639_4704">
<rect width="116.81" height="36.2515" fill="white" transform="translate(0.442627 0.55249)"/>
</clipPath>
</defs>
</svg>
