<svg width="130" height="69" viewBox="0 0 130 69" fill="none" xmlns="http://www.w3.org/2000/svg">
<mask id="mask0_508_77" style="mask-type:luminance" maskUnits="userSpaceOnUse" x="0" y="0" width="130" height="69">
<path d="M130 0H0V68.6111H130V0Z" fill="white"/>
</mask>
<g mask="url(#mask0_508_77)">
<path d="M42.4687 45.5815H36.7686V68.171H42.4687V45.5815Z" fill="#049FD9"/>
<path d="M88.43 52.0539C88.201 51.9349 86.368 50.8479 83.642 50.8479C79.9492 50.8479 77.3943 53.4139 77.3943 56.8729C77.3943 60.2299 79.8427 62.9039 83.642 62.9039C86.321 62.9039 88.184 61.8399 88.43 61.7049V67.7679C87.722 67.9679 85.778 68.5709 83.232 68.5709C76.8238 68.5709 71.2031 64.1509 71.2031 56.8729C71.2031 50.1279 76.2947 45.1802 83.232 45.1802C85.915 45.1802 87.894 45.8321 88.43 45.9909V52.0539Z" fill="#049FD9"/>
<path d="M28.9314 52.0539C28.7021 51.9349 26.8694 50.8479 24.1431 50.8479C20.4507 50.8479 17.8958 53.4139 17.8958 56.8729C17.8958 60.2299 20.3442 62.9039 24.1431 62.9039C26.8225 62.9039 28.6858 61.8399 28.9314 61.7049V67.7679C28.2236 67.9679 26.279 68.5709 23.7332 68.5709C17.3253 68.5709 11.7046 64.1509 11.7046 56.8729C11.7046 50.1279 16.7962 45.1802 23.7332 45.1802C26.4162 45.1802 28.3951 45.8321 28.9314 45.9909V52.0539Z" fill="#049FD9"/>
<path d="M106.363 50.9329C102.981 50.9329 100.47 53.5939 100.47 56.8729C100.47 60.1589 102.981 62.8189 106.363 62.8189C109.741 62.8189 112.26 60.1589 112.26 56.8729C112.26 53.5939 109.741 50.9329 106.363 50.9329ZM118.3 56.8729C118.3 63.3349 113.311 68.5709 106.363 68.5709C99.4151 68.5709 94.4341 63.3349 94.4341 56.8729C94.4341 50.4219 99.4151 45.1802 106.363 45.1802C113.311 45.1802 118.3 50.4219 118.3 56.8729Z" fill="#049FD9"/>
<path d="M64.086 50.7151C64.0011 50.6881 61.6015 50.0261 59.6299 50.0261C57.3458 50.0261 56.1036 50.7911 56.1036 51.8761C56.1036 53.2521 57.7792 53.7331 58.7163 54.0291L60.2889 54.5291C63.9885 55.7061 65.6749 58.2391 65.6749 60.9911C65.6749 66.6661 60.6843 68.5721 56.3221 68.5721C53.2906 68.5721 50.4504 68.0141 50.1706 67.9551V62.7571C50.6725 62.8831 53.0631 63.5961 55.5529 63.5961C58.3895 63.5961 59.6931 62.7681 59.6931 61.4871C59.6931 60.3431 58.5646 59.6821 57.1508 59.2381C56.806 59.1221 56.2878 58.9601 55.9339 58.8441C52.7597 57.8401 50.1128 55.9751 50.1128 52.2361C50.1128 48.0111 53.2761 45.1743 58.5303 45.1743C61.3054 45.1743 63.9163 45.8477 64.086 45.8929V50.7151Z" fill="#049FD9"/>
<path d="M5.6604 21.3053C5.6604 19.7489 4.3893 18.4868 2.8311 18.4868C1.2729 18.4868 0 19.7489 0 21.3053V27.2348C0 28.8002 1.2729 30.0641 2.8311 30.0641C4.3893 30.0641 5.6604 28.8002 5.6604 27.2348V21.3053Z" fill="#049FD9"/>
<path d="M21.2053 13.5223C21.2053 11.9659 19.9342 10.7002 18.376 10.7002C16.816 10.7002 15.5449 11.9659 15.5449 13.5223V27.2355C15.5449 28.8009 16.816 30.063 18.376 30.063C19.9342 30.063 21.2053 28.8009 21.2053 27.2355V13.5223Z" fill="#049FD9"/>
<path d="M36.7498 2.87401C36.7498 1.31761 35.4787 0.0537109 33.9205 0.0537109C32.3605 0.0537109 31.0894 1.31761 31.0894 2.87401V32.8697C31.0894 34.4351 32.3605 35.699 33.9205 35.699C35.4787 35.699 36.7498 34.4351 36.7498 32.8697V2.87401Z" fill="#049FD9"/>
<path d="M52.2947 13.5223C52.2947 11.9659 51.0236 10.7002 49.4654 10.7002C47.9054 10.7002 46.6343 11.9659 46.6343 13.5223V27.2355C46.6343 28.8009 47.9054 30.063 49.4654 30.063C51.0236 30.063 52.2947 28.8009 52.2947 27.2355V13.5223Z" fill="#049FD9"/>
<path d="M67.8211 21.3053C67.8211 19.7489 66.559 18.4868 65.008 18.4868C63.4498 18.4868 62.1787 19.7489 62.1787 21.3053V27.2348C62.1787 28.8002 63.4498 30.0641 65.008 30.0641C66.559 30.0641 67.8211 28.8002 67.8211 27.2348V21.3053Z" fill="#049FD9"/>
<path d="M67.8289 21.3053C67.8289 19.7489 66.5578 18.4868 64.9996 18.4868C63.4414 18.4868 62.1685 19.7489 62.1685 21.3053V27.2348C62.1685 28.8002 63.4414 30.0641 64.9996 30.0641C66.5578 30.0641 67.8289 28.8002 67.8289 27.2348V21.3053Z" fill="#049FD9"/>
<path d="M83.3729 13.5223C83.3729 11.9659 82.1022 10.7002 80.544 10.7002C78.984 10.7002 77.7129 11.9659 77.7129 13.5223V27.2355C77.7129 28.8009 78.984 30.063 80.544 30.063C82.1022 30.063 83.3729 28.8009 83.3729 27.2355V13.5223Z" fill="#049FD9"/>
<path d="M98.9178 2.87401C98.9178 1.31761 97.6468 0.0537109 96.0888 0.0537109C94.5288 0.0537109 93.2578 1.31761 93.2578 2.87401V32.8697C93.2578 34.4351 94.5288 35.699 96.0888 35.699C97.6468 35.699 98.9178 34.4351 98.9178 32.8697V2.87401Z" fill="#049FD9"/>
<path d="M114.463 13.5223C114.463 11.9659 113.192 10.7002 111.634 10.7002C110.074 10.7002 108.802 11.9659 108.802 13.5223V27.2355C108.802 28.8009 110.074 30.063 111.634 30.063C113.192 30.063 114.463 28.8009 114.463 27.2355V13.5223Z" fill="#049FD9"/>
<path d="M129.989 21.3053C129.989 19.7489 128.727 18.4868 127.176 18.4868C125.618 18.4868 124.347 19.7489 124.347 21.3053V27.2348C124.347 28.8002 125.618 30.0641 127.176 30.0641C128.727 30.0641 129.989 28.8002 129.989 27.2348V21.3053Z" fill="#049FD9"/>
<path d="M126.739 65.1958V65.5498H125.731V68.1688H125.318V65.5498H124.305V65.1958H126.739Z" fill="#049FD9"/>
<path d="M126.95 65.1958H127.598L128.488 67.6348H128.502L129.364 65.1958H129.999V68.1688H129.575V65.7318H129.56L128.658 68.1688H128.266L127.385 65.7318H127.365V68.1688H126.95V65.1958Z" fill="#049FD9"/>
</g>
</svg>
