<svg width="91" height="91" viewBox="0 0 91 91" fill="none" xmlns="http://www.w3.org/2000/svg">
<circle cx="45.2715" cy="45.4548" r="45" fill="#5840BA"/>
<g opacity="0.697033" filter="url(#filter0_f_639_4609)">
<path fill-rule="evenodd" clip-rule="evenodd" d="M18.9473 33.9052C18.9473 32.9111 19.7532 32.1052 20.7473 32.1052H71.1473C72.1414 32.1052 72.9473 32.9111 72.9473 33.9052V66.3052C72.9473 67.2993 72.1414 68.1052 71.1473 68.1052H20.7473C19.7532 68.1052 18.9473 67.2993 18.9473 66.3052V33.9052Z" fill="#4229A6"/>
</g>
<path fill-rule="evenodd" clip-rule="evenodd" d="M18.9473 30.3051C18.9473 29.311 19.7532 28.5051 20.7473 28.5051H71.1473C72.1414 28.5051 72.9473 29.311 72.9473 30.3051V62.7051C72.9473 63.6992 72.1414 64.5051 71.1473 64.5051H20.7473C19.7532 64.5051 18.9473 63.6992 18.9473 62.7051V30.3051Z" fill="white"/>
<path opacity="0.7" fill-rule="evenodd" clip-rule="evenodd" d="M54.2634 41.7455C54.3015 41.5386 54.3205 41.3268 54.3205 41.1098C54.3205 40.0605 53.9121 39.1647 53.0957 38.4222C52.2792 37.68 51.2938 37.3087 50.1395 37.3087C49.0942 37.3087 48.1904 37.6156 47.4284 38.2294C46.7862 36.8237 45.7651 35.6854 44.3661 34.8142C42.9668 33.9433 41.4069 33.5076 39.6864 33.5076C37.3781 33.5076 35.4071 34.2502 33.7738 35.735C32.1403 37.2195 31.3239 39.0114 31.3239 41.11C31.3239 41.2585 31.3348 41.4712 31.3565 41.7484C30.0935 42.2829 29.0753 43.0921 28.3022 44.1764C27.5292 45.26 27.1426 46.4555 27.1426 47.7622C27.1426 49.5934 27.8587 51.1599 29.2904 52.4615C30.7222 53.7633 32.4454 54.4142 34.4598 54.4142H47.4271C47.5278 54.0001 47.6995 53.5479 47.8326 53.2467L46.8906 51.9455V49.9265L47.8326 46.696L48.6848 44.2731L51.7362 43.5104L54.2634 41.7455Z" fill="#8E77F8"/>
<path d="M59.3493 57.3504L59.3916 57.3186L59.4296 57.2817L61.0057 55.7483L61.0057 55.7484L61.0137 55.7404C61.2302 55.5239 61.3402 55.2433 61.3676 54.9834C61.3952 54.7216 61.3463 54.4037 61.1441 54.1252L60.746 53.5528C60.82 53.3979 60.8935 53.2363 60.9611 53.0705L61.6463 52.9437L61.6463 52.9438L61.6582 52.9414C62.2835 52.8161 62.6609 52.2846 62.6609 51.7078V49.4929C62.6609 48.9171 62.2844 48.3847 61.6581 48.2593L61.6581 48.2592L61.6462 48.257L60.9767 48.1332C60.9198 47.9734 60.8566 47.8105 60.7869 47.65L61.1861 47.0762C61.6033 46.5043 61.3802 45.8787 61.1328 45.5487L61.101 45.5064L61.0641 45.4684L59.5307 43.8923L59.5307 43.8923L59.5227 43.8843C59.3063 43.6678 59.0257 43.5578 58.7658 43.5304C58.504 43.5028 58.1861 43.5518 57.9076 43.7539L57.3352 44.152C57.1803 44.078 57.0186 44.0045 56.8529 43.9369L56.7261 43.2518L56.7262 43.2517L56.7238 43.2398C56.5984 42.6145 56.067 42.2371 55.4902 42.2371H53.2753C52.6995 42.2371 52.1671 42.6136 52.0417 43.2399L52.0416 43.2399L52.0394 43.2518L51.9155 43.9213C51.7557 43.9782 51.5929 44.0414 51.4324 44.1111L50.8586 43.7119C50.2867 43.2947 49.6611 43.5179 49.3311 43.7652L49.2888 43.797L49.2508 43.8339L47.6837 45.3586C47.4159 45.6065 47.2608 45.9469 47.294 46.3336C47.3212 46.6508 47.4712 46.9082 47.5654 47.0558C47.6381 47.1696 47.7337 47.2996 47.8114 47.4052C47.8369 47.4399 47.8605 47.4719 47.8807 47.4999C47.8891 47.5116 47.8974 47.5232 47.9055 47.5346C47.827 47.6981 47.7486 47.8693 47.6769 48.0451L46.9917 48.1719L46.9917 48.1718L46.9798 48.1742C46.3545 48.2996 45.9771 48.831 45.9771 49.4078V51.6227C45.9771 52.2756 46.4686 52.7293 46.9416 52.8477L46.9665 52.8539L46.9917 52.8586L47.661 52.9825C47.718 53.1423 47.7811 53.3051 47.8508 53.4656L47.4517 54.0394C47.0345 54.6113 47.2576 55.2369 47.505 55.5669L47.5367 55.6093L47.5737 55.6472L49.1071 57.2233L49.107 57.2234L49.115 57.2314C49.3315 57.4478 49.6121 57.5578 49.8719 57.5852C50.1338 57.6128 50.4517 57.5639 50.7302 57.3617L51.3026 56.9636C51.4575 57.0376 51.6191 57.1111 51.7849 57.1787L51.9117 57.8639L51.9116 57.8639L51.914 57.8759C52.0393 58.5011 52.5708 58.8785 53.1476 58.8785H55.3625C55.9383 58.8785 56.4707 58.502 56.5961 57.8757L56.5962 57.8757L56.5983 57.8639L56.7209 57.2018C56.8916 57.1415 57.0578 57.0752 57.2194 57.0027L57.83 57.4096C58.3996 57.8188 59.0209 57.5966 59.3493 57.3504ZM56.3701 50.5579V50.558C56.3703 51.6788 55.4613 52.588 54.3401 52.588C53.2189 52.588 52.31 51.6789 52.31 50.5579C52.31 49.4367 53.2191 48.5278 54.3401 48.5278C55.4612 48.5278 56.3701 49.4369 56.3701 50.5579Z" fill="#8E77F8" fill-opacity="0.7" stroke="white" stroke-width="1.64735"/>
<path opacity="0.7" d="M62.6522 43.5974C62.7578 43.6587 62.876 43.6201 62.9644 43.5359L63.758 42.5575C63.8221 42.4762 63.8292 42.328 63.7451 42.2396L63.2915 41.728C63.3839 41.4713 63.4765 41.2146 63.5206 40.9637L64.1606 40.7653C64.2789 40.7267 64.3402 40.6212 64.3259 40.5L64.177 39.2398C64.1627 39.1187 64.0785 39.0304 63.9544 39.0204L63.2856 38.9766C63.1843 38.7429 63.0558 38.4877 62.9089 38.284L63.2307 37.6807C63.292 37.5752 63.2534 37.4569 63.1692 37.3686L62.1908 36.5749C62.1095 36.5108 61.9613 36.5037 61.8729 36.5879L61.3613 37.0415C61.1047 36.949 60.848 36.8564 60.597 36.8124L60.3986 36.1723C60.36 36.0541 60.2546 35.9927 60.1333 36.007L58.8732 36.156C58.7521 36.1703 58.6637 36.2544 58.6537 36.3785L58.61 37.0474C58.3762 37.1487 58.121 37.2772 57.9173 37.424L57.3141 37.1022C57.2085 37.041 57.0903 37.0796 57.0019 37.1637L56.2083 38.1421C55.9917 38.3888 56.4109 38.6097 56.6507 38.9745C56.5582 39.2311 56.4656 39.4878 56.4216 39.7388L55.7815 39.9372C55.6633 39.9758 55.6019 40.0812 55.6162 40.2025L55.7652 41.4626C55.7795 41.5837 55.8879 41.6693 55.9877 41.6821L56.6564 41.7258C56.7578 41.9596 56.8862 42.2148 57.0331 42.4185L56.7113 43.0218C56.65 43.1273 56.6886 43.2456 56.7728 43.3339L57.7512 44.1275C57.8325 44.1916 57.9807 44.1987 58.0691 44.1146L58.5807 43.661C58.8374 43.7535 59.0941 43.8461 59.345 43.8901L59.5434 44.5302C59.582 44.6484 59.6874 44.7098 59.8087 44.6955L61.0689 44.5465C61.19 44.5322 61.2783 44.4481 61.2883 44.324L61.3321 43.6553C61.5901 43.5511 61.821 43.4255 62.0247 43.2786L62.6522 43.5974ZM60.175 41.9735C59.2782 42.0795 58.4654 41.4383 58.3594 40.5418C58.2535 39.645 58.8946 38.8322 59.7912 38.7262C60.6879 38.6203 61.5007 39.2614 61.6067 40.158C61.7128 41.0546 61.0717 41.8675 60.175 41.9735Z" fill="#8E77F8"/>
<defs>
<filter id="filter0_f_639_4609" x="14.0544" y="27.2123" width="63.7858" height="45.7858" filterUnits="userSpaceOnUse" color-interpolation-filters="sRGB">
<feFlood flood-opacity="0" result="BackgroundImageFix"/>
<feBlend mode="normal" in="SourceGraphic" in2="BackgroundImageFix" result="shape"/>
<feGaussianBlur stdDeviation="2.44645" result="effect1_foregroundBlur_639_4609"/>
</filter>
</defs>
</svg>
