<svg width="51" height="50" viewBox="0 0 51 50" fill="none" xmlns="http://www.w3.org/2000/svg">
<circle cx="25.7275" cy="25" r="25" fill="#5840BA"/>
<g filter="url(#filter0_d_623_4136)">
<path fill-rule="evenodd" clip-rule="evenodd" d="M10.9497 16C10.9497 15.4477 11.3974 15 11.9497 15H39.9497C40.502 15 40.9497 15.4477 40.9497 16V34C40.9497 34.5523 40.502 35 39.9497 35H11.9497C11.3974 35 10.9497 34.5523 10.9497 34V16Z" fill="white"/>
<g opacity="0.701846">
<mask id="mask0_623_4136" style="mask-type:alpha" maskUnits="userSpaceOnUse" x="18" y="15" width="14" height="17">
<path d="M31.696 31.7134H18.4233V15.6749L25.8108 15.6709C25.623 16.0109 25.4746 16.3714 25.368 16.7451L24.7035 17.0304V19.3085L25.8108 19.5819C25.9174 19.9556 25.9134 19.9252 26.101 20.2655L25.5542 21.1769L27.3163 22.9238L28.1822 22.3314C28.5218 22.5204 28.5526 22.5601 28.9265 22.6656L29.0632 23.6226H31.696V31.7134Z" fill="#8E77F8"/>
</mask>
<g mask="url(#mask0_623_4136)">
<path d="M20.292 30.3262H30.097C30.4136 30.3262 30.6704 30.0694 30.6704 29.7527V26.7132C30.6704 26.3962 30.414 26.1385 30.097 26.1375H20.292C19.9748 26.1386 19.7184 26.3962 19.7184 26.7132V29.7414C19.7154 29.8954 19.7744 30.0442 19.8825 30.1543C19.9903 30.2644 20.1378 30.3262 20.292 30.3262L20.292 30.3262ZM24.0653 27.9168H29.2183C29.3118 27.9168 29.3876 27.9926 29.3876 28.0861C29.3876 28.1798 29.3118 28.2556 29.2183 28.2556H24.0653C23.9718 28.2556 23.896 28.1798 23.896 28.0861C23.896 27.9926 23.9718 27.9168 24.0653 27.9168ZM21.8073 27.1648C22.0917 27.1648 22.3646 27.2779 22.5657 27.479C22.7668 27.6802 22.8798 27.9529 22.8798 28.2375C22.8798 28.5219 22.7669 28.7948 22.5657 28.9959C22.3646 29.197 22.0917 29.3101 21.8073 29.3101C21.5227 29.3101 21.25 29.1971 21.0489 28.9959C20.8477 28.7947 20.7346 28.5219 20.7346 28.2375C20.7346 27.9529 20.8477 27.6802 21.0489 27.479C21.25 27.2779 21.5227 27.1648 21.8073 27.1648Z" fill="#8E77F8"/>
<path d="M22.5427 28.2258C22.5427 28.6311 22.2141 28.9597 21.8088 28.9597C21.4035 28.9597 21.0747 28.6311 21.0747 28.2258C21.0747 27.8205 21.4035 27.4919 21.8088 27.4919C22.2141 27.4919 22.5427 27.8205 22.5427 28.2258Z" fill="#8E77F8"/>
<path d="M20.292 25.6853H30.097C30.4136 25.6853 30.6704 25.4285 30.6704 25.1119V22.0723C30.6704 21.7553 30.414 21.4977 30.097 21.4966H20.292C19.9748 21.4977 19.7184 21.7553 19.7184 22.0723V25.1005C19.7154 25.2545 19.7744 25.4034 19.8825 25.5134C19.9903 25.6235 20.1378 25.6854 20.292 25.6854L20.292 25.6853ZM24.0653 23.2759H29.2183C29.3118 23.2759 29.3876 23.3517 29.3876 23.4452C29.3876 23.5389 29.3118 23.6147 29.2183 23.6147H24.0653C23.9718 23.6147 23.896 23.5389 23.896 23.4452C23.896 23.3517 23.9718 23.2759 24.0653 23.2759ZM21.8073 22.5239C22.0917 22.5239 22.3646 22.637 22.5657 22.8382C22.7668 23.0393 22.8798 23.312 22.8798 23.5966C22.8798 23.881 22.7669 24.1539 22.5657 24.355C22.3646 24.5562 22.0917 24.6693 21.8073 24.6693C21.5227 24.6693 21.25 24.5562 21.0489 24.355C20.8477 24.1539 20.7346 23.881 20.7346 23.5966C20.7346 23.312 20.8477 23.0393 21.0489 22.8382C21.25 22.637 21.5227 22.5239 21.8073 22.5239Z" fill="#8E77F8"/>
<path d="M22.5427 23.585C22.5427 23.9903 22.2141 24.3188 21.8088 24.3188C21.4035 24.3188 21.0747 23.9903 21.0747 23.585C21.0747 23.1796 21.4035 22.8511 21.8088 22.8511C22.2141 22.8511 22.5427 23.1796 22.5427 23.585Z" fill="#8E77F8"/>
<path d="M20.292 20.9783H30.097C30.4136 20.9783 30.6704 20.7215 30.6704 20.4048V17.3653C30.6704 17.0483 30.414 16.7906 30.097 16.7896H20.292C19.9748 16.7907 19.7184 17.0483 19.7184 17.3653V20.3935C19.7154 20.5475 19.7744 20.6963 19.8825 20.8064C19.9903 20.9165 20.1378 20.9783 20.292 20.9783L20.292 20.9783ZM24.0653 18.5689H29.2183C29.3118 18.5689 29.3876 18.6447 29.3876 18.7382C29.3876 18.8319 29.3118 18.9077 29.2183 18.9077H24.0653C23.9718 18.9077 23.896 18.8319 23.896 18.7382C23.896 18.6447 23.9718 18.5689 24.0653 18.5689ZM21.8073 17.8169C22.0917 17.8169 22.3646 17.93 22.5657 18.1311C22.7668 18.3323 22.8798 18.605 22.8798 18.8896C22.8798 19.174 22.7669 19.4469 22.5657 19.648C22.3646 19.8491 22.0917 19.9622 21.8073 19.9622C21.5227 19.9622 21.25 19.8492 21.0489 19.648C20.8477 19.4468 20.7346 19.174 20.7346 18.8896C20.7346 18.605 20.8477 18.3323 21.0489 18.1311C21.25 17.93 21.5227 17.8169 21.8073 17.8169Z" fill="#8E77F8"/>
<path d="M22.5427 18.8779C22.5427 19.2832 22.2141 19.6118 21.8088 19.6118C21.4035 19.6118 21.0747 19.2832 21.0747 18.8779C21.0747 18.4726 21.4035 18.144 21.8088 18.144C22.2141 18.144 22.5427 18.4726 22.5427 18.8779Z" fill="#8E77F8"/>
</g>
<path d="M33.738 16.2205L34.2368 15.4651L32.9515 14.1819L32.1961 14.6785C31.9318 14.5325 31.6518 14.417 31.3614 14.3343L31.1819 13.4495H29.3647L29.1831 14.3363C28.8928 14.4191 28.6128 14.5348 28.3484 14.6805L27.593 14.184L26.3098 15.4672L26.8063 16.2226H26.8065C26.6606 16.4868 26.5451 16.7668 26.4623 17.0571L25.5796 17.2345V19.052L26.4664 19.2335V19.2334C26.5492 19.5237 26.6649 19.8037 26.8107 20.0681L26.3141 20.8234L27.5973 22.1087L28.3527 21.61C28.6166 21.7568 28.8968 21.8723 29.1872 21.9542L29.3647 22.839H31.1821L31.3637 21.9521H31.3635C31.6542 21.8702 31.9342 21.7547 32.1982 21.6079L32.9536 22.1067L34.2389 20.8214L33.738 20.066C33.8848 19.802 34.0003 19.522 34.0823 19.2313L34.9691 19.0518V17.2345L34.0823 17.053C34.0002 16.763 33.8847 16.4836 33.738 16.2205L33.738 16.2205ZM30.2744 20.7127C29.5931 20.7127 28.9398 20.442 28.4582 19.9605C27.9765 19.4788 27.7058 18.8254 27.7058 18.1443C27.7058 17.4629 27.9765 16.8096 28.4582 16.328C28.9398 15.8463 29.5931 15.5756 30.2744 15.5756C30.9556 15.5756 31.6089 15.8463 32.0907 16.328C32.5722 16.8096 32.8429 17.4629 32.8429 18.1443C32.8417 18.8251 32.5708 19.4777 32.0894 19.9593C31.6079 20.4406 30.9553 20.7115 30.2744 20.7127Z" fill="#8E77F8"/>
<path d="M32.2928 18.145C32.2928 19.2592 31.3896 20.1624 30.2754 20.1624C29.1612 20.1624 28.2578 19.2592 28.2578 18.145C28.2578 17.0308 29.1612 16.1274 30.2754 16.1274C31.3896 16.1274 32.2928 17.0308 32.2928 18.145Z" fill="#8E77F8"/>
</g>
<path fill-rule="evenodd" clip-rule="evenodd" d="M8.72754 33C8.72754 32.4477 9.17525 32 9.72754 32H41.7275C42.2798 32 42.7275 32.4477 42.7275 33V34C42.7275 34.5523 42.2798 35 41.7275 35H9.72754C9.17526 35 8.72754 34.5523 8.72754 34V33Z" fill="white"/>
</g>
<defs>
<filter id="filter0_d_623_4136" x="6.72754" y="13.4495" width="38" height="25.5505" filterUnits="userSpaceOnUse" color-interpolation-filters="sRGB">
<feFlood flood-opacity="0" result="BackgroundImageFix"/>
<feColorMatrix in="SourceAlpha" type="matrix" values="0 0 0 0 0 0 0 0 0 0 0 0 0 0 0 0 0 0 127 0" result="hardAlpha"/>
<feOffset dy="2"/>
<feGaussianBlur stdDeviation="1"/>
<feColorMatrix type="matrix" values="0 0 0 0 0.258824 0 0 0 0 0.160784 0 0 0 0 0.65098 0 0 0 1 0"/>
<feBlend mode="normal" in2="BackgroundImageFix" result="effect1_dropShadow_623_4136"/>
<feBlend mode="normal" in="SourceGraphic" in2="effect1_dropShadow_623_4136" result="shape"/>
</filter>
</defs>
</svg>
