<svg width="51" height="50" viewBox="0 0 51 50" fill="none" xmlns="http://www.w3.org/2000/svg">
<circle cx="25.7275" cy="25" r="25" fill="#5840BA"/>
<g filter="url(#filter0_f_620_1871)">
<path fill-rule="evenodd" clip-rule="evenodd" d="M11.7273 17C11.175 17 10.7273 17.4477 10.7273 18V33.0002C10.7273 33.5524 10.2797 34 9.72754 34C9.17525 34 8.72754 34.4477 8.72754 35V36C8.72754 36.5523 9.17525 37 9.72754 37L11.7273 37H39.7273L41.7275 37C42.2798 37 42.7275 36.5523 42.7275 36V35C42.7275 34.4477 42.2798 34 41.7275 34C41.1753 34 40.7273 33.5523 40.7273 33V18C40.7273 17.4477 40.2796 17 39.7273 17H11.7273Z" fill="#4229A6"/>
</g>
<path fill-rule="evenodd" clip-rule="evenodd" d="M10.5254 16.0586C10.5254 15.5063 10.9731 15.0586 11.5254 15.0586H39.5254C40.0777 15.0586 40.5254 15.5063 40.5254 16.0586V34.0586C40.5254 34.6109 40.0777 35.0586 39.5254 35.0586H11.5254C10.9731 35.0586 10.5254 34.6109 10.5254 34.0586V16.0586Z" fill="white"/>
<g opacity="0.8">
<path d="M30.6181 18.6365V16.8447C30.6181 16.4165 30.1003 16.202 29.7975 16.5047L26.6314 19.6708C26.4437 19.8585 26.4437 20.1629 26.6314 20.3507L29.7975 23.5167C30.1002 23.8197 30.6181 23.6051 30.6181 23.1767V21.3896C32.6216 21.4141 34.244 23.0494 34.244 25.0584C34.244 27.0829 32.5974 28.7296 30.5729 28.7296C28.5485 28.7296 26.9019 27.0827 26.9019 25.0584C26.9019 21.5158 24.0198 18.6343 20.4778 18.6343C16.9355 18.6343 14.0532 21.5158 14.0532 25.0584C14.0532 28.5758 16.8951 31.4378 20.4027 31.4789V33.2722C20.4027 33.7005 20.9206 33.915 21.2233 33.6122L24.3894 30.4462C24.5771 30.2584 24.5771 29.9541 24.3894 29.7663L21.2233 26.6003C20.9206 26.2973 20.4027 26.5118 20.4027 26.9403V28.726C18.4131 28.6856 16.8068 27.0577 16.8068 25.0586C16.8068 23.0343 18.4533 21.3873 20.4778 21.3873C22.5021 21.3873 24.1488 23.0343 24.1488 25.0586C24.1488 28.6011 27.031 31.4827 30.5734 31.4827C34.1159 31.4827 36.9975 28.6011 36.9975 25.0586C36.9975 21.5313 34.1396 18.6614 30.6181 18.6365V18.6365Z" fill="#8E77F8"/>
<path d="M30.0804 23.234L30.0803 23.2339L26.9143 20.0678C26.9143 20.0678 26.9143 20.0678 26.9143 20.0678C26.8827 20.0362 26.8828 19.9852 26.9143 19.9536L30.0803 16.7876C30.097 16.7709 30.1109 16.7659 30.1217 16.7641C30.1346 16.7618 30.1512 16.7631 30.1682 16.7702C30.1853 16.7772 30.1979 16.788 30.2055 16.7988C30.2118 16.8078 30.2181 16.8212 30.2181 16.8447V18.6365V18.6365V19.0337L30.6153 19.0365C33.9174 19.0598 36.5975 21.7515 36.5975 25.0586C36.5975 28.3802 33.895 31.0827 30.5734 31.0827C27.2519 31.0827 24.5488 28.3802 24.5488 25.0586C24.5488 22.8134 22.723 20.9873 20.4778 20.9873C18.2324 20.9873 16.4068 22.8134 16.4068 25.0586C16.4068 27.2764 18.1883 29.0811 20.3946 29.126L20.8027 29.1343V28.726V26.9403C20.8027 26.9166 20.809 26.9031 20.8154 26.8942C20.823 26.8834 20.8355 26.8726 20.8526 26.8655C20.8696 26.8585 20.8861 26.8572 20.8991 26.8594C20.9098 26.8613 20.9237 26.8663 20.9404 26.883L20.9405 26.8831L24.1065 30.0491C24.1065 30.0491 24.1065 30.0492 24.1065 30.0492C24.1381 30.0807 24.1381 30.1318 24.1065 30.1633L20.9405 33.3294C20.9238 33.346 20.9099 33.3511 20.8992 33.3529C20.8862 33.3552 20.8697 33.3539 20.8526 33.3468C20.8355 33.3397 20.8229 33.329 20.8153 33.3182C20.809 33.3092 20.8027 33.2958 20.8027 33.2722V31.4789V31.0836L20.4074 31.079C17.1182 31.0404 14.4532 28.356 14.4532 25.0584C14.4532 21.7368 17.1563 19.0343 20.4778 19.0343C23.7989 19.0343 26.5019 21.7368 26.5019 25.0584C26.5019 27.3035 28.3275 29.1296 30.5729 29.1296C32.8184 29.1296 34.644 27.3038 34.644 25.0584C34.644 22.8298 32.8448 21.0168 30.623 20.9896L30.2181 20.9846V21.3896V23.1767C30.2181 23.2004 30.2118 23.2138 30.2055 23.2228C30.1979 23.2336 30.1853 23.2444 30.1682 23.2514C30.1512 23.2585 30.1347 23.2598 30.1218 23.2575C30.111 23.2557 30.0971 23.2507 30.0804 23.234Z" fill="#8E77F8" stroke="white" stroke-width="0.8"/>
<path d="M33.0477 23.7189L33.395 23.1929L32.5 22.2993L31.974 22.6451C31.7899 22.5435 31.595 22.4631 31.3928 22.4054L31.2678 21.7893H30.0024L29.8759 22.4069C29.6738 22.4645 29.4788 22.545 29.2947 22.6465L28.7687 22.3008L27.8752 23.1943L28.2209 23.7203H28.221C28.1194 23.9043 28.039 24.0993 27.9814 24.3014L27.3667 24.425V25.6905L27.9842 25.8169V25.8168C28.0419 26.019 28.1224 26.214 28.2239 26.3981L27.8782 26.9241L28.7717 27.819L29.2977 27.4717C29.4814 27.574 29.6765 27.6544 29.8788 27.7114L30.0024 28.3275H31.2679L31.3943 27.71H31.3942C31.5966 27.6529 31.7916 27.5725 31.9754 27.4703L32.5014 27.8176L33.3964 26.9226L33.0477 26.3966C33.1499 26.2128 33.2303 26.0178 33.2874 25.8154L33.9049 25.6904V24.425L33.2874 24.2985C33.2302 24.0966 33.1498 23.9021 33.0477 23.7189L33.0477 23.7189ZM30.6359 26.847C30.1614 26.847 29.7065 26.6585 29.3712 26.3232C29.0357 25.9877 28.8472 25.5328 28.8472 25.0584C28.8472 24.584 29.0357 24.1291 29.3712 23.7937C29.7065 23.4583 30.1614 23.2698 30.6359 23.2698C31.1102 23.2698 31.5651 23.4583 31.9006 23.7937C32.2359 24.1291 32.4244 24.584 32.4244 25.0584C32.4236 25.5325 32.2349 25.987 31.8997 26.3223C31.5644 26.6575 31.11 26.8461 30.6359 26.847Z" fill="#8E77F8"/>
<path d="M31.7679 25.0585C31.7679 25.6836 31.2612 26.1902 30.6362 26.1902C30.0111 26.1902 29.5044 25.6836 29.5044 25.0585C29.5044 24.4335 30.0111 23.9268 30.6362 23.9268C31.2612 23.9268 31.7679 24.4335 31.7679 25.0585Z" fill="#8E77F8"/>
<path d="M22.8153 23.5265L23.1626 23.0005L22.2676 22.107L21.7416 22.4527C21.5575 22.3511 21.3625 22.2707 21.1604 22.213L21.0354 21.5969H19.77L19.6435 22.2145C19.4413 22.2721 19.2464 22.3527 19.0623 22.4542L18.5363 22.1084L17.6427 23.0019L17.9885 23.5279H17.9886C17.887 23.7119 17.8066 23.9069 17.7489 24.109L17.1343 24.2326V25.4981L17.7518 25.6246V25.6244C17.8095 25.8266 17.89 26.0216 17.9915 26.2057L17.6458 26.7317L18.5393 27.6267L19.0653 27.2794C19.249 27.3816 19.4441 27.462 19.6464 27.519L19.77 28.1352H21.0355L21.1619 27.5176H21.1618C21.3642 27.4606 21.5592 27.3801 21.743 27.2779L22.269 27.6252L23.164 26.7302L22.8153 26.2042C22.9175 26.0204 22.9979 25.8254 23.055 25.623L23.6725 25.498V24.2326L23.055 24.1062C22.9978 23.9042 22.9174 23.7097 22.8153 23.5265L22.8153 23.5265ZM20.4035 26.6546C19.929 26.6546 19.4741 26.4661 19.1388 26.1308C18.8033 25.7953 18.6148 25.3404 18.6148 24.8661C18.6148 24.3916 18.8033 23.9367 19.1388 23.6014C19.4741 23.2659 19.929 23.0774 20.4035 23.0774C20.8778 23.0774 21.3327 23.2659 21.6682 23.6014C22.0035 23.9367 22.192 24.3916 22.192 24.8661C22.1911 25.3402 22.0025 25.7946 21.6673 26.1299C21.332 26.4651 20.8776 26.6537 20.4035 26.6546Z" fill="#8E77F8"/>
<path d="M21.5354 24.8662C21.5354 25.4912 21.0288 25.9979 20.4038 25.9979C19.7787 25.9979 19.272 25.4912 19.272 24.8662C19.272 24.2411 19.7787 23.7344 20.4038 23.7344C21.0288 23.7344 21.5354 24.2411 21.5354 24.8662Z" fill="#8E77F8"/>
</g>
<path fill-rule="evenodd" clip-rule="evenodd" d="M8.52539 33.0586C8.52539 32.5063 8.97311 32.0586 9.52539 32.0586H41.5254C42.0777 32.0586 42.5254 32.5063 42.5254 33.0586V34.0586C42.5254 34.6109 42.0777 35.0586 41.5254 35.0586H9.52539C8.97311 35.0586 8.52539 34.6109 8.52539 34.0586V33.0586Z" fill="white"/>
<defs>
<filter id="filter0_f_620_1871" x="6.00926" y="14.2817" width="39.4366" height="25.4366" filterUnits="userSpaceOnUse" color-interpolation-filters="sRGB">
<feFlood flood-opacity="0" result="BackgroundImageFix"/>
<feBlend mode="normal" in="SourceGraphic" in2="BackgroundImageFix" result="shape"/>
<feGaussianBlur stdDeviation="1.35914" result="effect1_foregroundBlur_620_1871"/>
</filter>
</defs>
</svg>
