<svg width="91" height="90" viewBox="0 0 91 90" fill="none" xmlns="http://www.w3.org/2000/svg">
<circle cx="45.4785" cy="45" r="45" fill="#5840BA"/>
<g filter="url(#filter0_d_639_4651)">
<path fill-rule="evenodd" clip-rule="evenodd" d="M18.4785 28.0112C18.4785 27.4527 18.9313 27 19.4898 27H71.4673C72.0258 27 72.4785 27.4527 72.4785 28.0112V61.9888C72.4785 62.5473 72.0258 63 71.4673 63H19.4898C18.9313 63 18.4785 62.5473 18.4785 61.9888V28.0112Z" fill="white"/>
<g opacity="0.7">
<path d="M55.1809 46.4866V40.2857C55.3815 40.2349 55.5751 40.158 55.7551 40.0538C56.2772 39.7535 56.6508 39.2682 56.8067 38.687C56.9629 38.1055 56.8833 37.498 56.5821 36.9758C56.1806 36.2804 55.4319 35.8485 54.6285 35.8485C54.2352 35.8485 53.8462 35.9529 53.5037 36.1508C53.324 36.2546 53.1658 36.3811 53.0266 36.5225L47.6239 33.5073C47.6936 33.2906 47.7324 33.0594 47.7324 32.8195C47.7324 31.577 46.7218 30.5659 45.4797 30.5659C44.2378 30.5659 43.2272 31.5767 43.2272 32.8195C43.2272 33.0494 43.2621 33.2715 43.3269 33.481L37.9875 36.577C37.8367 36.4126 37.6585 36.2676 37.4552 36.1501C37.1125 35.9529 36.7233 35.8485 36.3304 35.8485C35.5264 35.8485 34.7784 36.2804 34.3768 36.9758C34.0763 37.4967 33.9963 38.1039 34.1516 38.685C34.3075 39.2666 34.6804 39.7526 35.2016 40.0532C35.4034 40.1695 35.6223 40.2499 35.8479 40.2992V46.4725C35.6219 46.5222 35.4032 46.6022 35.2007 46.7185C34.126 47.339 33.7563 48.7195 34.3768 49.796C34.778 50.4913 35.5257 50.923 36.3285 50.923C36.7224 50.923 37.1118 50.8183 37.4543 50.6206C37.6137 50.5285 37.7537 50.4144 37.8833 50.2904L43.3423 53.2457C43.2683 53.4683 43.2276 53.7056 43.2276 53.9526C43.2276 55.1961 44.2376 56.208 45.4801 56.208C46.7222 56.208 47.7326 55.1961 47.7326 53.9526C47.7326 53.7417 47.7014 53.5382 47.6472 53.3447L53.0219 50.2443C53.4314 50.6632 54.001 50.9239 54.6309 50.9239C55.8736 50.9239 56.8847 49.9135 56.8847 48.6718C56.8859 48.07 56.6517 47.5039 56.2262 47.0783C55.9327 46.7846 55.5733 46.5844 55.1809 46.4866ZM47.0973 52.389C46.6876 51.9655 46.1143 51.7006 45.4797 51.7006C44.883 51.7006 44.3412 51.9354 43.938 52.3151L38.4668 49.3528C38.4778 49.3187 38.4951 49.2873 38.5047 49.2528C38.6604 48.6716 38.5804 48.0644 38.2796 47.5437C37.985 47.0334 37.5029 46.667 36.9499 46.5073V40.2659C37.5029 40.1056 37.9847 39.7389 38.2796 39.2286C38.5847 38.7 38.6495 38.0978 38.5102 37.5485L43.9001 34.423C44.3067 34.8241 44.8649 35.0723 45.4801 35.0723C46.0847 35.0723 46.6333 34.8317 47.0383 34.4426L52.4698 37.4739C52.3045 38.0433 52.3605 38.676 52.6793 39.2284C52.9865 39.7608 53.4975 40.1368 54.0799 40.285V46.4878C53.1039 46.7349 52.3781 47.6177 52.3781 48.6696C52.3781 48.8853 52.4105 49.0932 52.4668 49.2907L47.0973 52.389Z" fill="#8E77F8"/>
<path d="M45.4795 36.7798C41.8355 36.7798 38.8711 39.7436 38.8711 43.3864C38.8711 47.0294 41.8355 49.993 45.4795 49.993C49.1217 49.993 52.0853 47.0294 52.0853 43.3864C52.0847 39.7434 49.1217 36.7798 45.4795 36.7798ZM42.4561 42.7549H40.1752C40.233 42.2691 40.3544 41.8028 40.5341 41.3655H42.58C42.5184 41.8189 42.4755 42.284 42.4561 42.7549ZM43.8541 41.3653H47.1031C47.168 41.7953 47.2156 42.2574 47.2364 42.7545H43.7196C43.7414 42.2574 43.7892 41.7953 43.8541 41.3653ZM40.1752 44.018H42.4561C42.4751 44.4875 42.518 44.9516 42.5794 45.4038H40.5326C40.354 44.9677 40.2328 44.5024 40.1752 44.018ZM43.7204 44.018H47.2372C47.2156 44.5141 47.1684 44.9746 47.1041 45.4038H43.8541C43.7888 44.9746 43.7414 44.5141 43.7204 44.018ZM48.4997 44.018H50.7812C50.7234 44.5026 50.6024 44.9677 50.4231 45.4038H48.3708C48.4347 44.9495 48.4795 44.4845 48.4997 44.018ZM48.4997 42.7549C48.4795 42.2866 48.4347 41.821 48.3702 41.3655H50.4221C50.6014 41.8032 50.7234 42.2693 50.7812 42.7549H48.4997ZM49.6847 40.1021H48.1261C47.975 39.4978 47.7819 38.9378 47.5443 38.4587C48.3921 38.8157 49.1256 39.3869 49.6847 40.1021ZM46.8342 40.1021H44.1236C44.4955 38.7972 45.0457 38.0424 45.4797 38.0424C45.9139 38.0424 46.4631 38.7972 46.8342 40.1021ZM43.3878 38.4697C43.1545 38.9456 42.9655 39.5002 42.8177 40.1021H41.2721C41.8257 39.3947 42.5504 38.8272 43.3878 38.4697ZM41.2696 46.667H42.8168C42.964 47.2703 43.1537 47.8264 43.3874 48.3028C42.549 47.9448 41.8235 47.3762 41.2696 46.667ZM44.1222 46.667H46.8353C46.4633 47.974 45.9135 48.7293 45.4791 48.7293C45.0449 48.7293 44.4941 47.9744 44.1222 46.667ZM47.5439 48.3137C47.7817 47.8333 47.9744 47.2721 48.1265 46.6668H49.6872C49.1276 47.3834 48.3929 47.9566 47.5439 48.3137Z" fill="#8E77F8"/>
</g>
<path fill-rule="evenodd" clip-rule="evenodd" d="M14.8789 58.6113C14.8789 58.0528 15.3317 57.6001 15.8901 57.6001H75.0677C75.6262 57.6001 76.0789 58.0528 76.0789 58.6113V61.9889C76.0789 62.5474 75.6262 63.0001 75.0677 63.0001H15.8901C15.3316 63.0001 14.8789 62.5474 14.8789 61.9889V58.6113Z" fill="white"/>
</g>
<defs>
<filter id="filter0_d_639_4651" x="12.8564" y="27" width="65.2449" height="40.0449" filterUnits="userSpaceOnUse" color-interpolation-filters="sRGB">
<feFlood flood-opacity="0" result="BackgroundImageFix"/>
<feColorMatrix in="SourceAlpha" type="matrix" values="0 0 0 0 0 0 0 0 0 0 0 0 0 0 0 0 0 0 127 0" result="hardAlpha"/>
<feOffset dy="2.02247"/>
<feGaussianBlur stdDeviation="1.01124"/>
<feColorMatrix type="matrix" values="0 0 0 0 0.258824 0 0 0 0 0.160784 0 0 0 0 0.65098 0 0 0 1 0"/>
<feBlend mode="normal" in2="BackgroundImageFix" result="effect1_dropShadow_639_4651"/>
<feBlend mode="normal" in="SourceGraphic" in2="effect1_dropShadow_639_4651" result="shape"/>
</filter>
</defs>
</svg>
