<svg width="136" height="41" viewBox="0 0 136 41" fill="none" xmlns="http://www.w3.org/2000/svg">
<g clip-path="url(#clip0_639_4762)">
<path d="M15.5028 39.9453H0.461914L8.0445 26.8933H23.0854L15.5028 39.9453ZM30.6679 39.9453H45.7088L38.1262 26.8933H23.0854L30.6679 39.9453ZM30.6679 13.8413L23.0854 0.789307L15.5028 13.8413L23.0854 26.8933L30.6679 13.8413Z" fill="#FF0000"/>
<path d="M52.4168 34.3513H58.5077V32.2381H52.4168V29.5034H59.2535V27.2659H49.9307V39.945H59.3778V37.7075H52.4168V34.3513ZM52.2924 15.8299L54.9029 25.2771H57.3889L60.1236 15.8299V25.2771H62.4854V12.598H58.8806L56.1459 21.4236L53.5355 12.598H49.9307V25.2771H52.2924V15.8299ZM107.857 12.598H110.343V25.2771H107.857V12.598ZM109.97 27.2659H112.456V39.945H109.97V27.2659ZM132.966 12.598H135.452V25.2771H132.966V12.598ZM63.4799 12.598H65.966V25.2771H63.4799V12.598ZM129.486 17.5702H124.389V12.598H121.903V25.2771H124.389V19.6833H129.486V25.2771H131.972V12.598H129.486V17.5702ZM69.8194 25.2771H72.4298V14.8355H75.4131V12.598H66.7118V14.8355H69.8194V25.2771ZM92.9401 39.945H95.5505V29.5034H98.6581V27.2659H89.9568V29.5034H92.9401V39.945ZM91.1998 25.5257C94.4317 25.5257 96.2963 24.034 96.2963 21.175V12.4737H93.8102V21.4236C93.8102 22.5423 92.9401 23.4125 91.3241 23.4125C89.4595 23.4125 88.838 22.2937 88.838 21.4236V12.598H86.3519V21.2993C86.2276 24.2826 88.2165 25.5257 91.1998 25.5257ZM72.0569 34.3513H78.0235V32.2381H72.0569V29.5034H78.7693V27.2659H69.4465V39.945H79.018V37.7075H72.0569V34.3513ZM99.7768 25.2771H103.382C105.743 25.2771 107.235 23.9097 107.235 21.9208C107.235 20.3049 106.116 18.9375 104.749 18.5646C105.868 18.316 106.738 17.1972 106.738 15.7056C106.738 13.841 105.371 12.598 102.76 12.598H97.0421V25.2771H99.7768ZM102.76 23.2882H99.7768V19.6833H102.76C103.879 19.6833 104.749 20.3049 104.749 21.5479C104.625 22.5423 103.755 23.2882 102.76 23.2882ZM102.884 14.5868C103.63 14.5868 104.376 15.2084 104.376 16.0785C104.376 16.8243 103.879 17.6945 102.76 17.6945H99.7768V14.5868H102.884ZM106.862 33.8541C107.981 33.4812 109.1 32.611 109.1 30.7465C109.1 28.509 107.608 27.2659 104.998 27.2659H99.2796V39.945H101.89V34.9728H104.003C105.371 34.9728 105.992 35.5943 106.241 36.5888C106.489 37.5832 106.365 39.0749 106.614 39.945H109.224C108.975 38.9506 108.851 37.7075 108.727 36.5888C108.727 34.8485 107.857 34.227 106.862 33.8541ZM101.89 32.9839V29.5034H104.873C105.868 29.5034 106.614 30.2492 106.614 31.2437C106.614 31.9895 105.992 32.9839 104.998 32.9839H101.89ZM62.734 27.2659H60.2479V39.945H68.7007V37.7075H62.734V27.2659ZM79.7638 19.9319C81.877 20.3049 82.9957 20.6778 82.9957 21.9208C82.9957 22.791 82.1256 23.5368 80.5096 23.5368C78.8936 23.5368 77.8992 22.5423 77.8992 21.4236H75.4131C75.4131 23.6611 76.7805 25.65 80.5096 25.65C83.9901 25.65 85.6061 23.7854 85.6061 21.6722C85.6061 19.6833 84.3631 18.4403 82.0013 17.9431C79.7638 17.4459 78.2721 17.4459 78.2721 15.9542C78.2721 14.9598 79.1423 14.4625 80.5096 14.4625C82.0013 14.4625 82.7471 15.2084 82.7471 16.4514H85.2332C85.2332 14.4625 83.7415 12.3494 80.3853 12.3494C78.0235 12.3494 75.6617 13.7167 75.6617 16.2028C75.6617 18.1917 77.1534 19.4347 79.7638 19.9319ZM115.315 19.9319C117.304 20.3049 118.547 20.6778 118.547 21.9208C118.547 22.791 117.677 23.5368 116.061 23.5368C114.32 23.5368 113.45 22.5423 113.45 21.4236H110.964C110.964 23.6611 112.332 25.65 116.061 25.65C119.541 25.65 121.157 23.7854 121.157 21.6722C121.157 19.6833 119.914 18.4403 117.552 17.9431C115.315 17.4459 113.823 17.4459 113.823 15.9542C113.823 14.9598 114.693 14.4625 116.061 14.4625C117.552 14.4625 118.298 15.2084 118.298 16.4514H120.784C120.784 14.4625 119.293 12.3494 115.936 12.3494C113.575 12.3494 111.213 13.7167 111.213 16.2028C111.213 18.1917 112.829 19.4347 115.315 19.9319Z" fill="black"/>
<path d="M84.741 37.957C82.6279 37.957 81.5091 35.9681 81.5091 33.482C81.5091 31.1202 82.6279 29.007 84.741 29.007C86.357 29.007 87.1028 30.0015 87.4757 31.1202H90.0861C89.7132 28.6341 87.7243 26.7695 84.6167 26.7695C80.7633 26.7695 78.7744 29.7528 78.7744 33.3577C78.7744 36.9625 80.7633 39.9458 84.6167 39.9458C87.6 39.9458 89.7132 38.2056 90.0861 35.4709H87.4757C87.1028 37.0868 86.357 37.957 84.741 37.957ZM118.925 37.957C116.812 37.957 115.693 35.9681 115.693 33.482C115.693 31.1202 116.812 29.007 118.925 29.007C120.541 29.007 121.287 30.0015 121.66 31.1202H124.27C123.897 28.6341 121.908 26.7695 118.801 26.7695C114.947 26.7695 112.958 29.7528 112.958 33.3577C112.958 36.9625 114.947 39.9458 118.801 39.9458C121.784 39.9458 123.897 38.2056 124.27 35.4709H121.66C121.287 37.0868 120.541 37.957 118.925 37.957Z" fill="black"/>
</g>
<defs>
<clipPath id="clip0_639_4762">
<rect width="135.492" height="39.7775" fill="white" transform="translate(0.461914 0.789307)"/>
</clipPath>
</defs>
</svg>
