<svg width="72" height="34" viewBox="0 0 72 34" fill="none" xmlns="http://www.w3.org/2000/svg">
<g clip-path="url(#clip0_639_4794)">
<path fill-rule="evenodd" clip-rule="evenodd" d="M0.956055 0.381348V33.8673H9.9481V19.6356H23.8609V12.9389H9.9481V7.0781H23.8609V0.381348H0.956055ZM25.5574 0.381348V33.8673H38.2817V33.7308C33.5311 33.0303 31.1563 28.8448 32.3437 23.8211L38.2817 0.381348H25.5574Z" fill="#BF0201"/>
<path fill-rule="evenodd" clip-rule="evenodd" d="M43.3717 0.381348L39.1303 23.8211C38.4521 27.5052 38.6211 29.1794 40.8268 28.8448C43.0326 28.509 43.2027 25.9978 45.0683 26.3335C46.9349 26.6681 47.7832 28.0077 47.6131 29.6819C47.4441 31.3561 46.0867 33.8673 39.9786 33.8673H51.0063V20.4727H62.8834V33.8673H71.3662V0.381348H62.8834V12.9378H51.0063V0.381348H43.3717Z" fill="#02408F"/>
</g>
<defs>
<clipPath id="clip0_639_4794">
<rect width="70.5039" height="33.5733" fill="white" transform="translate(0.956055 0.381348)"/>
</clipPath>
</defs>
</svg>
