<svg width="92" height="60" viewBox="0 0 92 60" fill="none" xmlns="http://www.w3.org/2000/svg">
<path d="M24.54 34H28.6588V59.7423H24.54V34ZM43.0745 51.5305C43.0745 55.4701 39.762 55.7841 38.7765 55.7841C36.3146 55.7841 35.8666 53.4797 35.8666 52.0896V42.2375H31.7479V52.069C31.7479 54.5094 32.514 56.5235 33.8567 57.8662C35.0429 59.0534 36.8201 59.7021 38.7457 59.7021C40.111 59.7021 42.0448 59.2768 43.0745 58.3367V59.7423H47.1932V42.2375H43.0745V51.5305ZM55.4308 36.0594H51.312V42.2375H48.2229V46.3563H51.312V59.7423H55.4308V46.3563H58.5198V42.2375H55.4308V36.0594ZM71.4908 54.5084C70.594 55.3146 69.4098 55.7615 68.1104 55.7615C65.2458 55.7615 63.1421 53.6578 63.1421 50.7695C63.1421 47.8813 65.1788 45.8662 68.1104 45.8662C69.3872 45.8662 70.594 46.2914 71.5135 47.0977L72.1385 47.6352L74.9156 44.8591L74.2206 44.232C72.5864 42.7565 70.4169 41.9286 68.1093 41.9286C62.9609 41.9286 59.2221 45.6437 59.2221 50.7479C59.2221 55.8305 63.0505 59.6784 68.1093 59.6784C70.4601 59.6784 72.6523 58.8506 74.2659 57.3513L74.9372 56.7242L72.1169 53.9503L71.4908 54.5084V54.5084ZM89.6165 43.7635C88.4303 42.5773 87.0402 41.9286 85.1147 41.9286C83.7493 41.9286 82.2027 42.3539 81.173 43.293V34H77.0543V59.7423H81.173V50.0992C81.173 46.1596 83.9717 45.8466 84.9571 45.8466C87.4191 45.8466 87.3512 48.1521 87.3512 49.5401V59.7423H91.4699V49.5617C91.4699 47.1213 90.9602 45.1073 89.6165 43.7635" fill="#17313B"/>
<path d="M67.974 47.8379C68.7637 47.8379 69.5212 48.1516 70.0796 48.7101C70.6381 49.2685 70.9518 50.026 70.9518 50.8158C70.9518 51.6055 70.6381 52.363 70.0796 52.9214C69.5212 53.4799 68.7637 53.7936 67.974 53.7936C67.1842 53.7936 66.4267 53.4799 65.8683 52.9214C65.3098 52.363 64.9961 51.6055 64.9961 50.8158C64.9961 50.026 65.3098 49.2685 65.8683 48.7101C66.4267 48.1516 67.1842 47.8379 67.974 47.8379" fill="#FF3D2E"/>
<path d="M18.7735 53.2768C17.2073 54.8882 15.08 55.7614 12.8414 55.7614C8.25314 55.7614 4.91694 52.1575 4.91694 47.2109C4.91694 42.2416 8.25314 38.6376 12.8414 38.6376C15.0584 38.6376 17.162 39.5098 18.7519 41.0996L19.3779 41.7267L22.1313 38.9733L21.5269 38.3462C19.2441 35.9955 16.155 34.7207 12.8414 34.7207C6.08152 34.7207 1 40.0926 1 47.2325C1 54.3507 6.10418 59.701 12.8414 59.701C16.1776 59.701 19.2667 58.4036 21.5495 56.0528L22.154 55.4257L19.4232 52.6281L18.7735 53.2768Z" fill="#17313B"/>
<path d="M33.9843 20.1357C37.013 20.1357 39.0137 18.3552 39.0137 15.5652C39.0137 12.7751 37.3801 11.1414 34.9939 11.1414C33.5071 11.1414 32.5893 11.7288 32.0754 12.3529L32.1304 9.06727H38.2244V6.80954H29.9094L29.7258 14.2803H31.3778C31.9102 13.6745 32.6627 13.234 33.8926 13.234C35.2142 13.234 36.0218 14.1151 36.0218 15.5285C36.0218 16.9235 35.3059 17.8596 33.966 17.8596C32.4608 17.8596 32.0203 17.1254 31.8551 16.0241H29.1201C29.2486 18.3736 30.7538 20.1357 33.9843 20.1357ZM41.6634 20.099C42.5995 20.099 43.3154 19.3831 43.3154 18.4837C43.3154 17.6026 42.5995 16.8868 41.6634 16.8868C40.7456 16.8868 40.0297 17.6026 40.0297 18.4837C40.0297 19.3831 40.7456 20.099 41.6634 20.099ZM49.8579 17.8045C48.0224 17.8045 47.0495 16.4279 47.0495 13.6745V13.0505C47.0495 10.3338 47.9857 8.92043 49.8212 8.92043C51.6384 8.92043 52.5562 10.4072 52.5562 13.0505V13.6378C52.5562 16.3912 51.7118 17.8045 49.8579 17.8045ZM49.7845 20.1357C53.3271 20.1357 55.5114 17.6393 55.5114 13.6195V13.0137C55.5114 8.93878 53.1803 6.62598 49.8029 6.62598C46.4254 6.62598 44.0759 9.03056 44.0759 13.0688V13.6929C44.0759 17.7128 46.297 20.1357 49.7845 20.1357Z" fill="#3D3D3D"/>
<path d="M12 0L15.668 7.568L24 8.719L17.936 14.547L19.416 22.826L12 18.859L4.583 22.826L6.064 14.547L0 8.719L8.332 7.568L12 0Z" fill="#FE803A"/>
</svg>
