<svg width="54" height="53" viewBox="0 0 54 53" fill="none" xmlns="http://www.w3.org/2000/svg">
<g clip-path="url(#clip0_4402_1667)">
<path d="M12 0.123047L15.668 7.69105L24 8.84205L17.936 14.67L19.416 22.949L12 18.982L4.583 22.949L6.064 14.67L0 8.84205L8.332 7.69105L12 0.123047Z" fill="#FE803A"/>
<path d="M44.9108 20.2759L50.1278 9.943V9.8609H44.0266V7.34082H53.3616V9.87984L48.1257 20.2759H44.9108Z" fill="#3D3D3D"/>
<path d="M41.9716 20.4592C41.5168 20.4592 41.1273 20.2992 40.8031 19.9792C40.4831 19.6592 40.3252 19.2718 40.3294 18.8171C40.3252 18.3707 40.4831 17.9897 40.8031 17.6739C41.1273 17.3539 41.5168 17.1938 41.9716 17.1938C42.4011 17.1938 42.78 17.3539 43.1085 17.6739C43.4411 17.9897 43.6095 18.3707 43.6137 18.8171C43.6095 19.1202 43.5295 19.396 43.3737 19.6444C43.2221 19.8929 43.0221 20.0908 42.7737 20.2382C42.5295 20.3855 42.2621 20.4592 41.9716 20.4592Z" fill="#3D3D3D"/>
<path d="M28.6221 18.1285V15.6905L33.9212 7.34082H36.0876V10.6504H34.8307L31.7295 15.5642V15.6653H39.4034V18.1285H28.6221ZM34.8686 20.2759V17.3832L34.9317 16.3158V7.34082H37.856V20.2759H34.8686Z" fill="#3D3D3D"/>
<g clip-path="url(#clip1_4402_1667)">
<path d="M12.5494 52.1086C19.4803 52.1086 25.0989 46.4901 25.0989 39.5592C25.0989 32.6283 19.4803 27.0098 12.5494 27.0098C5.61858 27.0098 0 32.6283 0 39.5592C0 46.4901 5.61858 52.1086 12.5494 52.1086Z" fill="#FF492C"/>
<path d="M17.9808 36.6227H15.8374C15.8951 36.2864 16.1034 36.0981 16.5251 35.8848L16.9191 35.684C17.6244 35.3226 18.0009 34.9134 18.0009 34.2458C18.0009 33.8267 17.8377 33.4954 17.514 33.2569C17.1902 33.0185 16.8087 32.9005 16.3619 32.9005C16.0163 32.8964 15.677 32.9933 15.3856 33.1791C15.0919 33.3598 14.8736 33.5932 14.738 33.8844L15.358 34.5068C15.5989 34.0199 15.9478 33.7815 16.4071 33.7815C16.7961 33.7815 17.0346 33.9823 17.0346 34.2609C17.0346 34.4943 16.9191 34.6876 16.4724 34.9134L16.2189 35.0364C15.6692 35.315 15.2877 35.6338 15.0668 35.9952C14.846 36.3566 14.738 36.8109 14.738 37.3606V37.5112H17.9808V36.6227Z" fill="white"/>
<path d="M17.6947 38.5352H14.1457L12.3712 41.6073H15.9202L17.6947 44.6819L19.4692 41.6073L17.6947 38.5352Z" fill="white"/>
<path d="M12.6773 43.6576C10.4184 43.6576 8.57869 41.8178 8.57869 39.5589C8.57869 37.3 10.4184 35.4603 12.6773 35.4603L14.0804 32.5262C13.6183 32.4344 13.1484 32.3881 12.6773 32.3882C8.71674 32.3882 5.50659 35.5983 5.50659 39.5589C5.50659 43.5195 8.71674 46.7297 12.6773 46.7297C14.1951 46.7325 15.6742 46.2507 16.899 45.3543L15.3479 42.6637C14.6058 43.3047 13.6579 43.6574 12.6773 43.6576Z" fill="white"/>
</g>
</g>
<defs>
<clipPath id="clip0_4402_1667">
<rect width="54" height="53" fill="white"/>
</clipPath>
<clipPath id="clip1_4402_1667">
<rect width="25.0989" height="25.0989" fill="white" transform="translate(0 27.0098)"/>
</clipPath>
</defs>
</svg>
