<svg width="130" height="24" viewBox="0 0 130 24" fill="none" xmlns="http://www.w3.org/2000/svg">
<g clip-path="url(#clip0_639_4722)">
<path d="M99.3156 1.51904V18.3006C99.3156 19.3951 99.8263 19.9789 100.921 19.9789H106.466V21.8758C106.466 22.0947 106.32 22.2407 106.101 22.2407H97.1267C94.354 22.2407 93.9163 20.7084 93.9163 19.3222V2.68646C93.9163 1.88386 94.2081 1.51904 95.1567 1.51904H99.3156Z" fill="black"/>
<path d="M89.0277 1.51904V21.1462C89.0277 22.0218 88.6629 22.2407 87.9333 22.2407H83.7014V2.6135C83.7014 1.95683 83.9203 1.51904 84.8689 1.51904H89.0277Z" fill="black"/>
<path d="M1.17603 4.36462C1.17603 2.75942 1.17603 1.51904 3.80272 1.51904H15.185V3.48906C15.185 3.63498 15.112 3.78092 14.8931 3.78092H8.0346C7.15904 3.78092 6.72125 4.21869 6.72125 5.16722V10.4206H14.7472V12.5366C14.7472 12.7554 14.6014 12.8283 14.4554 12.8283H6.72125V21.1462C6.72125 21.9488 6.28347 22.2407 5.40791 22.2407H1.17603V4.36462Z" fill="black"/>
<path d="M23.4275 1.51925V17.3523C23.4275 18.7386 23.6464 19.6872 24.5949 20.198C25.8352 20.9275 28.0241 20.9275 29.3376 20.198C30.2131 19.6872 30.5779 18.8845 30.5779 17.3523V2.54074C30.5779 1.88407 30.7968 1.51925 31.7453 1.51925H35.9042V16.8415C35.9042 20.4169 33.6423 21.8761 31.6723 22.3868C29.0457 23.1165 25.0327 23.1165 22.5519 22.3868C19.5604 21.5113 18.1741 19.7602 18.1741 16.8415V2.54074C18.1741 1.88407 18.393 1.44629 19.1956 1.44629H23.4275" fill="black"/>
<path d="M123.895 1.51904C122.873 1.51904 122.217 2.02979 121.999 2.97831L118.641 17.2792H118.569L114.994 1.51904H110.251C109.303 1.51904 109.01 1.95683 109.01 2.75942V22.3136H111.053C111.346 22.3136 111.492 22.1677 111.492 21.8029V5.38611H111.783L116.088 22.2407H118.934C120.028 22.2407 120.393 21.8029 120.684 20.7814L124.551 5.38611H124.844V22.2407H128.638C129.587 22.2407 129.951 21.8758 129.951 21.0003V1.51904H123.895Z" fill="black"/>
<path d="M61.0785 12.7551H55.7522V22.2404H59.9841C60.7137 22.2404 61.0785 22.0215 61.0785 21.146C61.0785 21.146 61.0785 17.133 61.0785 12.7551Z" fill="black"/>
<path d="M60.7867 8.74243C61.0056 8.59651 61.0785 8.45058 61.0785 8.15872V1.51904H56.9196C55.9711 1.51904 55.7522 1.95683 55.7522 2.6135V12.6825L60.7867 8.74243Z" fill="#FB0020"/>
<path d="M42.5449 20.6355C44.8798 20.3436 45.6094 18.9573 45.6094 16.9143V2.6135C45.6094 1.73794 46.0472 1.51904 46.6309 1.51904H50.8627V15.0173C50.8627 18.3006 50.1331 19.9788 48.2361 21.4381C47.2145 22.1677 45.4634 23.0433 41.5234 23.0433C39.3346 23.0433 38.313 22.8974 38.1671 22.8974C37.9482 22.8244 37.8752 22.7514 37.8752 22.6055V20.8544C38.9697 20.7814 41.0127 20.8544 42.5449 20.6355Z" fill="black"/>
<path d="M69.1782 1.51904C66.5514 1.51904 66.5514 2.83239 66.5514 4.36462V9.69096C66.5514 9.83689 66.4785 9.83689 66.4785 9.90985L62.8303 12.7554H66.5514V22.2407H70.7833C71.6589 22.2407 72.0967 21.9488 72.0967 21.1462V12.7554H79.8308C79.9768 12.7554 80.1227 12.6825 80.1227 12.4636V10.3476H72.0967V5.09425C72.0967 4.14574 72.5345 3.70795 73.4829 3.70795H80.3415C80.5604 3.70795 80.6334 3.56203 80.6334 3.4161V1.51904H69.1782Z" fill="black"/>
</g>
<defs>
<clipPath id="clip0_639_4722">
<rect width="129.583" height="22.6771" fill="white" transform="translate(0.41626 0.473877)"/>
</clipPath>
</defs>
</svg>
