<svg width="146" height="35" viewBox="0 0 146 35" fill="none" xmlns="http://www.w3.org/2000/svg">
<path d="M28.181 17.7234C25.9627 17.7234 24.1653 19.4752 24.1653 21.6453V30.0469C24.1653 32.2094 25.7092 33.6848 28.2748 33.9612H40.4614C43.0498 33.6848 44.5709 32.2094 44.5709 30.0469V23.714H31.1776V27.7754H40.3067V28.7666C40.3067 29.6945 39.5031 30.4195 38.5118 30.455H30.0976C29.1089 30.455 28.3052 29.6945 28.3052 28.7666V22.9737C28.3052 22.0383 29.157 21.2321 30.1508 21.2321H44.5607V17.7285" fill="#004181"/>
<path d="M84.3275 28.6402C84.3275 29.5529 83.4858 30.2881 82.4439 30.2881H73.7153C72.6759 30.2881 71.8367 29.5529 71.8367 28.6402V23.2327C71.8139 22.178 72.6936 21.3719 73.8116 21.3845H82.4439C83.4858 21.3845 84.3275 22.1223 84.3275 23.0299V28.6402ZM84.4061 17.7466H71.7556C69.0962 18.0204 67.4915 19.4984 67.4915 21.6533V30.0244C67.7602 32.4734 69.1469 33.67 71.857 33.926H84.4061C87.2709 33.7841 88.6703 32.1818 88.6703 30.0244V21.6533C88.6703 19.4984 86.9793 18.0204 84.4061 17.7466Z" fill="#004181"/>
<path d="M116.241 33.9361H120.549V17.7693H116.241V33.9361Z" fill="#004181"/>
<path d="M108.836 17.9415L101.751 29.692L94.6775 17.9415H89.7922L99.4436 33.9663H104.065L113.722 17.9415" fill="#004181"/>
<path d="M52.615 30.2448V17.9213H48.4954V33.6799H65.9095V30.2448" fill="#004181"/>
<path d="M137.244 23.6762L140.198 23.6813V23.6864C142.581 23.8283 144.216 24.7156 144.216 27.6133V30.0319C144.216 33.0259 142.571 33.8448 140.198 33.9817H124.809V30.4172H138.976C138.976 30.4172 139.808 30.5161 139.785 29.4944C139.785 29.3094 139.78 28.7744 139.78 28.6299C139.78 27.6742 139.029 27.7325 139.029 27.7325L128.3 27.7198H127.826C126.985 27.6615 124.244 27.2939 124.315 23.8993V21.6861C124.282 18.6642 126.09 17.7414 128.458 17.7414H143.798V21.2805H129.865C129.865 21.2805 128.795 21.1841 128.795 22.0765C128.795 22.2033 128.782 22.8143 128.782 22.979C128.782 23.7802 129.984 23.6762 129.984 23.6762" fill="#004181"/>
<path d="M8.83451 5.83112H3.83008V1.64809H1.47998V12.3643H3.83008V7.92771H8.83451V12.3643H11.1846V1.64809H8.83451" fill="#004181"/>
<path d="M62.2936 3.73936H66.6744V6.85002H61.6902V4.35034C61.7004 4.22865 61.6776 4.00555 61.7815 3.87372C61.8931 3.73176 62.068 3.74443 62.2936 3.73936ZM59.8725 2.25629C59.3782 2.76332 59.3579 3.49599 59.3452 3.92443V12.364H61.6902V8.94407H66.6744V12.364H69.0296V1.64277H61.708C61.0134 1.65038 60.3618 1.74925 59.8725 2.25629Z" fill="#004181"/>
<path d="M43.2448 1.6454H35.9055V12.3616H38.2582V3.73692H42.6617C42.8798 3.74199 43.0648 3.73185 43.1739 3.87382C43.2778 4.00818 43.2575 4.22874 43.2651 4.35043V12.3616H45.6152V3.92706C45.6 3.49608 45.5797 2.76088 45.0879 2.25638C44.5986 1.74934 43.9471 1.65047 43.2448 1.6454Z" fill="#004181"/>
<path d="M31.481 9.65679C31.4709 9.78101 31.4937 10.0016 31.3897 10.1359C31.2807 10.2754 31.0982 10.2627 30.8827 10.2678H26.474V1.64311H24.1265V12.3618H31.4607C32.1604 12.3593 32.8145 12.2579 33.2987 11.7508C33.7981 11.2463 33.8159 10.5111 33.8311 10.0802V1.64311H31.481" fill="#004181"/>
<path d="M55.0544 9.65654C55.0418 9.78077 55.0671 10.0013 54.9632 10.1332C54.8541 10.2751 54.6742 10.265 54.4561 10.2675H50.0449V3.73692H54.4561C54.6742 3.74452 54.8541 3.73185 54.9632 3.87128C55.0671 4.00818 55.0418 4.22874 55.0544 4.35043V9.65654ZM57.3944 3.92706C57.3817 3.49608 57.364 2.76088 56.8721 2.25638C56.3803 1.74934 55.7237 1.65301 55.0341 1.6454H47.6948V12.3616H55.0341C55.7237 12.359 56.3803 12.2602 56.8721 11.7531C57.364 11.2461 57.3817 10.5134 57.3944 10.0799" fill="#004181"/>
<path d="M17.6556 6.33547L14.8061 1.6454H12.0149L16.4007 8.40163V12.3616H18.9131V8.40163L23.2939 1.6454H20.5026" fill="#004181"/>
<path d="M73.89 1.64795H71.3879V12.3616H73.89V1.64795Z" fill="#004181"/>
</svg>
