<svg width="95" height="64" viewBox="0 0 95 64" fill="none" xmlns="http://www.w3.org/2000/svg">
<g clip-path="url(#clip0_639_4792)">
<path fill-rule="evenodd" clip-rule="evenodd" d="M56.0117 23.326C56.0117 24.4891 55.7218 25.8328 54.8674 27.0146H57.2709V8.48137H49.5781V16.0545C53.7408 17.3408 56.0117 19.9966 56.0117 23.326ZM42.7032 15.3903C44.4307 15.3903 46.0573 15.7975 47.2931 16.1238C44.676 15.6661 40.6095 16.3268 38.5065 17.9733V27.0146H46.2169V16.7235C47.5359 16.9719 48.7925 17.4797 49.9137 18.2174V27.0134H51.5826C50.0017 28.7773 47.0666 29.8676 44.5082 29.4698V29.8406C51.8466 30.4157 54.9449 26.9583 54.9449 23.0632C54.9449 18.4744 50.6331 15.7963 46.2122 15.2483V8.48137H38.5018V15.3234C33.5141 16.3174 28.6331 19.2725 28.6331 24.1687C28.6331 31.6878 39.193 36.3528 48.3881 36.3528C62.3549 36.3528 73.1002 29.6294 73.1002 20.1902C73.1002 8.76069 57.589 0.617188 45.3931 0.617188C31.4274 0.617188 21.1445 9.45427 21.1445 18.8922C21.1445 23.7884 23.8977 27.8702 27.3786 30.7337L27.6367 30.5577C24.8882 28.2762 22.4026 24.7332 22.4026 19.8651C23.1302 9.52117 35.9152 3.70723 47.2966 3.70723C55.338 3.70723 69.7966 5.55328 69.7966 18.9521C69.7966 25.942 62.3032 35.0419 46.542 35.0419C38.4865 35.0419 32.2219 30.7384 32.2219 24.5524C32.2219 19.2044 36.4304 15.3903 42.7032 15.3903ZM12.0281 63.2983V62.2761H14.7226V53.1163H7.48396V62.2749H10.2501V63.296H0.322754V62.2749H2.8577V43.629H0.322754V42.5928H10.2513V43.629H7.48279V51.8911H14.7203V43.629H12.0257V42.5928H21.885V43.629H19.3219V62.2761H21.885V63.2971L12.0281 63.2983ZM26.2261 42.5963H30.7244V45.0632H26.2261V42.5963ZM24.0139 63.2983V62.3019H26.4268V49.4254H24.0139V48.3926H30.911V62.2984H33.1913V63.2936H24.0139V63.2983ZM34.514 63.2983V62.2761H37.0172V40.8958H34.514V39.9193H41.5249V62.2702H43.8733V63.2936H34.514V63.2983ZM50.9019 63.2983C48.8352 63.2983 47.1311 62.3618 47.1311 60.0991V49.4031H44.6901V48.3985H47.13V42.6479H51.3467V48.3985H54.8263V49.4031H51.3467V62.3078H54.8756V63.303H50.9007L50.9019 63.2983ZM64.4732 63.7184C59.7249 63.7184 55.7863 60.7505 55.7863 55.7909C55.7863 51.0132 59.7988 48.0182 64.3512 48.0182C69.1265 48.0182 72.7188 51.3348 72.7188 56.1711C72.7153 60.7951 68.9809 63.7184 64.4732 63.7184ZM60.7612 55.7334C60.7612 57.049 60.7072 60.0134 61.3832 61.2117C62.0333 62.3254 63.0614 62.8594 64.3465 62.8594C67.8261 62.8594 67.8848 59.0675 67.859 56.5338V55.5879C67.8214 52.8769 68.1759 48.9865 64.3277 48.9865C60.6485 48.9865 60.7612 53.0999 60.7612 55.7334ZM85.0144 63.2983V62.3019H87.0095V53.2454C87.0095 51.5988 87.0095 49.5756 84.8325 49.5756C83.1191 49.5756 81.4972 51.2456 81.0888 52.8018C80.921 53.5353 80.948 54.3216 80.948 55.055V62.3031H83.2423V63.2995H74.0555V62.3031H76.4684V49.4254H74.0555V48.3926H80.9527V50.687C81.8563 49.6014 82.4783 49.0181 83.801 48.4889C84.6626 48.1298 85.5856 47.9409 86.519 47.9326C87.1914 47.9326 87.8956 48.0452 88.5399 48.2178C90.9892 48.9231 91.5795 50.5109 91.5795 52.8006V62.3019H93.9384V63.2983H85.0144Z" fill="#204592"/>
</g>
<defs>
<clipPath id="clip0_639_4792">
<rect width="93.8867" height="63.3735" fill="white" transform="translate(0.187988 0.481201)"/>
</clipPath>
</defs>
</svg>
