<svg width="96" height="91" viewBox="0 0 96 91" fill="none" xmlns="http://www.w3.org/2000/svg">
<g clip-path="url(#clip0_639_4798)">
<mask id="mask0_639_4798" style="mask-type:luminance" maskUnits="userSpaceOnUse" x="0" y="74" width="61" height="17">
<path d="M0.345947 74.7068H60.2064V90.0653H0.345947V74.7068Z" fill="white"/>
</mask>
<g mask="url(#mask0_639_4798)">
<path d="M54.8568 86.9717C54.6799 86.8822 54.5437 86.745 54.4461 86.564C54.3485 86.382 54.2997 86.1767 54.2997 85.95C54.2997 85.7019 54.3688 85.4457 54.5101 85.1804C54.6494 84.913 54.8497 84.6537 55.112 84.3996C54.8009 84.183 54.564 83.9055 54.3993 83.5619C54.2376 83.2192 54.1563 82.8217 54.1563 82.3734C54.1563 81.6546 54.3952 81.0517 54.87 80.5688C55.3478 80.0829 55.9314 79.8389 56.6227 79.8389C57.1005 79.8389 57.558 79.9477 58.0003 80.1642C58.4425 80.3797 58.6946 80.4875 58.7526 80.4875C58.8898 80.4875 59.023 80.4448 59.1562 80.3584C59.2874 80.271 59.3951 80.1581 59.4754 80.0198C59.5059 79.9629 59.5293 79.909 59.5476 79.8582C59.5649 79.8094 59.5751 79.7606 59.5812 79.7118L59.5873 79.6965C59.6188 79.5634 59.6727 79.4983 59.755 79.4983C59.814 79.4983 59.8628 79.5288 59.8963 79.5847C59.9319 79.6447 59.9502 79.723 59.9502 79.8226C59.9502 80.2201 59.8811 80.5444 59.7398 80.7986C59.5984 81.0517 59.3799 81.252 59.0789 81.4005C59.1328 81.5245 59.1735 81.6546 59.202 81.7868C59.2304 81.92 59.2436 82.0592 59.2436 82.2056C59.2436 82.9732 58.9996 83.5863 58.5137 84.0488C58.0277 84.5104 57.3781 84.7402 56.5627 84.7402C56.3675 84.7402 56.1622 84.7208 55.9466 84.6802C55.7311 84.6426 55.6122 84.6212 55.5939 84.6212C55.4271 84.6212 55.2736 84.7127 55.1292 84.8937C54.9879 85.0777 54.9158 85.278 54.9158 85.4996C54.9158 85.7995 55.0703 86.0069 55.3763 86.1208C55.6813 86.2336 56.4936 86.2905 57.8152 86.2905C58.4801 86.2905 58.9559 86.4044 59.2406 86.6311C59.5242 86.8578 59.6656 87.234 59.6656 87.7627C59.6656 88.4845 59.3748 89.0487 58.7963 89.4544C58.2158 89.862 57.4086 90.0654 56.3757 90.0654C55.5735 90.0654 54.9341 89.9159 54.4562 89.6191C53.9804 89.3192 53.7415 88.9227 53.7415 88.4275C53.7415 88.1144 53.831 87.8409 54.0089 87.6091C54.1858 87.3743 54.4684 87.1608 54.8568 86.9717ZM55.1933 82.0653C55.1933 82.8034 55.3244 83.3677 55.5898 83.7591C55.8521 84.1515 56.2323 84.3457 56.7305 84.3457C57.2114 84.3457 57.5784 84.1861 57.8335 83.8699C58.0877 83.5537 58.2138 83.0972 58.2138 82.5005C58.2138 81.7929 58.0745 81.2327 57.8 80.8169C57.5224 80.4041 57.1524 80.1957 56.6847 80.1957C56.2221 80.1957 55.8592 80.3635 55.5918 80.6959C55.3275 81.0273 55.1933 81.4848 55.1933 82.0653ZM55.2096 87.1689C54.9676 87.2635 54.7927 87.4089 54.6819 87.6041C54.5721 87.7982 54.5182 88.0575 54.5182 88.3787C54.5182 88.8088 54.6748 89.128 54.9859 89.3405C55.297 89.554 55.7647 89.6628 56.3919 89.6628C57.1859 89.6628 57.8071 89.5245 58.2575 89.2521C58.7089 88.9765 58.9356 88.6004 58.9356 88.1256C58.9356 87.8684 58.8715 87.6823 58.7404 87.5715C58.6092 87.4607 58.3653 87.3956 58.0104 87.3743C57.8437 87.3682 57.5916 87.3611 57.25 87.3499C56.3401 87.3275 55.662 87.2686 55.2096 87.1689ZM46.4155 85.1265V81.7085C46.4155 81.4167 46.3606 81.2093 46.2508 81.0822C46.14 80.9552 45.958 80.8931 45.7059 80.8931C45.5565 80.8931 45.4517 80.8769 45.3948 80.8443C45.3358 80.8149 45.3074 80.7661 45.3074 80.704C45.3074 80.6308 45.3277 80.577 45.3714 80.5414C45.4151 80.5068 45.5026 80.4844 45.6388 80.4743L45.6846 80.4651C45.7852 80.4438 45.8574 80.4245 45.9042 80.4112C46.2091 80.2984 46.5131 80.1652 46.8181 80.0087C47.1221 79.8551 47.2919 79.7769 47.3275 79.7769C47.3915 79.7769 47.4383 79.8013 47.4606 79.847C47.4871 79.8948 47.4993 79.9954 47.4993 80.1469V81.1056C47.9059 80.7142 48.2963 80.4245 48.6715 80.2354C49.0436 80.0442 49.4096 79.9497 49.7664 79.9497C50.1263 79.9497 50.4679 80.0331 50.7892 80.2028C51.1104 80.3706 51.3748 80.6054 51.5801 80.9084C51.7601 81.1646 51.8892 81.4757 51.9634 81.8376C52.0376 82.1995 52.0762 82.775 52.0762 83.5669V85.1417C52.0762 85.585 52.1078 85.8849 52.1718 86.0364C52.2328 86.1899 52.3487 86.32 52.5134 86.4247C52.5754 86.4634 52.6415 86.4898 52.7167 86.5091C52.794 86.5274 52.8784 86.5356 52.9729 86.5356C53.0949 86.5356 53.1783 86.5549 53.2251 86.5905C53.2739 86.6281 53.2972 86.6931 53.2972 86.7816C53.2972 86.8385 53.2769 86.8843 53.2332 86.9199C53.1915 86.9544 53.1356 86.9707 53.0634 86.9707C53.0329 86.9707 52.8652 86.9575 52.5592 86.93C52.2542 86.9056 51.9634 86.8924 51.694 86.8924C51.2975 86.8924 50.9203 86.9168 50.5655 86.9626C50.5147 86.9676 50.4832 86.9717 50.473 86.9717C50.4293 86.9717 50.3876 86.9554 50.3551 86.9199C50.3185 86.8843 50.3002 86.8446 50.3002 86.7989C50.3002 86.7114 50.3673 86.623 50.5035 86.5234C50.6397 86.4258 50.7322 86.3444 50.781 86.2743C50.8603 86.1685 50.9173 86.0394 50.9508 85.8829C50.9844 85.7283 50.9996 85.4742 50.9996 85.1265V83.3077C50.9996 82.3246 50.8685 81.6383 50.6041 81.249C50.3418 80.8576 49.8996 80.6634 49.2825 80.6634C48.7203 80.6634 48.2831 80.8088 47.97 81.0985C47.6558 81.3903 47.4993 81.7949 47.4993 82.3165V85.1427C47.4993 85.5769 47.5359 85.8747 47.605 86.0364C47.6741 86.2011 47.8083 86.3363 48.0035 86.442C48.0595 86.4746 48.1245 86.4959 48.2008 86.5122C48.276 86.5284 48.3604 86.5366 48.4559 86.5366C48.6125 86.5478 48.7132 86.5722 48.7589 86.6067C48.8026 86.6443 48.825 86.7013 48.825 86.7826C48.825 86.8395 48.8026 86.8843 48.7589 86.9199C48.7132 86.9554 48.6532 86.9717 48.5759 86.9717C48.5434 86.9717 48.3634 86.9575 48.0391 86.931C47.7158 86.9066 47.4098 86.8934 47.1221 86.8934C46.7154 86.8934 46.323 86.9168 45.9397 86.9636C45.8797 86.9687 45.8421 86.9717 45.8259 86.9717C45.7781 86.9717 45.7313 86.9554 45.6907 86.9209C45.652 86.8853 45.6307 86.8456 45.6307 86.7989C45.6307 86.745 45.6469 86.6992 45.6774 86.6586C45.7059 86.621 45.7618 86.5803 45.8421 86.5366L45.9164 86.4888C46.0272 86.4044 46.1065 86.3343 46.1502 86.2743C46.2508 86.1472 46.32 86.01 46.3586 85.8564C46.3972 85.7019 46.4145 85.462 46.4145 85.1265H46.4155ZM42.5756 85.1285V82.2056C42.5756 81.6566 42.5289 81.3029 42.4364 81.1463C42.3438 80.9867 42.169 80.9084 41.9128 80.9084C41.7654 80.9084 41.6576 80.8921 41.5885 80.8596C41.5193 80.8301 41.4827 80.7813 41.4827 80.7193C41.4827 80.6146 41.6068 80.5251 41.8528 80.458H41.866C41.9819 80.4356 42.0978 80.4062 42.2107 80.3706C42.3235 80.333 42.4394 80.2852 42.5594 80.2283C42.7068 80.1662 42.8888 80.0717 43.1104 79.9466C43.331 79.8226 43.4774 79.7606 43.5465 79.7606C43.6106 79.7606 43.6573 79.7769 43.6828 79.8094C43.7092 79.8389 43.7194 79.9121 43.7194 80.0229C43.7194 80.0442 43.7163 80.1256 43.7133 80.2689C43.6879 81.0599 43.6746 81.86 43.6746 82.6733V85.1427C43.6746 85.5667 43.7102 85.8605 43.7824 86.0262C43.8576 86.1929 43.9939 86.3312 44.1941 86.442C44.2531 86.4746 44.3202 86.4959 44.3944 86.5122C44.4666 86.5284 44.551 86.5366 44.6466 86.5366C44.8001 86.5467 44.9007 86.5722 44.9465 86.6067C44.9902 86.6443 45.0136 86.7013 45.0136 86.7826C45.0136 86.8334 44.9881 86.8792 44.9393 86.9168C44.8875 86.9524 44.8265 86.9707 44.7492 86.9707C44.7157 86.9707 44.5327 86.9575 44.2094 86.931C43.883 86.9066 43.575 86.8934 43.2893 86.8934C42.8735 86.8934 42.4719 86.9168 42.0836 86.9636C42.0246 86.9676 41.986 86.9717 41.9707 86.9717C41.9219 86.9717 41.8782 86.9554 41.8447 86.9209C41.8091 86.8853 41.7908 86.8446 41.7908 86.7989C41.7908 86.745 41.807 86.6992 41.8375 86.6586C41.865 86.621 41.9219 86.5803 42.0022 86.5366L42.0765 86.4888C42.1873 86.4044 42.2686 86.3343 42.3174 86.2743C42.413 86.1472 42.4801 86.01 42.5177 85.8564C42.5563 85.7019 42.5746 85.462 42.5746 85.1295L42.5756 85.1285ZM42.5014 77.4884C42.5014 77.3349 42.5888 77.1508 42.7607 76.9343C42.9325 76.7188 43.0707 76.61 43.1765 76.61C43.2741 76.61 43.4083 76.7157 43.5801 76.9241C43.7529 77.1315 43.8403 77.3054 43.8403 77.4426C43.8403 77.5728 43.758 77.7456 43.5903 77.9581C43.4266 78.1716 43.2771 78.2803 43.149 78.2803C43.0179 78.2803 42.8755 78.1878 42.7271 78.0069C42.5756 77.8259 42.5014 77.6531 42.5014 77.4884ZM34.2025 85.1255V77.3613C34.2025 76.8184 34.1567 76.4677 34.0642 76.305C33.9707 76.1454 33.8019 76.0651 33.5549 76.0651H33.4339C33.3444 76.0651 33.2723 76.0457 33.2204 76.0081C33.1665 75.9725 33.1411 75.9248 33.1411 75.8678C33.1411 75.8028 33.1645 75.754 33.2133 75.7164C33.259 75.6787 33.377 75.6432 33.563 75.6055C33.5833 75.5994 33.6169 75.5923 33.6606 75.5811C33.8863 75.5191 34.0663 75.4571 34.2025 75.4002C34.3773 75.3249 34.5695 75.2212 34.7759 75.0901C34.9812 74.9569 35.1154 74.8918 35.1744 74.8918C35.2385 74.8918 35.2923 74.9223 35.333 74.9793C35.3716 75.0382 35.392 75.1165 35.392 75.2162C35.392 75.2324 35.3869 75.2955 35.3767 75.4053C35.3178 76.1616 35.2873 76.9638 35.2873 77.8127V81.1066C35.6929 80.7142 36.0833 80.4255 36.4595 80.2364C36.8316 80.0442 37.1965 79.9497 37.5534 79.9497C37.9133 79.9497 38.2549 80.0341 38.5771 80.2039C38.8974 80.3706 39.1627 80.6064 39.3681 80.9084C39.5531 81.1707 39.6843 81.4899 39.7636 81.8651C39.8408 82.2402 39.8795 82.8085 39.8795 83.568V85.1427C39.8795 85.6023 39.91 85.9073 39.97 86.0526C40.031 86.2011 40.1418 86.3261 40.3014 86.4258C40.3624 86.4634 40.4295 86.4898 40.5017 86.5091C40.5728 86.5284 40.6603 86.5366 40.7609 86.5366C40.887 86.5366 40.9744 86.5549 41.0252 86.5905C41.074 86.6281 41.1005 86.6931 41.1005 86.7826C41.1005 86.8385 41.0801 86.8843 41.0364 86.9199C40.9927 86.9554 40.9378 86.9707 40.8666 86.9707C40.8351 86.9707 40.6684 86.9575 40.3624 86.931C40.0564 86.9066 39.7666 86.8934 39.4962 86.8934C39.1007 86.8934 38.7205 86.9168 38.3586 86.9636C38.3148 86.9676 38.2864 86.9717 38.2762 86.9717C38.2325 86.9717 38.1908 86.9554 38.1522 86.9209C38.1146 86.8853 38.0932 86.8446 38.0881 86.7989C38.0881 86.7175 38.1573 86.6281 38.2986 86.5284C38.4399 86.4288 38.5355 86.3454 38.5843 86.2743C38.6585 86.1696 38.7124 86.0394 38.7459 85.8829C38.7795 85.7294 38.7947 85.4752 38.7947 85.1265V83.3087C38.7947 82.3307 38.6636 81.6465 38.3992 81.252C38.1369 80.8606 37.6927 80.6634 37.0705 80.6634C36.5103 80.6634 36.0711 80.8088 35.7569 81.0985C35.4438 81.3903 35.2873 81.7959 35.2873 82.3165V85.1427C35.2873 85.5667 35.3228 85.8585 35.395 86.0262C35.4692 86.194 35.6055 86.3312 35.8057 86.442C35.8596 86.4746 35.9267 86.4969 36.0009 86.5122C36.0762 86.5284 36.1636 86.5366 36.2582 86.5366C36.4127 86.5478 36.5133 86.5722 36.5591 86.6067C36.6028 86.6443 36.6262 86.7023 36.6262 86.7826C36.6262 86.8395 36.6028 86.8853 36.5591 86.9209C36.5133 86.9554 36.4534 86.9717 36.3771 86.9717C36.3436 86.9717 36.1606 86.9585 35.8322 86.931C35.5028 86.9066 35.1947 86.8934 34.9091 86.8934C34.5034 86.8934 34.11 86.9178 33.7267 86.9636C33.6677 86.9687 33.6291 86.9717 33.6138 86.9717C33.565 86.9717 33.5213 86.9554 33.4878 86.9209C33.4522 86.8853 33.4339 86.8456 33.4339 86.7999C33.4339 86.746 33.4492 86.6992 33.4807 86.6586C33.5091 86.621 33.565 86.5803 33.6454 86.5376L33.7348 86.4674C33.8304 86.3912 33.8995 86.3292 33.9382 86.2753C34.0358 86.1482 34.1018 86.01 34.1435 85.8564C34.1822 85.7019 34.2025 85.462 34.2025 85.1265V85.1255ZM31.8022 81.6028C31.8022 81.7085 31.794 81.7817 31.7768 81.8224L31.6964 81.8813C31.6456 81.8813 31.5602 81.7919 31.4402 81.617C31.3213 81.4381 31.2105 81.3008 31.1108 81.2002C30.8953 80.9846 30.6401 80.8149 30.3504 80.6898C30.0566 80.5658 29.7618 80.5038 29.4608 80.5038C28.8976 80.5038 28.4615 80.7305 28.1453 81.187C27.8291 81.6434 27.6695 82.2758 27.6695 83.084C27.6695 84.0458 27.9033 84.8154 28.3689 85.3989C28.8366 85.9825 29.4557 86.2743 30.2294 86.2743C30.7815 86.2743 31.2928 86.1197 31.7686 85.8097C32.2444 85.5016 32.4904 85.3481 32.5118 85.3481L32.5555 85.3745L32.5708 85.4498C32.5708 85.5281 32.5169 85.6399 32.4061 85.7822C32.2952 85.9256 32.1438 86.077 31.9537 86.2417C31.5968 86.5528 31.2288 86.7796 30.8516 86.9229C30.4704 87.0652 30.0495 87.1364 29.5818 87.1364C28.7085 87.1364 27.9857 86.809 27.4174 86.1553C26.847 85.5016 26.5623 84.6751 26.5623 83.6778C26.5623 82.6265 26.8887 81.7441 27.5414 81.0243C28.1941 80.3096 28.9952 79.9497 29.9488 79.9497C30.2599 79.9497 30.5527 79.9761 30.8282 80.028C31.1007 80.0819 31.3213 80.152 31.4941 80.2415C31.6141 80.3116 31.6964 80.3818 31.7381 80.4519C31.7818 80.5221 31.8022 80.6542 31.8022 80.8433V81.6028ZM23.5805 85.1285V82.2056C23.5805 81.6566 23.5348 81.3029 23.4422 81.1463C23.3497 80.9867 23.1749 80.9084 22.9177 80.9084C22.7713 80.9084 22.6635 80.8921 22.5933 80.8596C22.5242 80.8301 22.4886 80.7813 22.4886 80.7193C22.4886 80.6146 22.6116 80.5251 22.8587 80.458H22.8709C22.9868 80.4356 23.1027 80.4062 23.2155 80.3706C23.3284 80.333 23.4453 80.2852 23.5653 80.2283C23.7117 80.1662 23.8947 80.0717 24.1153 79.9466C24.3369 79.8226 24.4823 79.7606 24.5524 79.7606C24.6165 79.7606 24.6632 79.7769 24.6887 79.8094C24.7141 79.8389 24.7242 79.9121 24.7242 80.0229C24.7242 80.0442 24.7222 80.1256 24.7181 80.2689C24.6927 81.0599 24.6805 81.86 24.6805 82.6733V85.1427C24.6805 85.5667 24.7161 85.8605 24.7883 86.0262C24.8625 86.1929 24.9987 86.3312 25.199 86.442C25.258 86.4746 25.3251 86.4959 25.4003 86.5122C25.4715 86.5284 25.5569 86.5366 25.6514 86.5366C25.806 86.5467 25.9056 86.5722 25.9524 86.6067C25.9961 86.6443 26.0195 86.7013 26.0195 86.7826C26.0195 86.8334 25.993 86.8792 25.9442 86.9168C25.8934 86.9524 25.8314 86.9707 25.7541 86.9707C25.7206 86.9707 25.5386 86.9575 25.2143 86.931C24.8879 86.9066 24.5799 86.8934 24.2952 86.8934C23.8784 86.8934 23.4778 86.9168 23.0895 86.9636C23.0305 86.9676 22.9919 86.9717 22.9766 86.9717C22.9278 86.9717 22.8831 86.9554 22.8506 86.9209C22.815 86.8853 22.7967 86.8446 22.7967 86.7989C22.7967 86.745 22.8119 86.6992 22.8424 86.6586C22.8709 86.621 22.9278 86.5803 23.0071 86.5366L23.0813 86.4888C23.1921 86.4044 23.2745 86.3343 23.3233 86.2743C23.4178 86.1472 23.4849 86.01 23.5236 85.8564C23.5622 85.7019 23.5805 85.462 23.5805 85.1295V85.1285ZM23.5063 77.4884C23.5063 77.3349 23.5937 77.1508 23.7655 76.9343C23.9384 76.7188 24.0766 76.61 24.1824 76.61C24.28 76.61 24.4131 76.7157 24.586 76.9241C24.7578 77.1315 24.8452 77.3054 24.8452 77.4426C24.8452 77.5728 24.7629 77.7456 24.5961 77.9581C24.4314 78.1716 24.282 78.2803 24.1539 78.2803C24.0228 78.2803 23.8814 78.1878 23.732 78.0069C23.5805 77.8259 23.5063 77.6531 23.5063 77.4884ZM18.3875 85.1255V81.6678C18.3875 81.4086 18.3285 81.2144 18.2075 81.0873C18.0865 80.9572 17.9015 80.8921 17.6494 80.8921C17.503 80.8921 17.4023 80.8789 17.3484 80.8494C17.2925 80.8189 17.2641 80.7711 17.2641 80.703C17.2641 80.639 17.2874 80.5902 17.3281 80.5576C17.3718 80.5221 17.4745 80.4895 17.6341 80.458C17.6646 80.4468 17.7032 80.4356 17.7551 80.4255C17.996 80.3635 18.1912 80.2954 18.3407 80.2283C18.4922 80.1601 18.6772 80.0636 18.8978 79.9416C19.1194 79.8196 19.2577 79.7606 19.3126 79.7606C19.3736 79.7606 19.4153 79.7819 19.4387 79.8287C19.458 79.8714 19.4712 79.9792 19.4712 80.1469V81.2164C19.8779 80.703 20.1879 80.3655 20.4014 80.1988C20.6149 80.0341 20.8233 79.9497 21.0287 79.9497C21.2656 79.9497 21.4893 80.0361 21.6997 80.212C21.9102 80.3848 22.0159 80.5546 22.0159 80.7173C22.0159 80.8433 21.9518 80.9867 21.8207 81.1443C21.6895 81.3029 21.5787 81.3811 21.4893 81.3811C21.4425 81.3811 21.3164 81.3171 21.106 81.1849C20.8955 81.0517 20.6871 80.9867 20.4868 80.9867C20.2215 80.9867 19.9826 81.1138 19.7721 81.371C19.5617 81.6272 19.456 81.9118 19.456 82.2219V84.8967C19.456 85.4366 19.4946 85.7985 19.5688 85.9906C19.644 86.1797 19.7853 86.3312 19.9907 86.442C20.0497 86.4746 20.1168 86.4959 20.1879 86.5122C20.2632 86.5284 20.3455 86.5366 20.4431 86.5366C20.5966 86.5467 20.6973 86.5722 20.743 86.6067C20.7867 86.6443 20.8101 86.7013 20.8101 86.7826C20.8101 86.8334 20.7847 86.8792 20.7359 86.9168C20.6851 86.9524 20.6231 86.9707 20.5458 86.9707C20.5123 86.9707 20.3293 86.9575 20.006 86.931C19.6796 86.9066 19.3706 86.8934 19.0859 86.8934C18.6701 86.8934 18.2685 86.9168 17.8812 86.9636C17.8212 86.9676 17.7836 86.9717 17.7673 86.9717C17.7185 86.9717 17.6748 86.9554 17.6412 86.9209C17.6056 86.8853 17.5873 86.8446 17.5873 86.7989C17.5873 86.7562 17.6006 86.7175 17.626 86.683C17.6494 86.6474 17.7083 86.5996 17.7978 86.5366C17.8883 86.4827 17.9554 86.439 17.9991 86.4014C18.0428 86.3637 18.0814 86.3231 18.115 86.2743C18.2126 86.1472 18.2787 85.9967 18.3224 85.8209C18.3661 85.6419 18.3875 85.4132 18.3875 85.1265V85.1255ZM9.99906 85.1255V81.7085C9.99906 81.4167 9.94517 81.2083 9.83436 81.0812C9.72354 80.9552 9.54156 80.8921 9.28943 80.8921C9.13999 80.8921 9.03527 80.8759 8.97834 80.8433C8.91937 80.8149 8.89091 80.765 8.89091 80.703C8.89091 80.6308 8.91124 80.5759 8.95496 80.5414C8.99867 80.5058 9.0861 80.4844 9.22233 80.4743L9.2691 80.4651C9.36873 80.4438 9.44092 80.4245 9.48768 80.4112C9.79268 80.2974 10.0967 80.1652 10.4027 80.0087C10.7056 79.8541 10.8754 79.7758 10.911 79.7758C10.975 79.7758 11.0218 79.8002 11.0442 79.847C11.0706 79.8948 11.0828 79.9954 11.0828 80.1459V81.1056C11.4895 80.7132 11.8799 80.4245 12.255 80.2354C12.6281 80.0442 12.9931 79.9487 13.3499 79.9487C13.7098 79.9487 14.0514 80.0331 14.3727 80.2028C14.694 80.3706 14.9583 80.6054 15.1647 80.9084C15.3446 81.1646 15.4727 81.4757 15.5469 81.8376C15.6211 82.1995 15.6608 82.775 15.6608 83.5669V85.1417C15.6608 85.585 15.6913 85.8849 15.7553 86.0364C15.8174 86.1899 15.9333 86.32 16.0969 86.4247C16.159 86.4624 16.226 86.4898 16.3003 86.5091C16.3775 86.5274 16.4619 86.5356 16.5575 86.5356C16.6774 86.5356 16.7628 86.5549 16.8086 86.5894C16.8584 86.6271 16.8808 86.6921 16.8808 86.7816C16.8808 86.8385 16.8604 86.8843 16.8167 86.9199C16.775 86.9544 16.7191 86.9707 16.6469 86.9707C16.6164 86.9707 16.4487 86.9575 16.1437 86.93C15.8377 86.9056 15.5469 86.8924 15.2775 86.8924C14.881 86.8924 14.5038 86.9168 14.149 86.9626C14.0982 86.9676 14.0667 86.9707 14.0565 86.9707C14.0128 86.9707 13.9711 86.9544 13.9386 86.9199C13.903 86.8843 13.8847 86.8446 13.8847 86.7979C13.8847 86.7114 13.9508 86.623 14.087 86.5223C14.2232 86.4258 14.3158 86.3444 14.3646 86.2743C14.4449 86.1685 14.5018 86.0384 14.5343 85.8829C14.5679 85.7283 14.5831 85.4742 14.5831 85.1255V83.3077C14.5831 82.3246 14.452 81.6383 14.1877 81.249C13.9254 80.8576 13.4831 80.6634 12.867 80.6634C12.3038 80.6634 11.8666 80.8088 11.5535 81.0975C11.2404 81.3893 11.0828 81.7949 11.0828 82.3165V85.1417C11.0828 85.5769 11.1194 85.8747 11.1885 86.0364C11.2577 86.2011 11.3919 86.3363 11.5871 86.442C11.643 86.4735 11.708 86.4959 11.7843 86.5122C11.8595 86.5284 11.9439 86.5366 12.0395 86.5366C12.196 86.5467 12.2967 86.5711 12.3424 86.6067C12.3862 86.6443 12.4095 86.7013 12.4095 86.7816C12.4095 86.8385 12.3862 86.8843 12.3424 86.9199C12.2967 86.9544 12.2367 86.9707 12.1605 86.9707C12.1269 86.9707 11.947 86.9575 11.6227 86.931C11.2994 86.9066 10.9933 86.8924 10.7056 86.8924C10.299 86.8924 9.90654 86.9168 9.52326 86.9636C9.4643 86.9676 9.42566 86.9717 9.41042 86.9717C9.36162 86.9717 9.31485 86.9554 9.27418 86.9209C9.23555 86.8853 9.21522 86.8446 9.21522 86.7989C9.21522 86.745 9.23047 86.6982 9.26097 86.6586C9.28943 86.6199 9.34637 86.5803 9.42566 86.5366L9.49988 86.4878C9.6107 86.4044 9.68999 86.3343 9.73371 86.2743C9.83436 86.1472 9.90349 86.01 9.94212 85.8564C9.98076 85.7019 9.99906 85.462 9.99906 85.1265V85.1255ZM1.65641 84.7534V77.7344C1.65641 77.2749 1.62286 76.9506 1.55881 76.7615C1.49171 76.5703 1.37887 76.4077 1.21213 76.2704C1.143 76.2165 1.06574 76.1728 0.983388 76.1403C0.897989 76.1047 0.793274 76.0762 0.662126 76.0488C0.530978 76.0264 0.446596 76 0.404913 75.9644C0.36628 75.9298 0.345947 75.881 0.345947 75.819C0.351031 75.7245 0.371364 75.6594 0.409996 75.6299C0.448629 75.5974 0.522845 75.5781 0.638743 75.573C0.659076 75.573 0.729225 75.5791 0.850207 75.5893C1.67979 75.6462 2.55615 75.6757 3.47825 75.6757C4.59962 75.6757 5.71489 75.632 6.83015 75.5486C7.03552 75.5323 7.15853 75.5242 7.20021 75.5242C7.32628 75.5242 7.40558 75.5486 7.44421 75.5923C7.48284 75.6381 7.50114 75.7245 7.50114 75.8516V75.9532L7.49301 75.9858L7.48386 76.0651L7.37914 77.3938C7.36898 77.526 7.35068 77.6155 7.32831 77.6592C7.30188 77.7049 7.25816 77.7283 7.1992 77.7344C7.13515 77.7344 7.0833 77.71 7.04772 77.6592C7.01417 77.6104 6.99587 77.5372 6.99587 77.4426L7.004 77.3481C7.0101 77.3054 7.01213 77.2749 7.01213 77.2586C7.01213 76.8642 6.87895 76.5866 6.60852 76.429C6.34114 76.2704 5.84807 76.1911 5.12828 76.1911H4.05164C3.54535 76.1911 3.21901 76.2379 3.07769 76.3263C2.93333 76.4158 2.86216 76.5866 2.86216 76.8398V80.1795C2.86216 80.4712 2.89266 80.6471 2.95671 80.7061C3.01872 80.7681 3.16309 80.7976 3.38879 80.7976H4.65553C5.12624 80.7976 5.47089 80.7579 5.68642 80.6796C5.90195 80.6003 6.07173 80.4661 6.19271 80.2771C6.25168 80.1845 6.31064 80.0392 6.36758 79.8358C6.42654 79.6335 6.50279 79.5308 6.59836 79.5308C6.65224 79.5308 6.69595 79.5634 6.7295 79.6254C6.76305 79.6904 6.7783 79.7769 6.7783 79.8877C6.7783 79.9151 6.76814 80.09 6.7478 80.4194C6.7295 80.7498 6.71934 81.0711 6.71934 81.3811C6.71934 81.679 6.73967 81.9921 6.7783 82.3246C6.78847 82.4141 6.79355 82.47 6.79355 82.4974C6.79355 82.592 6.77322 82.6733 6.7295 82.7373C6.68884 82.8055 6.63699 82.838 6.58311 82.838C6.45704 82.838 6.37774 82.7079 6.34114 82.4517C6.31573 82.2707 6.29031 82.1355 6.25879 82.046C6.17441 81.8193 6.02293 81.6597 5.80638 81.5682C5.59085 81.4757 5.24723 81.4299 4.77652 81.4299H3.32169C3.13157 81.4299 3.00551 81.4625 2.94959 81.5245C2.88961 81.5895 2.86216 81.7329 2.86216 81.9596V85.2668C2.86216 85.6714 2.94654 85.9449 3.11429 86.0821C3.28305 86.2204 3.61957 86.2875 4.12586 86.2875C4.74805 86.2875 5.34482 86.2173 5.91517 86.077C6.48551 85.9388 6.94808 85.7507 7.30493 85.5128C7.50521 85.3745 7.69329 85.1885 7.8651 84.9526C8.03794 84.7178 8.15587 84.6019 8.21483 84.6019C8.25652 84.6019 8.28905 84.6263 8.31243 84.6771C8.33886 84.7259 8.35106 84.794 8.35106 84.8805C8.35106 85.0319 8.30227 85.2312 8.20772 85.4803C8.11215 85.7283 7.99625 85.9449 7.86307 86.1309C7.62619 86.4359 7.38219 86.6525 7.13515 86.7796C6.88607 86.9066 6.56989 86.9687 6.18966 86.9687C6.09003 86.9687 5.73725 86.9524 5.13133 86.9229C4.52744 86.8904 3.97743 86.8741 3.47825 86.8741C2.58868 86.8741 1.74893 86.9066 0.957972 86.9687C0.842073 86.9798 0.769891 86.9849 0.744475 86.9849L0.635693 86.9249C0.598077 86.8843 0.579777 86.8416 0.579777 86.7958C0.579777 86.7277 0.598077 86.6718 0.63366 86.626C0.667209 86.5793 0.744475 86.5284 0.86444 86.4715L0.895956 86.4552C1.08099 86.3719 1.21722 86.2794 1.3016 86.1767C1.43275 86.0364 1.52526 85.8717 1.57711 85.6826C1.631 85.4965 1.65641 85.1854 1.65641 84.7534Z" fill="#333335"/>
</g>
<path d="M91.2541 86.2092L91.2389 84.8642C91.2389 84.7473 91.2541 84.6608 91.2877 84.607C91.3212 84.55 91.37 84.5236 91.4341 84.5236C91.5286 84.5236 91.5988 84.6456 91.6394 84.8886C91.673 85.0777 91.7086 85.2312 91.7452 85.3481C91.8834 85.7741 92.0817 86.0964 92.3389 86.3149C92.5951 86.5335 92.9062 86.6443 93.2712 86.6443C93.6595 86.6443 93.9757 86.5203 94.2248 86.2692C94.4739 86.0171 94.5979 85.6958 94.5979 85.2983C94.5979 84.8184 94.1323 84.3538 93.2041 83.8994C93.0302 83.813 92.894 83.7459 92.7984 83.694C92.2901 83.446 91.9302 83.1806 91.7137 82.897C91.4981 82.6164 91.3904 82.2707 91.3904 81.8651C91.3904 81.2896 91.5723 80.8332 91.9404 80.4926C92.3054 80.152 92.8035 79.9822 93.4308 79.9822C93.9218 79.9822 94.3021 80.0341 94.5715 80.1388C94.8388 80.2445 94.9751 80.3929 94.9802 80.582L94.9954 81.4919C94.9954 81.5956 94.9852 81.6658 94.9649 81.7085C94.9446 81.7492 94.911 81.7705 94.8602 81.7705C94.7799 81.7705 94.7189 81.6871 94.6721 81.5224C94.6254 81.3547 94.5816 81.2388 94.5359 81.1676C94.3712 80.9196 94.1679 80.7244 93.9269 80.5871C93.6849 80.4468 93.4389 80.3767 93.1817 80.3767C92.8604 80.3767 92.6032 80.4631 92.4101 80.639C92.2179 80.8118 92.1203 81.0416 92.1203 81.3272C92.1203 81.8386 92.711 82.3602 93.8913 82.8949C93.9757 82.9295 94.0398 82.959 94.0865 82.9803C94.5176 83.1806 94.8338 83.4297 95.0371 83.7235C95.2404 84.0214 95.3431 84.3833 95.3431 84.8184C95.3431 85.4823 95.1347 86.0313 94.7189 86.4664C94.3021 86.9005 93.7754 87.1201 93.1349 87.1201C92.7598 87.1201 92.3389 86.9981 91.8712 86.7552C91.7452 86.6931 91.6628 86.6555 91.6211 86.6443C91.5988 86.6393 91.5622 86.6311 91.5164 86.6199C91.3416 86.5854 91.2541 86.4471 91.2541 86.2092ZM85.4257 82.8217C85.4257 83.8729 85.6514 84.7096 86.1038 85.3369C86.5531 85.9611 87.1631 86.2743 87.9236 86.2743C88.496 86.2743 89.0805 86.0608 89.6712 85.6338C89.8308 85.523 89.9335 85.466 89.9711 85.466C90.0179 85.466 90.0464 85.4721 90.0586 85.4854C90.0718 85.4986 90.0769 85.5281 90.0769 85.5769C90.0769 85.6399 90.0514 85.7151 89.9976 85.7985C89.9457 85.8829 89.8583 85.9825 89.7383 86.0984C89.3733 86.4522 88.987 86.7145 88.5864 86.8822C88.1859 87.052 87.7487 87.1364 87.276 87.1364C86.4535 87.1364 85.7571 86.804 85.1868 86.1421C84.6184 85.4803 84.3328 84.67 84.3328 83.7103C84.3328 82.6865 84.6215 81.803 85.199 81.0629C85.7754 80.3197 86.4586 79.9497 87.2475 79.9497C87.702 79.9497 88.1137 80.0442 88.4736 80.2333C88.8355 80.4255 89.1547 80.7091 89.4292 81.0894C89.6122 81.3272 89.7485 81.5682 89.843 81.8163C89.9386 82.0653 89.9874 82.2971 89.9874 82.5137C89.9874 82.6357 89.962 82.716 89.9122 82.7597C89.8613 82.8004 89.7149 82.8217 89.4679 82.8217H85.4257ZM85.4562 82.4029H87.5708C88.0822 82.4029 88.4045 82.3785 88.5295 82.3327C88.6586 82.2839 88.7227 82.1945 88.7227 82.0623C88.7227 81.6139 88.5549 81.2164 88.2194 80.8738C87.8829 80.5302 87.4864 80.3604 87.0289 80.3604C86.5969 80.3604 86.2431 80.5414 85.9625 80.9033C85.6849 81.2652 85.5151 81.7654 85.4562 82.4029ZM79.6867 86.804L77.5944 81.5387C77.4846 81.2703 77.3789 81.068 77.2813 80.9308C77.1837 80.7925 77.0708 80.6868 76.9397 80.6146C76.9031 80.5922 76.8411 80.5658 76.7516 80.5332C76.6052 80.4875 76.533 80.4143 76.533 80.3197C76.533 80.2628 76.5564 80.2171 76.6001 80.1815C76.6459 80.1469 76.7079 80.1306 76.7902 80.1306C76.839 80.1306 76.9366 80.1418 77.0779 80.1601C77.2223 80.1815 77.3402 80.1927 77.4358 80.1927C77.7438 80.1927 78.0905 80.1815 78.4789 80.1601C78.8672 80.1418 79.1031 80.1306 79.1824 80.1306C79.2932 80.1306 79.3654 80.1418 79.3969 80.1662C79.4295 80.1906 79.4447 80.2364 79.4447 80.3035C79.4447 80.4194 79.3095 80.5007 79.0309 80.5414L78.9872 80.5485C78.8672 80.5759 78.7747 80.6268 78.7076 80.7C78.6436 80.7732 78.61 80.8626 78.61 80.9704L78.6222 81.0812C78.6304 81.1158 78.6405 81.1625 78.6568 81.2134L80.2448 85.3308C80.2651 85.3735 80.2804 85.3979 80.2906 85.4091L80.3343 85.4335L80.3912 85.4071L80.4471 85.3308L81.6142 82.6692C81.7454 82.3754 81.843 82.1019 81.9101 81.8508C81.9741 81.5997 82.0077 81.3679 82.0077 81.1514C82.0077 80.9674 81.9711 80.8332 81.905 80.7488C81.8379 80.6624 81.7037 80.5973 81.5085 80.5485C81.4811 80.5444 81.4373 80.5353 81.3804 80.5241C81.1791 80.5007 81.0795 80.4295 81.0795 80.3187C81.0795 80.2516 81.0978 80.2028 81.1334 80.1733C81.1669 80.1439 81.2259 80.1306 81.3062 80.1306C81.3672 80.1306 81.5136 80.1408 81.7505 80.1601C81.9863 80.1815 82.1947 80.1916 82.3747 80.1916C82.5363 80.1916 82.7214 80.1815 82.9328 80.1601C83.1433 80.1408 83.2765 80.1306 83.3303 80.1306C83.4127 80.1306 83.4727 80.1489 83.5164 80.1866C83.5601 80.2221 83.5804 80.2811 83.5804 80.3594C83.5743 80.4489 83.5164 80.5078 83.4005 80.5332C83.3334 80.5485 83.2815 80.5648 83.2409 80.581C83.1555 80.6136 83.0813 80.6674 83.0152 80.7488C82.9501 80.8271 82.8657 80.9785 82.76 81.2002L80.2448 86.8111C80.193 86.928 80.1492 87.0032 80.1086 87.0439C80.0689 87.0845 80.0211 87.1028 79.9673 87.1028C79.8534 87.1028 79.769 87.0246 79.7101 86.866L79.6867 86.8029V86.804ZM73.8755 85.1285V82.2056C73.8755 81.6566 73.8297 81.3028 73.7372 81.1463C73.6447 80.9867 73.4698 80.9084 73.2136 80.9084C73.0662 80.9084 72.9585 80.8921 72.8893 80.8596C72.8192 80.8301 72.7836 80.7813 72.7836 80.7193C72.7836 80.6146 72.9076 80.5251 73.1537 80.458H73.1669C73.2828 80.4356 73.3977 80.4062 73.5115 80.3706C73.6244 80.333 73.7403 80.2852 73.8613 80.2282C74.0066 80.1662 74.1896 80.0717 74.4102 79.9466C74.6319 79.8226 74.7783 79.7606 74.8474 79.7606C74.9115 79.7606 74.9582 79.7769 74.9836 79.8094C75.0091 79.8389 75.0192 79.9121 75.0192 80.0229C75.0192 80.0442 75.0172 80.1256 75.0141 80.2689C74.9877 81.0599 74.9755 81.86 74.9755 82.6733V85.1427C74.9755 85.5667 75.0111 85.8605 75.0833 86.0262C75.1575 86.1929 75.2937 86.3312 75.495 86.442C75.554 86.4746 75.6201 86.4959 75.6953 86.5122C75.7665 86.5284 75.8519 86.5366 75.9474 86.5366C76.1009 86.5467 76.2006 86.5722 76.2473 86.6067C76.2911 86.6443 76.3144 86.7013 76.3144 86.7826C76.3144 86.8334 76.288 86.8792 76.2402 86.9168C76.1884 86.9524 76.1264 86.9707 76.0491 86.9707C76.0155 86.9707 75.8336 86.9575 75.5103 86.931C75.1829 86.9066 74.8749 86.8934 74.5902 86.8934C74.1734 86.8934 73.7728 86.9168 73.3844 86.9636C73.3255 86.9676 73.2868 86.9717 73.2716 86.9717C73.2228 86.9717 73.1791 86.9554 73.1455 86.9209C73.1099 86.8853 73.0916 86.8446 73.0916 86.7989C73.0916 86.745 73.1069 86.6992 73.1374 86.6586C73.1659 86.621 73.2228 86.5803 73.3021 86.5366L73.3773 86.4888C73.4871 86.4044 73.5695 86.3343 73.6183 86.2743C73.7138 86.1472 73.7799 86.0099 73.8186 85.8564C73.8572 85.7019 73.8755 85.462 73.8755 85.1295V85.1285ZM73.8013 77.4884C73.8013 77.3349 73.8887 77.1508 74.0605 76.9343C74.2333 76.7188 74.3726 76.61 74.4773 76.61C74.5749 76.61 74.7081 76.7157 74.881 76.9241C75.0528 77.1315 75.1402 77.3054 75.1402 77.4426C75.1402 77.5728 75.0579 77.7456 74.8911 77.9581C74.7264 78.1716 74.578 78.2803 74.4489 78.2803C74.3187 78.2803 74.1764 78.1878 74.028 78.0069C73.8755 77.8259 73.8013 77.6531 73.8013 77.4884ZM65.7728 84.7534V77.7344C65.7728 77.2484 65.7392 76.918 65.6701 76.7452C65.603 76.5703 65.4881 76.4128 65.3204 76.2704C65.2461 76.2084 65.1638 76.1566 65.0764 76.1189C64.9889 76.0834 64.8893 76.059 64.7785 76.0488L64.7429 76.0325C64.5853 75.9888 64.5081 75.9187 64.5081 75.819C64.5081 75.7245 64.5264 75.6594 64.565 75.6299C64.6036 75.5974 64.6809 75.5781 64.8019 75.573C64.8527 75.573 65.0408 75.5893 65.3671 75.6248C65.6935 75.6594 65.9914 75.6757 66.2638 75.6757C66.7396 75.6757 67.2174 75.6462 67.6922 75.5893C67.7847 75.5781 67.8366 75.573 67.8518 75.573C67.921 75.573 67.9759 75.5923 68.0145 75.6299C68.0521 75.6655 68.0704 75.7194 68.0704 75.7865C68.0704 75.9024 67.9626 76 67.7471 76.0732L67.7308 76.0803L67.6332 76.121C67.4818 76.183 67.374 76.245 67.3099 76.3101C67.1788 76.4311 67.0863 76.5825 67.0344 76.7696C66.9806 76.9526 66.9551 77.2749 66.9551 77.7334V85.2658C66.9551 85.6633 67.0375 85.9306 67.2042 86.074C67.3689 86.2173 67.6871 86.2875 68.1609 86.2875C68.7983 86.2875 69.4073 86.2173 69.9848 86.077C70.5663 85.9388 71.0309 85.7548 71.3837 85.5281C71.589 85.3847 71.7812 85.1956 71.9642 84.9587C72.1441 84.7198 72.2641 84.6019 72.3241 84.6019C72.3647 84.6019 72.3983 84.6253 72.4217 84.6771C72.4471 84.7249 72.4603 84.793 72.4603 84.8794C72.4603 85.0258 72.4115 85.2312 72.3139 85.4925C72.2163 85.7517 72.0902 85.9876 71.9408 86.1929C71.7304 86.4735 71.4914 86.6738 71.2291 86.7979C70.9638 86.9219 70.6303 86.9839 70.2237 86.9839C70.0986 86.9839 69.7174 86.9676 69.083 86.9351C68.4486 86.9056 67.8772 86.8893 67.377 86.8893C66.5383 86.8893 65.7524 86.9198 65.0194 86.9758C64.9249 86.9819 64.8659 86.9839 64.8476 86.9839L64.7368 86.9239C64.7033 86.8833 64.688 86.8406 64.688 86.7948C64.688 86.7247 64.7063 86.6708 64.7449 86.624C64.7836 86.5783 64.8629 86.5244 64.9889 86.4624L65.0276 86.4461C65.1973 86.3566 65.3204 86.2682 65.3956 86.1757C65.5308 86.0303 65.6284 85.8574 65.6853 85.6623C65.7453 85.4681 65.7728 85.1631 65.7728 84.7523V84.7534Z" fill="#333335"/>
<path d="M24.1897 65.2876H71.5687V0.272705H24.1897V65.2876Z" fill="white"/>
<path d="M71.5382 30.452C71.3837 29.839 70.6232 29.6448 69.7174 30.452C69.204 30.9136 69.0291 31.5917 68.5462 30.9034C68.35 30.4408 69.204 28.3008 69.9339 27.7203C69.9339 27.7203 69.5222 27.0208 69.3585 26.7412L67.6414 27.1825C67.6414 27.0747 67.6302 26.9242 67.62 26.8378L66.1296 27.1825C65.8419 29.0755 65.3793 32.1397 64.6077 32.3989C63.9703 32.5707 65.05 29.4618 65.2248 27.9348L63.3948 28.312C63.528 28.7308 63.528 28.8061 63.4355 29.0643C62.7056 28.5163 61.4408 28.6342 60.3205 31.0325C59.9301 31.8611 59.9606 32.6886 59.8884 33.6036C58.6542 34.9151 58.0168 34.2157 57.3803 33.506C58.5413 32.8289 59.498 31.6781 59.4879 30.4195C59.4767 29.4831 57.9456 29.4831 57.236 30.0759C57.7809 29.0429 58.2536 27.9998 58.2638 26.9557C58.2638 26.3325 58.336 24.6225 57.4932 24.5046C56.4135 24.3643 55.2921 32.1732 55.2921 32.1732L54.2745 32.6673C54.2236 31.8713 54.614 30.8821 55.2311 30.5486L53.6675 30.4845C53.0199 31.0437 53.3798 32.9794 51.0151 33.6463C50.8616 33.2265 50.5942 32.7852 50.1001 32.7964C48.6819 33.0435 48.9076 34.8399 49.9669 35.0117C50.1001 35.7112 49.3803 36.7115 48.9279 36.5397C48.1776 35.948 48.4145 34.0337 49.0723 33.3342C49.4118 33.0872 49.422 32.711 48.9797 32.7751C47.8899 32.9581 46.9851 35.0229 47.0257 36.4096C45.7407 38.0769 45.3188 36.9698 45.1856 36.131C45.761 35.1195 47.3551 30.1724 46.4086 28.6983C46.3059 28.5265 45.9979 28.4939 45.8749 28.6668C44.1161 30.8607 43.9412 34.2482 43.9615 36.8295C43.7663 37.3561 43.0781 38.325 42.5016 38.325C41.9567 38.325 42.6968 36.3567 43.1289 36.0121L42.6043 34.7646L41.1241 35.0981L41.1546 34.8073L39.4069 35.1083C39.5411 36.3781 38.9342 40.1743 38.1117 40.1743C37.6695 40.1743 38.1839 38.4429 38.492 35.6685L36.3743 36.3242L36.6925 36.7115L36.3123 40.099C36.1272 40.5291 35.7775 40.7446 35.2631 40.8086C33.4646 41.0882 33.1556 36.8508 32.2406 36.4747C33.6598 35.0341 35.1604 32.5707 36.4871 30.9461C39.5411 27.9561 41.0316 28.1076 41.0936 29.3012C41.1444 30.4845 42.5941 29.3977 42.7385 28.9026C43.3241 26.6009 40.9695 25.7307 39.4893 26.2898C33.9679 28.3862 33.5673 36.0009 29.7213 36.3882L30.6881 29.7851H29.6288C29.0432 30.7102 27.8191 31.6994 26.6063 30.9685L25.9272 34.2055C27.0282 34.2055 28.2919 33.4745 29.0229 32.6673C28.3234 35.7 28.3234 42.175 24.9715 42.4221L24.1897 45.53V0.272705H71.5382V30.452ZM36.8572 34.9903L37.0524 33.3881L38.6567 33.0435L38.4401 34.6457L36.8572 34.9903ZM56.6392 29.9142C57.1119 26.3112 57.9863 26.9029 56.6392 29.9142V29.9142ZM61.575 32.3552C60.8349 32.1508 61.7601 30.0545 62.4077 30.388C62.6954 30.635 62.1708 30.817 62.5612 30.9898C62.8906 31.0976 63.0044 30.9898 63.1478 30.8709C63.0553 31.4849 62.3355 32.5707 61.575 32.3552ZM57.0814 32.5382C57.1231 31.8713 56.8761 32.2159 56.1766 32.4843C56.3616 32.1732 57.2461 31.5164 57.5135 31.8713C57.5959 32.0543 57.4312 32.5056 57.0814 32.5382ZM50.2028 34.0764C49.9771 34.1089 49.9456 33.8181 50.1306 33.7754C50.3471 33.7429 50.3878 34.0337 50.2028 34.0764ZM45.0006 34.6569C45.0006 33.7216 45.2263 31.8184 45.4733 31.613C45.7 31.4199 45.0209 34.5816 45.0006 34.6569Z" fill="#333335"/>
<path d="M24.1897 65.2876V46.4764C28.179 45.4018 28.5491 43.4011 29.639 37.7119C30.3384 37.7119 30.924 37.4964 31.3662 37.1415C32.2924 38.3249 32.1074 40.3786 32.8577 41.7876C33.7208 43.949 35.4684 43.2933 36.6 41.7551C37.1144 42.6803 38.3069 41.992 38.7695 41.4542C39.777 40.3145 40.6717 37.9915 40.8974 36.378C41.1546 36.2815 41.4219 36.2703 41.7097 36.1839C40.7845 37.6682 39.901 41.626 42.0909 40.7232C42.9856 40.282 43.5203 39.3467 44.1781 38.5069C44.8664 41.0455 46.7899 38.8516 47.3134 37.7332C47.5188 38.4215 48.0851 38.7326 48.6707 38.7011C50.1103 38.4642 51.0049 36.862 51.0873 34.603C51.5702 34.3986 52.1873 34.2055 52.722 33.872C52.722 34.5064 52.8969 35.4742 52.4343 35.8402C51.7349 36.3028 52.4445 35.1947 51.745 35.034C51.2621 34.9791 50.8616 36.4746 51.1493 36.9047C51.3953 37.3459 52.0948 37.5716 52.6397 37.475C54.305 37.1517 54.676 35.0117 54.4087 33.6036L55.0868 33.3444C54.9322 34.5816 54.7787 35.7111 54.7472 36.8406L56.3728 36.1523C56.2996 35.9043 56.0841 35.3451 56.1868 35.0442C57.1119 36.1625 59.3537 35.9266 60.1761 34.5064C60.7414 35.3024 62.0478 35.335 63.1996 33.9798C63.5799 34.4627 64.0424 34.4962 64.4125 34.2807C65.5024 33.6565 66.4478 31.3548 66.8291 28.8497L67.8264 28.5803C67.2093 30.0321 66.4895 31.9038 67.0863 32.7323C68.0216 33.753 69.7591 32.7323 70.0976 31.6567C70.1912 31.3446 70.427 31.0111 70.6334 31.0538C71.3217 31.183 70.6741 32.1295 69.5842 32.958C68.6692 33.6463 67.0141 34.3559 65.7392 34.8825L31.1405 47.1647L29.0534 52.9088L65.6671 36.4645C68.9051 34.9263 70.6639 33.7429 71.5687 31.9902V65.2876H24.1897Z" fill="#333335"/>
</g>
<defs>
<clipPath id="clip0_639_4798">
<rect width="94.9959" height="89.7933" fill="white" transform="translate(0.349854 0.271484)"/>
</clipPath>
</defs>
</svg>
