<svg width="91" height="91" viewBox="0 0 91 91" fill="none" xmlns="http://www.w3.org/2000/svg">
<circle cx="45.248" cy="45.7463" r="45" fill="#5840BA"/>
<g filter="url(#filter0_f_639_4555)">
<path fill-rule="evenodd" clip-rule="evenodd" d="M20.048 31.3464C19.0539 31.3464 18.248 32.1523 18.248 33.1464V60.1468C18.248 61.1407 17.4423 61.9464 16.4484 61.9464C15.4543 61.9464 14.6484 62.7523 14.6484 63.7464V65.5464C14.6484 66.5406 15.4543 67.3464 16.4484 67.3464H20.048H70.448H74.0484C75.0426 67.3464 75.8484 66.5405 75.8484 65.5464V63.7464C75.8484 62.7523 75.0425 61.9464 74.0484 61.9464C73.0543 61.9464 72.248 61.1405 72.248 60.1464V33.1464C72.248 32.1523 71.4422 31.3464 70.448 31.3464H20.048Z" fill="#4229A6"/>
</g>
<path fill-rule="evenodd" clip-rule="evenodd" d="M17.8828 29.6518C17.8828 28.6577 18.6887 27.8518 19.6828 27.8518H70.0828C71.0769 27.8518 71.8828 28.6577 71.8828 29.6518V62.0518C71.8828 63.0459 71.0769 63.8518 70.0828 63.8518H19.6828C18.6887 63.8518 17.8828 63.0459 17.8828 62.0518V29.6518Z" fill="white"/>
<path opacity="0.8" fill-rule="evenodd" clip-rule="evenodd" d="M48.0826 37.1814C48.0827 37.1812 48.0442 37.1569 48.0818 37.1794C48.0824 37.18 48.0859 37.1822 48.0918 37.1859C48.18 37.2411 48.8203 37.6415 48.8203 38.5007V41.6587C48.483 42.3579 48.0789 43.31 48.0789 43.31L46.8002 43.8402C46.8002 43.8402 46.3421 43.6858 45.8203 43.5226V41.2192L41.3204 43.9993V49.4898C41.0231 49.6886 40.8028 49.8527 40.8028 49.9023V52.2032C40.8028 52.2893 41.4031 52.6009 41.9599 52.8713L40.5962 53.7138C40.1308 54.0016 39.5275 54.0124 39.0446 53.7138L31.5446 49.0802C31.0951 48.8026 30.8204 48.3047 30.8203 47.7679V38.5008C30.8203 37.9566 31.1069 37.4493 31.5644 37.1761L39.0711 32.5537C39.5488 32.2595 40.1461 32.2606 40.6228 32.5559C47.5499 36.8497 48.0822 37.182 48.0826 37.1814ZM48.8031 47.9998C48.7364 48.4453 48.48 48.8431 48.0961 49.0802L47.4399 49.4857C47.7321 48.8625 48.2107 48.3433 48.8031 47.9998ZM33.8204 46.9028L38.3204 49.6829V43.9993L33.8204 41.2192V46.9028ZM35.2227 38.5029L39.8189 41.3425L44.4223 38.4985L39.8411 35.6589L35.2227 38.5029Z" fill="#8E77F8"/>
<path opacity="0.8" fill-rule="evenodd" clip-rule="evenodd" d="M56.1938 47.9233L56.6213 48.9609C56.6213 48.9609 58.9495 49.8053 58.9487 49.9343V51.7931C58.9487 51.9181 56.6244 52.8339 56.6244 52.8339L56.1977 53.8698C56.1977 53.8698 57.2465 56.114 57.1547 56.2061L55.8384 57.5209C55.7498 57.6082 53.4624 56.6131 53.4624 56.6131L52.4254 57.0418C52.4254 57.0418 51.5782 59.3701 51.4496 59.3701H49.5912C49.465 59.3701 48.5503 57.0482 48.5503 57.0482L47.5141 56.6195C47.5141 56.6195 45.2683 57.6659 45.1788 57.577L43.8626 56.2606C43.7755 56.1725 44.7702 53.8818 44.7702 53.8818L44.3426 52.8475C44.3426 52.8475 42.0137 52.0006 42.0137 51.8708V50.0104C42.0137 49.887 44.3371 48.9729 44.3371 48.9729L44.7647 47.9369C44.7647 47.9369 43.7182 45.6911 43.8092 45.6006L45.1239 44.2858C45.2118 44.1969 47.5039 45.192 47.5039 45.192L48.5378 44.7634C48.5378 44.7634 49.3842 42.4351 49.5136 42.4351H51.3719C51.4974 42.4351 52.412 44.7585 52.412 44.7585L53.4475 45.1856C53.4475 45.1856 55.6925 44.1392 55.7835 44.2298L57.1006 45.5429C57.1884 45.6311 56.1938 47.9233 56.1938 47.9233ZM50.4805 53.6162C51.9772 53.6162 53.1954 52.3983 53.1954 50.9025C53.1954 49.4067 51.978 48.1912 50.4805 48.1904C48.9854 48.1904 47.7656 49.4067 47.7656 50.9025C47.7656 52.3983 48.9854 53.6162 50.4805 53.6162Z" fill="#8E77F8"/>
<path fill-rule="evenodd" clip-rule="evenodd" d="M14.2832 60.2517C14.2832 59.2575 15.0891 58.4517 16.0832 58.4517H73.6832C74.6773 58.4517 75.4832 59.2575 75.4832 60.2517V62.0517C75.4832 63.0458 74.6773 63.8517 73.6832 63.8517H16.0832C15.0891 63.8517 14.2832 63.0458 14.2832 62.0517V60.2517Z" fill="white"/>
<defs>
<filter id="filter0_f_639_4555" x="9.75553" y="26.4535" width="70.9858" height="45.7858" filterUnits="userSpaceOnUse" color-interpolation-filters="sRGB">
<feFlood flood-opacity="0" result="BackgroundImageFix"/>
<feBlend mode="normal" in="SourceGraphic" in2="BackgroundImageFix" result="shape"/>
<feGaussianBlur stdDeviation="2.44645" result="effect1_foregroundBlur_639_4555"/>
</filter>
</defs>
</svg>
