<svg xmlns="http://www.w3.org/2000/svg" width="83" height="50" viewBox="0 0 83 50">
    <g fill="none" fill-rule="evenodd">
        <path fill="#E31449" d="M63.27 44.829v-6.543h-3.644v7.239c0 2.448 2.564 4.435 5.729 4.435 3.162 0 5.728-1.987 5.728-4.435l-.002-7.239h-3.615l-.002 6.543c0 1.09-.937 1.974-2.096 1.974-1.158 0-2.097-.884-2.097-1.974M82.973 49.553h-3.67V30.511h3.67zM76.77 49.553h-3.672V30.511h3.671zM5.957 34.505H3.962v15.048H.056v-18.17h6.712c3.055 0 5.531 2.405 5.531 5.367 0 2.523-1.795 4.64-4.213 5.213l5.392 7.59H8.877l-3.9-5.948V39.26l.906-.002c1.443 0 2.61-1.064 2.61-2.378 0-1.311-1.095-2.375-2.536-2.375"/>
        <path fill="#E31449" fill-rule="nonzero" d="M16.916 42.573c0-1.225 1.004-2.215 2.241-2.215 1.24 0 2.244.99 2.244 2.215h-4.485zm8.098 2.087c.024-.248.036-.503.033-.762.056-3.928-2.573-6.081-5.92-6.081a6.067 6.067 0 0 0-6.066 6.07 6.07 6.07 0 0 0 6.065 6.073c2.56 0 4.552-1.143 5.58-2.936l-2.978-1.358c-.38.811-1.268 1.38-2.302 1.378-1.427-.002-2.483-1.037-2.496-2.26v-.124h8.084zM33.313 46.77c-1.488 0-2.694-1.306-2.694-2.916 0-1.609 1.206-2.914 2.694-2.914s2.694 1.305 2.694 2.914c0 1.61-1.206 2.915-2.694 2.915zm6.309 2.784l-.004-19.042H35.96v9.01c-.973-.952-2.27-1.53-3.69-1.53-3.03 0-5.486 2.656-5.486 5.935 0 3.277 2.457 5.933 5.487 5.933 1.432 0 2.727-.6 3.705-1.573v1.267h3.646zM52.064 46.398h-3.51V34.505h2.448c1.075 0 1.947.973 1.947 2.036a1.936 1.936 0 0 1-1.947 1.926h-1.276v3.265h2.338c1.304 0 2.288 1.04 2.288 2.329-.047 1.331-.872 2.25-2.288 2.337m3.073-6.735c1.004-.926 1.618-2.167 1.618-3.53 0-1.236-.482-2.37-1.323-3.26-.876-.953-2.424-1.49-4.518-1.49h-6.273v18.17h8.102c3.104-.05 5.605-2.366 5.605-5.21 0-2.068-.737-3.543-3.211-4.68"/>
        <path fill="#FBC707" d="M29.454 13.132c0 7.215 5.916 13.063 13.214 13.063 7.299 0 13.214-5.848 13.214-13.063C55.882 5.917 49.967.07 42.668.07c-7.298 0-13.214 5.848-13.214 13.063"/>
        <path fill="#FBC707" fill-rule="nonzero" d="M53.489 18.172c-.019-.028-.037-.058-.059-.085a5.138 5.138 0 0 1-.075-.114c-.112-.167-.21-.31-.26-.438.228.02.469.044.72.056l-.326.581zm23.839 3.71l-.003-.005a1.658 1.658 0 0 0-.047-.104c-.014-.07-.023-.153-.035-.237v-.013c-.028-.207-.054-.418-.143-.626a1.126 1.126 0 0 0-.806-.628.798.798 0 0 0-.124-.301c-.22-.313-.551-.53-.797-.693a2.752 2.752 0 0 1-.174-.118l-.068-.051a.902.902 0 0 0-.564-.195c-.343 0-.708.211-.93.492-.04-.1-.104-.332-.14-.462-.048-.18-.095-.35-.144-.481l-.008-.019c-.007-.016-.011-.032-.02-.058-.092-.239-.303-.804-.943-.908-.173-.028-.344-.035-.497-.042-.31-.014-.429-.06-.468-.086.007-.027.023-.07.051-.139.056-.136.096-.257.129-.382.131-.435.223-1.07.117-1.626.15.02.314.037.483.037.523 0 1.073-.112 1.547-.315l.026-.012c.937-.45 1.863-1.48 1.814-2.771l-.003-.035c-.107-1.117-.735-2.17-1.914-3.213.304-.081.632-.183.93-.387.853-.566 1.221-1.578 1.01-2.78l-.016-.082c-.136-.616-.595-.665-.734-.665a.744.744 0 0 0-.499.2l-.09.08c-.07.068-.15.144-.217.181-.183.107-.448.163-.729.22-.21.045-.452.093-.684.174-1.057.36-1.725.922-1.986 1.675-.157.457-.086 1.008.19 1.511l.021.037c.324.505.779.936 1.182 1.318.57.538 1.108 1.05 1.218 1.662.017.11.052.317-.323.597a1.23 1.23 0 0 1-.586.128c-.335 0-.712-.093-1.008-.25l-.016-.01c-.464-.227-.93-.537-1.39-.838-.734-.487-1.493-.987-2.374-1.272-.408-.176-.84-.262-1.221-.339-.486-.097-.943-.19-1.266-.44l-.045-.032c-.14-.09-.285-.195-.426-.294-.424-.304-.905-.65-1.486-.8a3.274 3.274 0 0 0-.61-.127c-.22-.033-.349-.054-.44-.118l-.286-.204-.014-.01c-.399-.287-.809-.586-1.245-.801-.736-.362-1.488-.542-2.315-.72-.042-.01-.157-.147-.23-.237-.124-.148-.277-.334-.49-.48-.619-.482-1.322-.924-2.266-.924a2.77 2.77 0 0 0-.246.01c-.568.036-1.05.4-1.367.671-.694.6-1.448 1.142-2.18 1.664-1.13.808-2.299 1.647-3.32 2.747-1.072 1.096-1.458 2.456-1.803 3.659-.05.171-.098.345-.152.526-.092.331-.178.67-.26.998-.42 1.669-.816 3.242-2.393 4.254a.775.775 0 0 0-.36.735.8.8 0 0 0 .517.655c.124.047.342.095.604.095.01.172.073.334.188.464.11.125.319.28.684.296h.028c1.085 0 1.859-.616 2.525-1.255.239.203.532.421.932.502l.108.021.117-.014c.396-.053.743-.097 1.09-.08.317.099.645.22.968.34.249.092.506.19.769.276l.127.039.114-.005c.71-.025 1.109-.644 1.259-.878l.028-.044.021-.049c.026-.057.045-.11.059-.166 0 .002 0 .004.002.007l.042.146c.092.326.19.662.406.915.199.23.473.352.79.352.117 0 .222-.016.3-.028a.21.21 0 0 1 .035-.005l.033.035c.124.132.311.332.618.424.289.093.58.17.868.244.344.09.705.183 1.028.308l.036.011c.257.081.536.162.832.155.461 0 .747-.176.984-.368.391-.313.549-.653.638-.985.058-.009.124-.025.213-.053.483-.157.954-1.036.958-1.045.033-.062.073-.123.106-.171a.983.983 0 0 0 .176-.561.84.84 0 0 0-.835-.832l-.077-.002c-.038 0-.947-.005-1.207 0h-.024a1.161 1.161 0 0 0-.311.06l-.017-.023c-.07-.083-.145-.278-.243-.327.007-.004.028-.011.035-.016l.253.026c.162.016.328.025.494.025.58 0 1.104-.095 1.61-.185.45-.079.9-.035 1.353-.035.044 0 .091 0 .138.002h.026c.195 0 .39.017.6.035.211.02.452.042.698.042.09 0 .172-.003.256-.007.237-.012.46-.053.663-.118l.08.419.033.141c.117.503.295 1.263 1.207 1.85l.136.087c.424.274.68.44 1.312.533.164.026.467.019.659-.028.797-.169 1.685.037 2.398.55l.063.039c.058.032.138.1.215.164.165.137.368.309.643.408.18.072.372.11.579.11h.011c.392 0 .605-.12.762-.205 0-.002.002-.002.002-.002l.078.106c.112.156.25.348.452.531.384.364.865.405 1.193.405.152 0 .302-.009.431-.018.047-.005.096-.007.146-.01.091-.004.175-.006.232-.013.096-.012.159-.026.192-.035a.746.746 0 0 0 .426.141.776.776 0 0 0 .204-.03l.755-.245a.768.768 0 0 0 .476-.415c.164-.364.002-.704-.117-.952zM32.988 17.396l-.094.086c-.178.16-.401.364-.577.621a5.436 5.436 0 0 1-.276-.505c.286-.04.574-.128.806-.23.051 0 .1-.002.15-.004-.002.01-.007.02-.01.032m9.26 1.759l-.395-.195c-.342-.206-.572-.584-.816-.987a7.478 7.478 0 0 0-.36-.565c-.125-.18-.299-.334-.437-.457-.026-.023-.058-.05-.084-.076-.427-1.156-.88-2.507-.99-3.976-.027-.366-.243-.992-.48-1.397l-.01-.012c-.676-1.093-2.25-2.903-2.34-3-.061-.06-.125-.125-.181-.178l-.042-.04-2.803-2.305-.043-.033c-.59-.41-.803-.502-1.263-.67-.72-.256-1.723-.22-2.447.087l-.047.023a10.32 10.32 0 0 0-.689.408c-.335.21-.651.41-.97.516l-.06.023c-.275.12-.59.218-.892.31-.663.202-1.413.434-2.034.997-.152.137-.277.253-.382.35-.15.141-.293.273-.352.313a.961.961 0 0 1-.12.004c-1.05 0-1.83.267-2.608.897l-.026.02c-.475.427-.942.826-1.434.993-.201.07-.457.1-.738.127l-.028.002a5.41 5.41 0 0 0-1.027.158c-.797.183-1.57.776-2.191 1.253-.275.211-.453.343-.528.392-.054.037-.122.076-.175.109-.682.394-1.27.734-1.98.734h-.036c-.39-.035-.752-.301-.877-.644-.117-.445.021-.89.387-1.253.237-.232.516-.468.788-.695.48-.406.935-.786 1.275-1.238.532-.704.478-1.807-.122-2.456-.46-.498-1.254-.741-1.896-.896l-.054-.012a.993.993 0 0 0-.115-.023l-.038-.007c-.072-.014-.143-.025-.213-.04a4.776 4.776 0 0 1-.354-.069c-.218-.06-.443-.213-.68-.377a5.83 5.83 0 0 0-.543-.339l-.52-.278-.324.49a1.974 1.974 0 0 0-.312 1.269l.003.035c.112.873.81 1.784 1.664 2.168l.018.007c.03.014.061.026.092.037.197.081.391.116.572.13-.462.382-.921.788-1.322 1.277-.785.854-.832 2.24-.474 3.17.46 1.218 1.7 1.897 2.73 2.031.179.026.36.04.547.04.323 0 .633-.042.923-.1.003.004.003.01.003.014.02.456.035.748.068.924.075.382.248.806.365 1.087.003.01.007.018.012.028-.23.143-.567.278-.698.312-.183.021-.38.033-.525.04-.101.004-.18.011-.22.016a.957.957 0 0 0-.57.264c-.2.19-.319.494-.483.913a9.187 9.187 0 0 1-.2.48 1.032 1.032 0 0 1-.217.222c-.113-.2-.296-.345-.413-.436l-.019-.016c-.29-.23-.735-.236-1.059-.018-.047.032-.096.062-.143.095l-.04.025a7.187 7.187 0 0 0-.675.484 1.032 1.032 0 0 0-.33.554.626.626 0 0 0-.169.044c-.382.155-.816.596-.848 1.04a4.89 4.89 0 0 1-.059.54.352.352 0 0 1-.04.044c-.258.288-.335.797-.002 1.126.222.223 1.087.452 1.258.452h.043l.105-.014.05-.014a.85.85 0 0 0 .147-.06l.202.019c.105.009.227.034.372.067.228.048.485.104.762.104.298 0 .57-.067.81-.195.437-.208.652-.574.812-.845.044-.077.091-.158.138-.22.024.007.05.014.07.018.12.033.268.072.432.079.703.04 1.32-.354 1.622-.59.12-.096.234-.2.337-.295.115-.107.232-.218.338-.287.105-.044.25-.065.43-.065.305 0 .655.065.938.116.617.155 1.278.08 1.775-.197.267-.15.536-.29.754-.403l.038-.019c.117-.063.222-.116.307-.162.506-.274.886-.869 1.118-1.323.112-.223.283-.637.33-.753.047.002.094.002.143.002.333 0 .678-.053.982-.1.211-.032.41-.064.56-.071l.026-.003a2.41 2.41 0 0 1 .183-.007c.305 0 .748.035 1.08.072.277.03.467.058.833.074l.159.012c.115.01.248.019.391.019.373 0 .678-.086.926-.209.07.07.188.232.267.297h-.035c-.239 0-.46.097-.61.254-.208-.097-.55-.097-.862-.071-.37.027-.703.083-1.076.162-.276.058-.478.19-.593.44a.883.883 0 0 0 .045.809c.192.336.377.644.572.966l.087.143c.089.149.309.397.778.397.056 0 .122-.003.192-.007.005 0 .012 0 .019-.003.011.021.023.044.037.065.14.25.314.56.626.804a1.86 1.86 0 0 0 1.193.417c.2 0 .391-.028.574-.083.846-.264 1.674-.533 2.48-.94h.105l.066-.005c.052-.005.103-.01.157-.012.323-.023.813-.06 1.186-.45l.035-.037.028-.041c.148-.211.284-.422.408-.637l.021.078.007.017c.19.551.762.797 1.247.797h.028c.549-.024 1.024-.195 1.444-.343l.03-.012.179-.063.042-.016c.319-.136.783-.16 1.343-.07l.072.012.073-.004c.59-.037 1.048-.32 1.423-.621.712.741 1.62 1.119 2.693 1.119.037 0 .077 0 .12-.002l.173-.012.049-.012c.351-.08.588-.345.619-.688a.708.708 0 0 0-.007-.199c.065-.007.129-.016.19-.03a.793.793 0 0 0 .63-.649.744.744 0 0 0-.41-.806"/>
        <path fill="#E31449" d="M58.378 19.31c-.04-.048-.124-.057-.168-.057-.021 0-.04.002-.059.004-.14.019-.27.028-.405.028-.078 0-.146-.005-.209-.007-.054-.002-.106-.002-.157-.002-.084 0-.152.004-.22.016l-.014.002-.01.014c-.01.019-.272.473-.237.758.038.308.357.37.598.42.087.018.188.034.286.034.173 0 .288-.056.345-.171.145-.369.23-.67.271-.95a.106.106 0 0 0-.02-.088M75.64 20.33c-.15-.212-.41-.384-.62-.523a2.324 2.324 0 0 1-.24-.169l-.042-.03a.253.253 0 0 0-.17-.06c-.235 0-.495.28-.5.375-.007.141.197.392.462.704l.056.065c.134.158.279.244.431.255h.003a.565.565 0 0 0 .407-.171c.097-.088.31-.308.214-.445M76.746 22.15a1.35 1.35 0 0 1-.091-.222 2.841 2.841 0 0 1-.05-.32c-.023-.172-.042-.334-.098-.459a.473.473 0 0 0-.415-.266c-.06 0-.12.013-.173.041-.26.128-.413.264-.37.554.14.42.213.725.306 1.138.01.062.054.27.155.27.007 0 .014 0 .024-.002l.745-.243a.118.118 0 0 0 .077-.067c.045-.097-.033-.264-.11-.424M28.492 19.924a1.699 1.699 0 0 1-.197-.482c-.068-.23-.124-.426-.373-.392a7.537 7.537 0 0 1-1.087.074c-.005 0-.127 0-.162.084-.044.097.054.185.157.278.059.053.117.109.16.167.072.104.14.252.206.396.103.23.194.426.302.459.042.014.092.02.148.02.239 0 .574-.13.815-.315.134-.113.092-.187.031-.29M11.114 19.567l-.019-.016c-.072-.058-.208-.048-.295.012l-.188.123c-.199.13-.403.264-.62.442-.078.065-.12.19-.13.285-.007.077.007.137.04.174.017.018.176.192.209.22.051.044.136.1.253.1a.47.47 0 0 0 .211-.056c.384-.19.78-.892.797-.936.04-.111-.092-.215-.258-.348"/>
        <path fill="#E31449" fill-rule="nonzero" d="M9.85 21.233c-.078-.109-.34-.412-.49-.412a.095.095 0 0 0-.036.007c-.204.081-.44.343-.452.498-.052.681-.07.753-.258.962-.054.057-.089.192-.028.252.052.051.729.264.804.264l.016-.002c.059-.016.11-.17.246-.64.075-.252.157-.54.251-.799.007-.016.007-.042-.054-.13zM37.929 15.989a.886.886 0 0 1-.09.29c-.023.041-.063.13-.19.13-.137.002-.128-.16-.128-.184 0 0-.017-.45-.106-.637-.093-.206-.55-.788-.813-.762-.068.007-.239.109-.368.273-.155.2-.155.223-.201.253-.047.03-.11.014-.132-.102-.02-.118-.042-.213.014-.438.054-.225.11-.273.179-.436 0 0 .135-.312.187-.391.143-.211.333-.197.333-.197.05.002.213-.019.389.2.201.25.16.226.216.317.056.088.117.18.285.361.167.18.352.533.404.75.051.219.046.404.02.573m-1.265 2.873s-.021.206-.12.294c-.098.088-.45.137-.635.13-.182-.007-.248-.032-.286-.088-.044-.063.026-.188.026-.188.024-.044.242-.489.675-.604 0 0 .143-.051.277.013.131.065.07.397.063.443m-4.645-7.277c-.014.053-.05.088-.085.088-.016 0-.056-.01-.07-.077-.143-.73-.232-1.089-.398-1.427a1.992 1.992 0 0 0-.18-.278c-.125-.17-.233-.313-.111-.508.035-.057.122-.097.218-.097.05 0 .094.01.131.028.143.067.281.236.424.521.357.72.073 1.738.07 1.75m9.943 8.139l-.417-.206c-.495-.285-.78-.76-1.057-1.217a7.44 7.44 0 0 0-.342-.535c-.08-.116-.216-.236-.336-.343-.103-.09-.201-.178-.22-.227-.452-1.219-.944-2.655-1.064-4.25-.019-.245-.192-.775-.396-1.125-.642-1.034-2.177-2.806-2.262-2.894-.054-.056-.112-.111-.162-.16l-.042-.042-2.765-2.27c-.549-.38-.718-.45-1.114-.591a2.57 2.57 0 0 0-.87-.139c-.39 0-.782.074-1.103.209-.22.115-.434.252-.642.382-.354.225-.718.454-1.116.586-.307.137-.642.239-.963.338-.628.19-1.275.39-1.79.855l-.376.345c-.473.443-.523.49-.912.49-.902 0-1.54.217-2.203.755-.525.47-1.047.913-1.654 1.121-.272.093-.575.127-.893.16-.46.04-.53.044-.966.146-.656.15-1.352.683-1.94 1.135-.193.148-.453.345-.573.424-.063.04-.14.086-.201.123-.731.422-1.423.822-2.306.822-.024 0-.045 0-.066-.002-.659-.046-1.261-.496-1.463-1.091-.185-.672.014-1.36.549-1.888.255-.253.546-.496.825-.733.452-.38.879-.739 1.176-1.133.345-.456.307-1.228-.082-1.647-.386-.42-1.249-.628-1.575-.707l-.056-.013c-.03-.007-.089-.014-.12-.021-.206-.04-.403-.07-.604-.118-.513-.137-.912-.531-1.367-.774a1.354 1.354 0 0 0-.21.878c.089.679.658 1.383 1.293 1.668.026.012.054.023.08.032.202.086.412.098.612.098.042 0 .084 0 .126-.003h.13c.121 0 .269 0 .402.033.122.032.251.153.267.306.01.09-.03.16-.147.25l-.321.264c-.546.445-1.111.906-1.568 1.464-.617.658-.642 1.796-.357 2.535.366.973 1.376 1.515 2.218 1.622.147.023.297.035.454.035.495 0 .966-.116 1.423-.232.016-.002.03-.005.042-.005.021 0 .061 0 .068.102.014.202.024.431.033.651.019.36.033.698.061.84.06.319.22.708.328.963.045.109.08.195.092.239a.393.393 0 0 1-.097.393c-.346.313-1.047.563-1.176.577-.209.028-.431.04-.593.049-.082.002-.148.007-.18.01a.33.33 0 0 0-.195.09c-.099.095-.206.37-.333.688-.075.19-.152.387-.232.551-.22.364-.59.575-.947.779-.091.05-.18.102-.265.155l-.011.011c-.146.23-.296.45-.483.614-.148.137-.338.167-.518.188l-.012.002-.01.01c-.278.317-.367.737-.456 1.144l-.04.188-.012.056.035.004c.148.014.296.044.453.079.203.044.417.088.625.088.197 0 .368-.04.518-.123.268-.123.41-.364.549-.598.089-.155.183-.312.312-.437a.37.37 0 0 1 .285-.12c.104 0 .218.032.329.06.1.027.206.053.304.06.492.027.959-.278 1.189-.457.098-.079.199-.171.295-.26.15-.138.302-.282.466-.382.2-.095.443-.141.74-.141.371 0 .765.074 1.08.132.168.042.339.065.512.065.298 0 .577-.067.807-.197.274-.153.55-.297.77-.41.132-.067.244-.128.336-.176.394-.216.729-.809.853-1.052.115-.23.316-.723.319-.728l.007-.023-.457-.347-.021.03a6.904 6.904 0 0 1-.5.723c-.808 1.091-2.13 1.232-3.187 1.232-.075-.002-.148-.004-.22-.004-1.313 0-2.368.435-3.141 1.295-.038.04-.099.046-.127.011-.016-.02-.02-.053-.011-.092a.727.727 0 0 1 .086-.216c.823-1.151 2.225-1.323 3.354-1.344.835-.055 1.444-.196 1.971-.463.678-.343 1.18-1.096 1.376-1.694.13-.391.192-.81.256-1.214.047-.322.098-.655.18-.959a.099.099 0 0 1 .094-.067c.01 0 .016.002.033.007.042.007.124.04.124.102-.115.632-.27 1.501.023 2.226.136.285.427.424.889.424.28 0 .586-.046.88-.092a5.93 5.93 0 0 1 .631-.08c.08-.006.16-.008.24-.008.367 0 .724.07 1.066.139.3.06.61.12.928.136l.18.012c.11.01.226.019.34.019.27 0 .46-.054.598-.165.098-.079.063-.197.021-.345l-.01-.026c-.006-.025-.013-.053-.025-.083-.061-.195-.155-.494.002-.628a.139.139 0 0 1 .085-.03c.028 0 .06.01.072.046.02.058.035.116.052.172.068.238.138.484.293.692.321.408.82.793 1.439 1.113.398.27.881.73.919 1.367 0 .29-.284.49-.495.616-.333.164-.853.364-1.17.347a.751.751 0 0 1-.4-.155c-.324-.292-.286-.394-.497-.744a4.05 4.05 0 0 0-.375-.546c-.202-.22-.455-.306-.797-.278-.33.025-.635.088-.998.164a.223.223 0 0 0-.162.123.259.259 0 0 0 .019.236c.187.33.37.633.562.952l.087.142c.047.079.145.09.225.09.044 0 .094-.004.143-.007.054-.004.11-.009.164-.009.169 0 .274.04.342.125.059.086.11.18.162.271.126.225.255.457.476.623.196.174.482.271.782.271.134 0 .26-.018.382-.055.865-.269 1.711-.545 2.513-.969l.262-.002.179-.014c.276-.018.562-.042.766-.252.258-.371.476-.742.67-1.133.174-.35.176-.695.005-.967-.51-.806-.602-1.019-.81-1.57l-.008-.017-.014-.004a1.66 1.66 0 0 1-.18-.063 1.098 1.098 0 0 0-.406-.1h-.019c-.175.005-.295.06-.344.158l-.007.014.928 1.81c.058.14.126.285.091.495-.035.211-.492.918-.628 1.008-.033.023-.06.035-.08.035-.011 0-.058-.01-.028-.116.087-.294.195-.985.167-1.207-.033-.255-.811-1.527-.844-1.58l-.014-.023c-.12-.195-.244-.394-.234-.63 0-.107.103-.181.175-.211.136-.049.263-.07.403-.098.33-.074.67-.146.793-.329.372-.558.593-1.142.738-1.948.007-.035.033-.102.084-.102.03 0 .061.01.073.079a2.907 2.907 0 0 1-.506 2.198.235.235 0 0 0-.033.177c.01.064.084.115.084.115.178.12.83.051 1.301-.192.359.007.699-.058 1.027-.118l.309-.056c.033.019.059.047.066.072a2.213 2.213 0 0 0-.532 1.09 7.622 7.622 0 0 1-.244.228c-.302.274-.63.58-.645.971 0 0-.009.14.143.15.05.005.103-.02.157-.04.057-.024.115-.047.16-.04.049.007.084.046.089.095l-.347.5c-.129.209-.073.431-.021.644.04.12.02.213.054.318.086.248.393.368.64.368.45-.02.857-.167 1.253-.308l.214-.077c.433-.185 1.012-.224 1.701-.11.556-.035.973-.4 1.376-.751.171.004.35.106.535.3.597.636 1.333.946 2.245.946h.103l.094-.01c.096-.02.12-.066.124-.124.007-.072-.047-.142-.15-.188l-.511-.269c-.408-.257-.853-.565-.975-.973-.134-.433-.38-.876-.565-1.172-.035-.058-.075-.114-.117-.174a2.079 2.079 0 0 1-.2-.32l.003-.002c.558.2.867.605 1.245 1.284.279.505 1.005 1.047 1.694 1.047.092 0 .178-.01.263-.028.075-.016.122-.06.133-.125.007-.056 0-.107-.063-.14M55.096 8.882l-.33.304c-.396.356-.807.725-1.076 1.142-.127.171-.22.368-.312.558-.01.021-.03.063-.075.063-.02 0-.04-.01-.06-.028-.076-.077-.012-.6.086-.864.218-.584.715-1.193 1.362-1.673a.454.454 0 0 1 .239-.067c.124 0 .215.053.255.15.08.128.05.278-.089.415zm-4.669 6.483c-.06.08-.159.141-.253.095-.086-.033-.166-.144-.215-.23-.061-.106-.113-.199-.256-.19-.012 0 0 0-.023.003-.127.011-.223.074-.326.15-.052.04-.256.19-.305.234-.279.232-.558.47-.623.795-.03.116-.03.116-.04.172-.019.113-.04.231-.136.291l-.01.005c-.013.005-.028.005-.042.005a.19.19 0 0 1-.12-.044c-.034-.03-.055-.06-.058-.112-.049-.556.143-1.058.54-1.413.255-.208.463-.47.663-.723.096-.125.197-.252.3-.368.082-.081.208-.012.424.215.089.098.368.566.494.876a.303.303 0 0 1-.014.239zm-.243 3.867c-.045.079-.148.123-.286.123a.6.6 0 0 1-.321-.088c-.179-.126-.282-.336-.298-.608-.002-.064-.007-.127.08-.192.044-.025.065-.025.12-.025.168 0 .44.106.585.28.01.014.234.308.12.51zm25.247 3.503a4.423 4.423 0 0 0-.375-1.307l-.01-.02h-.023c-.431.027-.699-.32-.956-.652-.087-.11-.167-.215-.253-.306a3.798 3.798 0 0 0-.413-.393c-.15-.132-.281-.246-.333-.35-.06-.125-.126-.366-.192-.6a6.51 6.51 0 0 0-.127-.431l-.028-.067c-.077-.207-.17-.464-.443-.508a3.534 3.534 0 0 0-.42-.032c-.388-.017-.78-.086-.981-.36-.185-.254-.108-.49-.005-.74a2.11 2.11 0 0 0 .106-.311c.14-.464.187-1.04.082-1.448-.017-.063-.04-.128-.061-.19-.057-.17-.122-.424-.08-.505.042-.077.087-.09.166-.09.068 0 .146.022.22.043.055.014.094.021.144.035.194.044.482.097.747.097.439 0 .898-.092 1.294-.262.748-.361 1.488-1.172 1.45-2.175-.098-1.017-.733-2-1.944-3.005-.029-.026-.061-.051-.092-.077-.157-.127-.347-.29-.351-.435-.007-.144.372-.232.609-.285.054-.012.105-.023.148-.035l.06-.014c.3-.079.612-.16.87-.336.863-.574.832-1.587.734-2.145l-.012-.054c-.016-.071-.035-.164-.103-.164-.024 0-.042.011-.066.032l-.08.072c-.098.093-.208.197-.335.269-.274.16-.604.23-.923.294a5.093 5.093 0 0 0-.61.153c-.857.292-1.392.723-1.584 1.279-.098.29-.047.653.148 1.003.279.44.687.825 1.08 1.198.62.586 1.259 1.193 1.409 2.016.08.48-.117.885-.602 1.235-.256.153-.58.231-.943.231-.443 0-.92-.118-1.31-.326-.504-.248-.989-.568-1.46-.878-.705-.468-1.437-.95-2.248-1.207-.351-.158-.74-.235-1.118-.311-.536-.107-1.092-.218-1.535-.563a10.258 10.258 0 0 1-.45-.31c-.403-.29-.82-.587-1.294-.707a2.88 2.88 0 0 0-.515-.107c-.258-.037-.502-.072-.724-.23a24.994 24.994 0 0 1-.307-.217c-.375-.273-.765-.554-1.154-.746-.668-.329-1.38-.498-2.175-.67-.253-.06-.41-.25-.579-.451-.112-.135-.227-.274-.375-.373-.614-.48-1.17-.8-1.884-.8a2.98 2.98 0 0 0-.202.007c-.375.026-.742.308-.986.517-.715.62-1.484 1.17-2.227 1.7-1.106.793-2.25 1.613-3.23 2.67-.96.98-1.312 2.208-1.65 3.394-.051.176-.1.35-.152.524-.091.324-.176.658-.255.982-.443 1.752-.898 3.499-2.668 4.634-.117.074-.075.22.036.262.046.018.888.266 1.525-.47.462-.536.694-1.053 1.23-1.62.02-.016.08-.074.13-.06.037.011.054.032.037.097-.06.227-.208.426-.344.618-.14.197-.284.401-.354.638-.171.502-.645.908-1.062 1.265 0 0-.068.041-.105.09-.04.049-.038.07-.038.07-.012.11.077.178.256.185.991 0 1.696-.695 2.379-1.37a.146.146 0 0 1 .112-.043c.038 0 .063-.005.11.018.047.021.15.125.23.195.223.197.455.4.752.46l.005.003.007-.002c.36-.049.687-.09 1.022-.09.096 0 .187.002.27.009.36.106.721.243 1.07.373.247.09.502.185.757.27l.005.003h.007c.33-.011.567-.317.74-.584.08-.19.043-.377.006-.56-.022-.11-.045-.216-.04-.32.063-.033.145-.026.234-.012.08.012.195 0 .232-.007.087-.011.178-.11.152-.238-.065-.327-.23-.529-.396-.781-.143-.213-.28-.413-.351-.642-.108-.299-.34-.547-.563-.785-.258-.28-.504-.543-.576-.878 0 0-.024-.072.004-.098.026-.025.094.005.094.005.12.086.237.183.354.276.375.3.764.614 1.235.683.44.044.924.097 1.392.06.125-.02.188-.127.157-.234-.187-.391-.38-.813-.499-1.272-.1-.347-.319-1.258-.096-1.946.024-.067.068-.09.11-.09.005 0 .01 0 .017.002.075.019.126.107.138.178l.007.09c.066.937.127 1.822.708 2.575.155.243.377.373.59.5.148.086.317.163.425.297a.574.574 0 0 1 .058.572l-.71 1.038c-.169.236-.33.491-.391.749-.052.261-.028.516-.007.76l.004.06c-.016-.007-.035-.028-.051-.058-.288-.512-.345-.948-.2-1.28.094-.217.673-1.026.842-1.292.054-.086.098-.171.052-.23-.057-.074-.493-.257-.605-.257-.007 0-.017 0-.021.003-.103.028-.169.12-.228.201-.011.019-.023.035-.037.056l-.877 1.573-.02.058c-.052.158-.094.294-.052.477.049.237.124.49.178.675.016.05.03.102.044.155.08.27.153.528.275.672.077.088.173.13.302.13.066 0 .136-.01.201-.021a.875.875 0 0 1 .32-.007c.13.032.222.13.318.231.096.105.197.209.342.25.272.091.556.165.83.237.366.095.745.192 1.106.331.204.065.422.125.633.123.234 0 .377-.063.581-.225.286-.23.378-.456.45-.78.056-.3.155-.32.375-.334.106-.005.124 0 .228-.035.107-.035.424-.42.59-.734.045-.086.094-.163.14-.23a.35.35 0 0 0 .069-.199c-.003-.155-.131-.204-.216-.206l-.056-.003s-.935-.004-1.19 0c-.385.021-.554.385-.687.71-.054.122-.104.24-.167.345-.1.18-.3.292-.546.285a2.096 2.096 0 0 1-.31-.063c-.506-.123-1.026-.25-1.24-.744-.02-.085-.053-.261.076-.41.27-.31.626-.7.991-.982.507-.104 1.015-.475 1.294-.945.059-.08.09-.174.12-.267.044-.139.089-.273.218-.357.082-.039.147-.025.166.044.05.262-.052.512-.15.756l-.061.162-.014.042.04.002c.14.014.286.02.431.02.52 0 1.017-.087 1.498-.173.475-.083.965-.171 1.476-.171.054 0 .108 0 .164.002.228 0 .446.02.659.04.209.018.424.036.64.036.077 0 .147-.002.218-.007.651-.027 1.125-.322 1.265-.783.136-.391.122-1.073-.042-2.022a.908.908 0 0 1-.014-.082v-.018c.002-.035.002-.072.05-.095.058-.033.124 0 .154.076.248.682.39 1.47.464 2.01.084.525.307 1.056.682 1.626.467.685 1.233 1.082 2.103 1.082.203 0 .405-.04.607-.065.143-.019.194-.012.288-.012 1.106 0 2.072.475 2.789 1.372 0 0 .014.018.012.046-.003.037-.057.074-.106.053l-.094-.071c-.625-.48-1.272-.973-2.08-1.073a2.588 2.588 0 0 0-.458-.037c-.234 0-.464.025-.687.05-.222.024-.433.05-.646.05a1.94 1.94 0 0 1-.734-.13c-.933-.304-1.695-1.365-1.938-2.023a.113.113 0 0 0-.099-.063.16.16 0 0 0-.077.026c-.108.067-.127.104-.143.17-.014.055.077.527.117.729.122.503.206 1.093.959 1.578.497.32.644.445 1.193.526.093.014.325.007.414-.017.237-.05.479-.078.722-.078.77 0 1.55.26 2.204.732.112.06.215.148.314.232.14.118.286.238.459.3.11.045.227.066.352.066.297.002.372-.088.583-.19a.59.59 0 0 1 .249-.063c.239 0 .37.185.539.417.1.141.215.299.37.438.216.209.516.234.752.234.13 0 .26-.01.387-.016.122-.01.27-.012.347-.021.077-.01.117-.02.117-.02l-.002-.031z"/>
    </g>
</svg>
