<svg width="136" height="34" viewBox="0 0 136 34" fill="none" xmlns="http://www.w3.org/2000/svg">
<g clip-path="url(#clip0_639_4720)">
<path d="M44.8919 4.49215C47.7536 4.49215 48.3895 4.93234 49.4836 6.20605L56.5067 14.4477C56.6096 14.5695 56.6658 14.5976 56.7779 14.5976V4.49215H59.4899V18.0067H56.5815C54.7112 18.0067 53.8696 17.8568 52.7006 16.48L45.453 7.96677C45.4258 7.91938 45.3862 7.88039 45.3384 7.85399C45.2905 7.8276 45.2364 7.81476 45.1819 7.81692V18.0067H42.4699V4.49215H44.8919ZM31.5005 6.42146H38.3271C38.4751 6.43559 38.6238 6.4047 38.7539 6.33286C38.884 6.26103 38.9895 6.15155 39.0566 6.01874L39.8609 4.49215H30.051C25.6931 4.49215 23.5703 6.07493 23.5703 9.33417V13.0804C23.5703 16.555 25.7493 18.0254 30.0604 18.0254H38.5703C38.7183 18.0395 38.867 18.0087 38.9971 17.9368C39.1272 17.8649 39.2327 17.7554 39.2998 17.6227L40.104 16.096H31.5005C29.2374 16.096 28.4331 15.3281 28.4331 13.8015V11.9284H37.392C37.5411 11.9431 37.6911 11.9115 37.8217 11.8377C37.9521 11.764 38.0569 11.6518 38.1214 11.5163L38.8789 9.9804H28.3864V8.89395C28.3864 7.61091 28.695 6.42146 31.5005 6.42146ZM70.4872 6.42146H77.3233C77.4715 6.43559 77.6202 6.4047 77.7505 6.33286C77.8806 6.26103 77.9857 6.15155 78.0528 6.01874L78.8573 4.49215H69.0378C64.6704 4.49215 62.548 6.07493 62.548 9.33417V13.0804C62.548 16.555 64.7359 18.0254 69.0378 18.0254H77.5477C77.6958 18.0395 77.8446 18.0087 77.9749 17.9368C78.105 17.8649 78.21 17.7554 78.2772 17.6227L79.0817 16.096H70.4315C68.168 16.096 67.3641 15.3281 67.3641 13.8015V11.9284H76.3227C76.4732 11.9423 76.6239 11.9105 76.7558 11.837C76.8878 11.7634 76.9946 11.6516 77.0617 11.5163L77.8566 9.9804H67.3641V8.89395C67.3641 7.61091 67.6539 6.42146 70.4405 6.42146H70.4872ZM90.0788 13.4363C91.9493 14.045 92.4916 14.2978 92.4916 15.0003C92.4916 15.7027 92.1269 16.0773 89.8172 16.0773H81.9247C81.7753 16.0626 81.6247 16.0931 81.4934 16.1649C81.3613 16.2367 81.2546 16.3466 81.1856 16.48L80.3907 18.0067H91.6127C96.1577 18.0067 97.8501 16.583 97.8501 14.607C97.8501 13.4644 97.2051 11.9472 92.9499 10.5517L88.4704 9.04381C86.6005 8.43508 86.0671 8.16343 86.0671 7.46104C86.0671 6.90847 86.385 6.39336 88.7415 6.39336H95.4564C95.6052 6.40686 95.7552 6.37582 95.8865 6.30414C96.0179 6.23247 96.1253 6.12337 96.1949 5.99064L96.9616 4.49215H86.9742C82.4292 4.49215 80.7272 5.91572 80.7272 7.89184C80.7272 9.03445 81.3817 10.5611 85.637 11.9565L90.1256 13.4363H90.0788ZM130.711 10.5517L126.224 9.04381C124.352 8.43508 123.81 8.16343 123.81 7.46104C123.81 6.90847 124.185 6.39336 126.495 6.39336H133.208C133.357 6.40749 133.505 6.37662 133.636 6.30477C133.766 6.23292 133.871 6.12345 133.938 5.99064L134.743 4.46405H124.727C120.182 4.46405 118.48 5.88762 118.48 7.86377C118.48 9.00638 119.125 10.5329 123.39 11.9284L127.878 13.4083C129.749 14.017 130.291 14.2698 130.291 14.9722C130.291 15.6747 129.926 16.0493 127.617 16.0493H118.47L111.401 4.49215H108.717C106.622 4.49215 105.556 5.07283 104.583 6.66496L97.6635 18.0067H102.339L108.053 7.89184C108.193 7.64835 108.305 7.64835 108.427 7.64835L113.187 16.0773H108.006C107.858 16.0633 107.71 16.0941 107.58 16.166C107.449 16.2378 107.344 16.3473 107.277 16.48L106.473 18.0067H129.365C133.91 18.0067 135.603 16.583 135.603 14.607C135.603 13.4644 134.957 11.9472 130.693 10.5517H130.711ZM1.5753 11.0481V17.3604H7.90633V11.0481H1.5753ZM21.6346 4.0988C20.5591 -0.0407818 8.85084 -0.649548 1.40697 3.12478C1.16383 3.24653 0.808466 3.4994 0.752356 3.81783C0.752356 3.81783 0.649488 4.45469 0.640137 4.49215C0.640137 4.71692 0.845872 4.6701 0.930037 4.61391C1.89178 4.01792 2.92162 3.53996 3.99737 3.19034C8.71058 1.76678 14.6675 1.71995 15.7337 4.80122C16.4631 6.95531 13.4518 8.72538 11.7779 9.53082C11.1327 9.8399 10.9082 10.1208 10.8427 10.4674C10.8307 10.9211 10.9836 11.3637 11.2729 11.713C13.7325 15.2157 20.7181 20.3293 27.6196 22.1556C27.705 22.1932 27.7974 22.2128 27.8907 22.2128C27.9841 22.2128 28.0765 22.1932 28.162 22.1556C28.2274 22.1556 28.2929 22.0713 28.162 22.0152C23.787 19.6456 19.9849 16.343 17.0242 12.3405C16.647 11.9052 16.4322 11.3525 16.4164 10.7764C16.4164 10.4299 16.7716 10.1396 17.417 9.8399C19.8577 8.6973 22.3733 6.97404 21.6346 4.0988ZM22.8409 32.8698C23.5049 32.8698 24.6177 32.7013 24.6177 30.9967C24.6177 30.0601 24.253 29.4982 23.402 29.3859V29.339C24.1688 29.1424 24.4214 28.5804 24.4214 27.7376C24.4219 27.4107 24.3416 27.0889 24.1876 26.8009C24.0635 26.5633 23.8697 26.3694 23.6323 26.2455C23.3948 26.1216 23.1251 26.0735 22.8597 26.108H20.9332V32.8604L22.8409 32.8698ZM21.6812 26.8385H22.7568C22.8869 26.8379 23.0158 26.8646 23.1351 26.9169C23.2545 26.969 23.3616 27.0457 23.4496 27.1418C23.5376 27.2379 23.6047 27.3513 23.6465 27.4749C23.6881 27.5985 23.7036 27.7294 23.6919 27.8593C23.6919 28.5149 23.4114 28.9269 22.8128 28.9363H21.6812V26.8385ZM21.6812 29.6481H22.4949C23.2617 29.6481 23.8509 29.8354 23.8509 30.9031C23.8613 31.0522 23.8405 31.202 23.7901 31.3427C23.7394 31.4835 23.6602 31.6121 23.5573 31.7205C23.4543 31.8289 23.3301 31.9146 23.1922 31.9722C23.0544 32.0298 22.9061 32.058 22.7568 32.055H21.6812V29.6481ZM26.7312 26.0517H25.9737V32.8043H26.7312V26.0517ZM31.7997 27.8593C31.7997 26.4451 31.2386 25.9112 29.9294 25.9112C28.6202 25.9112 28.0591 26.7728 28.0591 28.1215V30.3411C28.0591 32.2142 28.6669 32.9448 29.9294 32.9448C30.5702 32.9546 31.2001 32.7789 31.7436 32.439V29.161H29.8734V29.9102H30.9675V31.9895C30.658 32.2037 30.2864 32.3089 29.9107 32.2892C29.1907 32.2892 28.8166 31.9146 28.8166 30.4161V28.1589C28.8166 26.7447 29.6676 26.6979 29.9107 26.6979C30.6682 26.6979 30.9581 27.1287 30.9581 27.9248L31.7997 27.8593ZM35.8677 26.0517H35.1102V32.8043H35.8677V26.0517ZM37.3079 32.8043H38.6731C39.0494 32.8611 39.4338 32.8092 39.7816 32.6549C40.1294 32.5007 40.4262 32.2504 40.637 31.9333C40.9496 31.0642 41.0709 30.1377 40.9924 29.2173C41.0056 28.4967 40.9174 27.7778 40.7306 27.0819C40.6134 26.7604 40.395 26.4859 40.1081 26.3C39.8211 26.1141 39.4816 26.027 39.1407 26.0517H37.2705L37.3079 32.8043ZM38.0466 26.8385H39.0472C39.8328 26.8385 40.2069 27.3442 40.2069 28.7115V30.0789C40.2069 31.6429 39.8141 32.0925 38.7668 32.0925H38.0466V26.8385ZM45.7056 32.8417H46.4631L46.9026 31.2308H49.2685L49.6987 32.8417H50.5498L48.6139 26.0892H47.6787L45.7056 32.8417ZM48.9974 30.491H47.127L48.0622 26.8852L48.9974 30.491ZM50.7836 30.8281C50.7836 31.4743 50.7836 33.0009 52.5136 32.9822C52.7668 33.0142 53.0239 32.9878 53.2654 32.9049C53.507 32.8222 53.7263 32.6852 53.9067 32.5044C54.0873 32.3236 54.2241 32.104 54.3068 31.8621C54.3894 31.6203 54.4159 31.3627 54.3839 31.1091C54.3839 28.9738 51.7187 29.236 51.7187 27.7C51.7017 27.5705 51.7137 27.4388 51.7538 27.3144C51.794 27.1901 51.8613 27.0763 51.9509 26.9812C52.0404 26.8862 52.1499 26.8122 52.2715 26.7648C52.3931 26.7175 52.5237 26.6979 52.6539 26.7073C53.3645 26.7073 53.589 27.1943 53.589 27.9342H54.3839C54.4307 26.5574 53.8228 25.9581 52.738 25.9581C52.4948 25.9451 52.2517 25.9859 52.0259 26.0774C51.8001 26.1689 51.5971 26.3089 51.4311 26.4875C51.2653 26.6661 51.1407 26.8791 51.0659 27.1113C50.9912 27.3434 50.9682 27.5892 50.9986 27.8312C50.9986 29.8635 53.6639 29.7043 53.6639 31.184C53.6912 31.3315 53.6827 31.4832 53.6392 31.6267C53.5958 31.7702 53.5186 31.9011 53.4142 32.0084C53.3097 32.1158 53.1811 32.1964 53.039 32.2437C52.8969 32.2909 52.7456 32.3033 52.5977 32.2798C52.1115 32.2798 51.6065 31.9895 51.6065 31.0716V30.875L50.7836 30.8281ZM62.8845 32.9822C64.1467 32.9822 64.7551 32.2423 64.7551 30.3786V28.187C64.7551 26.8385 64.1467 25.9767 62.8845 25.9767C61.6223 25.9767 61.0139 26.8385 61.0139 28.187V30.4067C61.0421 32.2704 61.6499 33.0103 62.9031 33.0103L62.8845 32.9822ZM62.8845 32.2611C62.1736 32.2611 61.7902 31.8864 61.7902 30.388V28.1589C61.7902 26.7447 62.6506 26.6979 62.8845 26.6979C63.1185 26.6979 63.9788 26.6979 63.9788 28.1589V30.4441C63.9974 31.9146 63.623 32.2892 62.9031 32.2892L62.8845 32.2611ZM67.4762 29.7417C67.5962 29.7216 67.7192 29.7289 67.8363 29.7634C67.9532 29.7978 68.0606 29.8583 68.1506 29.9404C68.2406 30.0224 68.3108 30.124 68.3558 30.2371C68.4014 30.3503 68.4199 30.4723 68.4115 30.594C68.3911 31.3502 68.4697 32.1059 68.6449 32.8417H69.4308C69.3186 32.2575 69.2502 31.666 69.2251 31.0716C69.2251 29.723 68.9352 29.4608 68.2898 29.339C68.6216 29.2471 68.9094 29.0384 69.1003 28.751C69.2911 28.4637 69.372 28.1171 69.3277 27.7749C69.3277 26.9321 68.9538 26.0892 67.9065 26.0892H65.8583V32.8417H66.6064V29.7699L67.4762 29.7417ZM66.6064 26.8385H67.7565C68.3366 26.8385 68.5514 27.3815 68.5514 27.8686C68.5514 28.3556 68.2898 28.9925 67.7474 28.9925H66.6064V26.8385ZM80.3349 26.0892H79.5676L78.1746 32.0269L76.8182 26.0892H75.9957L77.7162 32.8417H78.6515L80.3349 26.0892ZM86.8806 29.7417C87.0006 29.7216 87.1242 29.7289 87.2405 29.7634C87.3576 29.7978 87.4649 29.8583 87.555 29.9404C87.6449 30.0224 87.7156 30.124 87.7607 30.2371C87.8057 30.3503 87.8248 30.4723 87.8158 30.594C87.7954 31.3502 87.874 32.1059 88.0499 32.8417H88.8351C88.6966 32.269 88.5994 31.6867 88.5454 31.0997C88.5454 29.7511 88.2556 29.4889 87.6101 29.3672C87.9527 29.2805 88.2514 29.0698 88.4482 28.7759C88.645 28.4819 88.7265 28.1253 88.6762 27.7749C88.6762 26.9321 88.3024 26.0892 87.2454 26.0892H85.2068V32.8417H85.9645V29.7699L86.8806 29.7417ZM85.946 26.8385H87.0864C87.6665 26.8385 87.8813 27.3815 87.8813 27.8686C87.8813 28.3556 87.6196 28.9925 87.0773 28.9925H85.9645L85.946 26.8385ZM90.9204 29.3577L89.7614 26.0892H88.9101L90.4998 30.2756V32.8417H91.2665V30.3036L92.8846 26.1172H92.1179L90.9204 29.3577ZM95.0167 30.8281C95.0167 31.4743 95.0167 33.0009 96.7468 32.9822C96.9999 33.0142 97.2574 32.9878 97.4985 32.9049C97.7403 32.8222 97.9593 32.6852 98.1399 32.5044C98.3204 32.3236 98.4572 32.104 98.5399 31.8621C98.6228 31.6203 98.6491 31.3627 98.6174 31.1091C98.6174 28.9738 95.9519 29.236 95.9519 27.7C95.9351 27.5705 95.9471 27.4388 95.9874 27.3144C96.0269 27.1901 96.0947 27.0763 96.1841 26.9812C96.2735 26.8862 96.3832 26.8122 96.5045 26.7648C96.6262 26.7175 96.757 26.6979 96.8872 26.7073C97.6072 26.7073 97.8225 27.1943 97.8225 27.9342H98.6078C98.6636 26.5574 98.0558 25.9581 96.9616 25.9581C96.7186 25.9451 96.4757 25.9859 96.2494 26.0774C96.024 26.1689 95.8212 26.3089 95.655 26.4875C95.4894 26.6661 95.3646 26.8791 95.2897 27.1113C95.2153 27.3434 95.1918 27.5892 95.2224 27.8312C95.2224 29.8635 97.8879 29.7043 97.8879 31.184C97.9149 31.3315 97.9065 31.4832 97.8633 31.6267C97.8195 31.7702 97.7427 31.9011 97.6377 32.0084C97.5333 32.1158 97.4049 32.1964 97.2628 32.2437C97.1206 32.2909 96.9694 32.3033 96.8218 32.2798C96.3353 32.2798 95.8301 31.9895 95.8301 31.0716V30.875L95.0167 30.8281ZM100.338 32.8417V29.901H101.329C101.568 29.9092 101.806 29.8646 102.026 29.7703C102.245 29.6761 102.441 29.5346 102.6 29.3557C102.759 29.1769 102.877 28.9652 102.945 28.7357C103.013 28.5062 103.03 28.2644 102.994 28.0278C102.994 26.4357 102.142 26.0986 101.339 26.0986H99.5803V32.8511L100.338 32.8417ZM100.338 26.8385H101.385C101.544 26.8385 102.218 26.9414 102.218 27.9717C102.218 29.0019 101.479 29.1237 101.17 29.1237H100.338V26.8385ZM102.638 32.8417H103.405L103.844 31.2308H106.145L106.566 32.8417H107.417L105.481 26.0892H104.546L102.638 32.8417ZM105.939 30.491H104.069L105.004 26.8852L105.939 30.491ZM111.139 27.9529C111.214 26.6417 110.765 25.9487 109.586 25.9487C108.408 25.9487 107.716 26.4918 107.716 28.4024V30.2756C107.716 32.8886 108.848 32.9448 109.586 32.9448C109.979 32.9448 111.298 32.9448 111.27 30.8094H110.485C110.485 32.1299 109.783 32.2236 109.549 32.2236C108.96 32.2236 108.483 32.0269 108.483 30.3505V28.6367C108.483 27.4753 108.633 27.3067 108.661 27.2318C108.724 27.0875 108.824 26.9618 108.949 26.8661C109.074 26.7706 109.221 26.7081 109.378 26.6848C109.533 26.6615 109.692 26.6779 109.84 26.7325C109.988 26.7873 110.12 26.8784 110.222 26.9976C110.369 27.2868 110.43 27.6114 110.4 27.9342L111.139 27.9529ZM112.981 26.8385H115.329V26.0892H112.223V32.8417H115.329V32.0925H112.981V29.7885H115.123V29.0393H112.981V26.8385ZM42.9094 26.8385H45.2661V26.0892H42.152V32.8417H45.2661V32.0925H42.9094V29.7885H45.051V29.0393H42.9094V26.8385ZM58.1152 32.8417V29.7885H60.2474V29.0393H58.1152V26.8385H60.4905V26.0892H57.3577V32.8417H58.1152ZM73.1809 26.8385H75.5374V26.0892H72.4328V32.8417H75.5374V32.0925H73.1809V29.7885H75.322V29.0393H73.1809V26.8385ZM81.8683 26.8385H84.2158V26.0892H81.1106V32.8417H84.2158V32.0925H81.8683V29.7885H84.0004V29.0393H81.8683V26.8385Z" fill="#252492"/>
</g>
<defs>
<clipPath id="clip0_639_4720">
<rect width="134.983" height="32.3958" fill="white" transform="translate(0.640137 0.614502)"/>
</clipPath>
</defs>
</svg>
