<svg width="103" height="44" viewBox="0 0 103 44" fill="none" xmlns="http://www.w3.org/2000/svg">
<g clip-path="url(#clip0_639_4694)">
<mask id="mask0_639_4694" style="mask-type:luminance" maskUnits="userSpaceOnUse" x="0" y="0" width="103" height="44">
<path d="M0.352539 0.571045H102.852V43.7655H0.352539V0.571045Z" fill="white"/>
</mask>
<g mask="url(#mask0_639_4694)">
<path fill-rule="evenodd" clip-rule="evenodd" d="M67.1527 21.8714V23.8097C67.1527 27.6864 67.1527 31.5642 67.156 35.442C67.156 35.5781 67.0771 35.7865 67.2229 35.8383C67.5199 35.9441 67.8557 35.929 68.1516 35.8545C68.3568 35.8037 68.2423 35.5262 68.2423 35.3556C68.2477 26.3647 68.2466 17.3759 68.2466 8.3861C68.2466 8.27055 68.252 8.15501 68.2445 8.04054C68.2401 7.99087 68.2185 7.90016 68.1915 7.89584C67.8845 7.82711 67.5663 7.82527 67.2585 7.89044C67.048 7.93903 67.1581 8.18848 67.1581 8.34398C67.1516 12.8524 67.1527 17.3608 67.1527 21.8714ZM21.331 22.4675C21.331 24.2201 21.3386 25.9716 21.3245 27.7231C21.3224 28.019 21.3926 28.1151 21.7003 28.1108C22.8301 28.0891 23.9602 28.0898 25.09 28.113C25.4474 28.1216 25.5014 27.9953 25.5004 27.6767C25.4896 25.0775 25.4971 22.4783 25.4896 19.8801C25.4885 19.6058 25.5435 19.4871 25.8459 19.4352C26.9376 19.2495 28.0305 19.1577 29.133 19.284C29.4235 19.3175 29.5002 19.2257 29.4958 18.9406C29.4786 18.1372 29.485 17.3317 29.4915 16.5282C29.4937 16.3177 29.4753 16.1848 29.2032 16.1773C26.6774 16.0995 24.1754 16.2712 21.7025 16.8122C21.4109 16.876 21.3202 16.9937 21.3224 17.2982C21.3397 19.0216 21.331 20.7451 21.331 22.4675ZM13.6554 12.4464C11.4816 12.4464 9.30569 12.4518 7.13085 12.441C6.84361 12.4399 6.7313 12.495 6.7421 12.8114C6.76694 13.5435 6.77126 14.2778 6.7421 15.0089C6.72806 15.3501 6.85009 15.4052 7.15461 15.4009C8.4418 15.3847 9.73008 15.4106 11.0173 15.3836C11.3952 15.376 11.487 15.4732 11.4859 15.8544C11.4697 19.8056 11.4794 23.7557 11.4687 27.7059C11.4676 28.0255 11.5421 28.1173 11.8671 28.1119C13.026 28.0884 14.1853 28.0884 15.3443 28.1119C15.7125 28.1205 15.7838 28.0039 15.7827 27.6562C15.7708 23.705 15.7795 19.7549 15.7665 15.8037C15.7654 15.457 15.8637 15.3825 16.192 15.3868C17.5223 15.4052 18.8527 15.3857 20.1831 15.4009C20.4693 15.4041 20.5481 15.3199 20.5406 15.038C20.5192 14.3057 20.5199 13.5728 20.5427 12.8405C20.5535 12.5122 20.4542 12.4377 20.1378 12.4399C17.978 12.4539 15.8162 12.4474 13.6554 12.4474M33.6965 33.8481C35.0938 33.8481 36.4102 33.8362 37.7265 33.8568C38.0203 33.8611 38.1455 33.7596 38.2621 33.5026C40.789 27.9197 43.3267 22.3411 45.8611 16.7604C45.9173 16.6351 46.0209 16.5207 45.9842 16.3328C44.5588 16.3328 43.1291 16.3436 41.7015 16.3241C41.3732 16.3198 41.2318 16.417 41.1281 16.7302C40.3128 19.2063 39.4781 21.6759 38.6487 24.1456C38.6055 24.2719 38.598 24.4155 38.4695 24.5278C38.4263 24.4069 38.3852 24.3011 38.3485 24.1931L35.9545 17.066C35.7072 16.3339 35.7083 16.3328 34.9437 16.3328H31.0022C30.9936 16.5358 31.0962 16.6654 31.1588 16.8047C32.8441 20.5368 34.5359 24.2659 36.2342 27.992C36.2934 28.1019 36.3234 28.2251 36.3213 28.3499C36.3192 28.4747 36.2851 28.5969 36.2223 28.7047C35.7601 29.6118 35.3184 30.5265 34.8714 31.4389C34.488 32.2208 34.1079 33.0058 33.6965 33.8481ZM54.9481 34.7066H55.3725C56.488 34.7066 57.6046 34.7034 58.7201 34.7098C58.8767 34.7098 58.9469 34.6386 59.0041 34.5047C59.2741 33.874 59.5872 33.2585 59.8205 32.6138C60.3399 31.1744 59.7654 29.6356 58.4523 28.8559C57.9318 28.5535 57.3612 28.3472 56.7677 28.2469C55.325 27.9866 53.8607 28.0579 52.4051 27.9942C52.0736 27.9791 51.7485 27.9564 51.4462 27.8106C51.1654 27.6767 50.998 27.4586 50.9926 27.1368C50.9818 26.5029 51.931 25.6077 52.5681 25.6412C53.8121 25.7049 55.0561 25.7405 56.2742 25.4036C57.8972 24.9533 59.165 24.1035 59.6175 22.3584C59.9306 21.1544 59.6682 20.0313 59.1186 18.9504C59.0516 18.8186 58.9242 18.7063 58.9566 18.5292C59.4782 18.5519 59.9932 18.567 60.5062 18.6016C60.7081 18.6145 60.7837 18.5616 60.7783 18.3467C60.7653 17.7582 60.7675 17.1686 60.7783 16.5801C60.7805 16.3965 60.7297 16.3241 60.5375 16.3317C58.0333 16.4149 55.5377 16.2118 53.0379 16.133C51.7917 16.0931 50.5563 16.2864 49.3912 16.782C47.7131 17.4958 46.7822 18.7635 46.6051 20.5896C46.4216 22.4578 47.0911 23.8983 48.7152 24.868C48.8674 24.9598 49.0586 24.9965 49.1828 25.1704C48.9484 25.3399 48.7281 25.4943 48.5111 25.6563C47.8146 26.1725 47.1796 26.747 46.8211 27.5633C46.2542 28.8538 46.6969 30.0524 47.9604 30.656C48.2832 30.8094 48.6191 30.9325 48.97 31.0059C50.3976 31.3029 51.8392 31.2802 53.2841 31.2219C53.9428 31.1949 54.6015 31.1809 55.2462 31.3428C55.839 31.4929 56.0885 31.9346 55.9157 32.5166C55.8257 32.8184 55.7149 33.1135 55.5842 33.4C55.392 33.8265 55.1771 34.2423 54.9481 34.7066ZM84.5979 11.7164C83.1835 11.7216 81.7842 12.0066 80.4805 12.555C79.1768 13.1034 77.9945 13.9044 77.0018 14.9118C76.0091 15.9192 75.2255 17.1131 74.6962 18.4247C74.167 19.7362 73.9025 21.1396 73.918 22.5539C73.9548 28.4305 78.7828 33.2196 84.6302 33.1797C86.0408 33.1745 87.4365 32.8904 88.7368 32.3437C90.0372 31.7971 91.2166 30.9986 92.2072 29.9944C93.1978 28.9902 93.98 27.7999 94.5088 26.4922C95.0376 25.1845 95.3026 23.7851 95.2885 22.3746C95.2572 16.498 90.4215 11.6775 84.5979 11.7164ZM97.0983 43.7656H5.9916C5.96028 43.6522 5.85878 43.6792 5.78103 43.663C5.19142 43.542 4.61262 43.3822 4.07809 43.0993C1.60845 41.797 0.36337 39.7377 0.35797 36.9408C0.347172 32.7164 0.355811 28.4942 0.355811 24.2698C0.355811 18.6242 0.348252 12.9777 0.35797 7.33323C0.36229 3.98027 2.51553 1.37024 5.78427 0.700731C5.90953 0.675895 6.08015 0.736367 6.16222 0.570068H6.4203C6.69027 0.764443 6.99587 0.649978 7.28095 0.649978C36.9901 0.658617 66.6992 0.658617 96.4083 0.657537C96.5271 0.657537 96.6707 0.723408 96.7549 0.571148H96.9266C96.9633 0.684534 97.0627 0.648898 97.1404 0.659697C99.8109 1.03117 101.945 2.9274 102.646 5.54066C102.717 5.80847 102.703 6.10003 102.852 6.34732V38.0758C102.709 38.1535 102.765 38.3047 102.737 38.4213C102.065 41.2344 100.335 42.9783 97.5238 43.6446C97.3834 43.6781 97.2052 43.6047 97.0983 43.7656Z" fill="#E20613"/>
</g>
<path fill-rule="evenodd" clip-rule="evenodd" d="M80.314 26.8417C78.8454 25.3061 78.2083 23.4661 78.5884 21.3441C78.9707 19.2114 80.2795 17.746 82.1865 16.7407C81.9565 16.6457 81.8129 16.7288 81.6682 16.7839C81.1978 16.9566 80.7556 17.1983 80.3562 17.5009C80.1596 17.6553 80.0894 17.6305 79.9491 17.4199C79.446 16.6458 78.7057 16.0556 77.839 15.7375C77.5258 15.6209 77.2958 15.6727 77.055 15.9535C74.3662 19.0894 73.8975 23.6658 75.9158 27.2985C76.4103 28.1894 77.0129 28.9971 77.7623 29.6742C78.1964 28.3308 78.8811 27.2661 80.314 26.8417ZM88.9108 18.0743C89.035 18.2147 89.13 18.3194 89.2218 18.4285C91.1515 20.6822 91.2239 24.0092 89.3946 26.2769C88.9205 26.8644 88.913 27.1279 89.4054 27.7272C89.922 28.3591 90.5862 28.8542 91.3394 29.1688C90.7699 29.8618 90.1078 30.4733 89.3719 30.9862C90.7541 30.9722 93.4203 27.7639 94.147 25.2597C95.3284 21.1962 93.7043 17.1338 91.3524 15.1878C91.1548 16.4621 90.1095 17.7147 88.9108 18.0743ZM84.614 17.002C81.6822 16.9696 79.2072 19.3961 79.164 22.3462C79.1208 25.3796 81.5213 27.8686 84.5298 27.9054C87.5523 27.9432 90.0036 25.5405 90.0436 22.4985C90.0835 19.4857 87.6636 17.0366 84.614 17.002ZM84.6 11.7161C90.4237 11.6772 95.2593 16.4977 95.2906 22.3743C95.3047 23.7848 95.0397 25.1842 94.5109 26.4919C93.9821 27.7996 93.1999 28.9899 92.2093 29.9941C91.2187 30.9983 90.0393 31.7968 88.739 32.3434C87.4386 32.8901 86.043 33.1742 84.6324 33.1794C78.785 33.2194 73.9569 28.4302 73.9202 22.5536C73.9048 21.1394 74.1694 19.7361 74.6987 18.4245C75.228 17.113 76.0116 15.9192 77.0043 14.9118C77.997 13.9045 79.1792 13.1035 80.4828 12.555C81.7864 12.0065 83.1857 11.7214 84.6 11.7161ZM53.2279 23.4466C53.3402 23.4401 53.5119 23.4347 53.6825 23.4196C54.8067 23.3224 55.474 22.6778 55.6414 21.5515C55.7116 21.0763 55.7062 20.6087 55.6306 20.1368C55.4621 19.0948 54.7883 18.4425 53.7376 18.3378C53.4385 18.3108 53.1379 18.3054 52.8381 18.3216C51.7582 18.3724 51.0822 18.8669 50.8069 19.7913C50.4321 21.045 50.7334 22.4542 51.4958 23.0157C51.6934 23.1615 51.9159 23.2566 52.1491 23.3267C52.4817 23.4283 52.8251 23.4369 53.2279 23.4466ZM54.9492 34.7063C55.1781 34.242 55.3941 33.8252 55.5863 33.3997C55.7159 33.1135 55.8304 32.8166 55.9189 32.5164C56.0917 31.9343 55.8412 31.4916 55.2494 31.3436C54.6047 31.1817 53.9449 31.1946 53.2862 31.2216C51.8414 31.281 50.3997 31.3026 48.9722 31.0056C48.6228 30.93 48.2838 30.8125 47.9625 30.6558C46.6991 30.0532 46.2563 28.8524 46.8233 27.563C47.1818 26.7467 47.8167 26.1722 48.5132 25.6549C48.7292 25.494 48.9506 25.3396 49.1849 25.1712C49.0607 24.9962 48.8696 24.9595 48.7173 24.8688C47.0943 23.8969 46.4248 22.4575 46.6062 20.5893C46.7844 18.7643 47.7152 17.4955 49.3933 16.7817C50.5585 16.285 51.7939 16.0928 53.04 16.1327C55.5388 16.2116 58.0354 16.4135 60.5396 16.3303C60.7319 16.3239 60.7826 16.3962 60.7794 16.5798C60.7707 17.1683 60.7686 17.7579 60.7804 18.3464C60.7858 18.5624 60.7103 18.6142 60.5083 18.6013C59.9954 18.5667 59.4803 18.5516 58.9598 18.5279C58.9274 18.7049 59.0537 18.8194 59.1207 18.9501C59.6703 20.0299 59.9328 21.153 59.6196 22.3592C59.1671 24.1032 57.8994 24.9541 56.2764 25.4022C55.0583 25.7402 53.8143 25.7046 52.5703 25.6398C51.9332 25.6074 50.984 26.5037 50.9937 27.1365C51.0002 27.4583 51.1675 27.6764 51.4472 27.8103C51.7496 27.9561 52.0757 27.9799 52.4083 27.9939C53.8629 28.0565 55.3272 27.9863 56.7709 28.2466C57.3648 28.3546 57.9329 28.5457 58.4555 28.8556C59.7675 29.6342 60.342 31.1741 59.8226 32.6135C59.5904 33.2582 59.2762 33.8737 59.0062 34.5055C58.949 34.6383 58.8788 34.7096 58.7222 34.7085C57.6057 34.7031 56.4902 34.7063 55.3747 34.7063H54.9492ZM33.6986 33.8478C34.1101 33.0034 34.4902 32.2205 34.8724 31.4397C35.3206 30.5262 35.7612 29.6105 36.2244 28.7055C36.3529 28.4539 36.3573 28.2542 36.2374 27.9928C34.5366 24.2673 32.8488 20.5353 31.162 16.8044C31.0983 16.6651 30.9968 16.5344 31.0055 16.3325H34.947C35.7104 16.3325 35.7093 16.3325 35.9555 17.0668L38.3507 24.1939C38.3874 24.3019 38.4273 24.4066 38.4716 24.5286C38.6001 24.4163 38.6077 24.2716 38.6509 24.1453C39.4802 21.6746 40.3149 19.206 41.1302 16.7299C41.2339 16.4167 41.3754 16.3195 41.7026 16.3239C43.1312 16.3444 44.5599 16.3325 45.9864 16.3325C46.0231 16.5204 45.9205 16.6349 45.8622 16.7601C43.3288 22.3408 40.7922 27.9194 38.2632 33.5023C38.1487 33.7582 38.0224 33.8608 37.7276 33.8565C36.4123 33.8349 35.096 33.8478 33.6986 33.8478ZM13.6586 12.4472C15.8183 12.4472 17.9791 12.4536 20.1399 12.4396C20.4563 12.4374 20.5567 12.512 20.5449 12.8402C20.5221 13.5725 20.5214 14.3054 20.5427 15.0377C20.5503 15.3185 20.4714 15.4038 20.1863 15.4006C18.8549 15.3855 17.5245 15.4049 16.1941 15.3865C15.8658 15.3811 15.7676 15.4567 15.7686 15.8034C15.7816 19.7546 15.773 23.7047 15.7848 27.6559C15.7859 28.0047 15.7146 28.1202 15.3464 28.1127C14.1875 28.0891 13.0282 28.0887 11.8693 28.1116C11.5442 28.117 11.4697 28.0252 11.4697 27.7067C11.4816 23.7555 11.4719 19.8042 11.4881 15.853C11.4892 15.4729 11.3984 15.3757 11.0194 15.3833C9.73222 15.4103 8.44394 15.3833 7.15675 15.4006C6.85223 15.4049 6.73021 15.3498 6.74424 15.0086C6.7734 14.2775 6.76908 13.5432 6.74424 12.8111C6.73345 12.4958 6.84575 12.4385 7.13299 12.4407C9.30783 12.4515 11.4838 12.4472 13.6586 12.4472ZM21.3332 22.4672C21.3332 20.7448 21.3418 19.0203 21.3245 17.2979C21.3224 16.9934 21.4141 16.8757 21.7046 16.812C24.1775 16.272 26.6795 16.0992 29.2043 16.177C29.4775 16.1846 29.4958 16.3174 29.4937 16.528C29.4872 17.3324 29.4807 18.1369 29.498 18.9404C29.5034 19.2254 29.4256 19.3183 29.1351 19.2838C28.0337 19.1563 26.9409 19.2492 25.8491 19.4349C25.5468 19.4868 25.4906 19.6056 25.4917 19.8788C25.4993 22.478 25.4917 25.0772 25.5025 27.6764C25.5036 27.995 25.4496 28.1213 25.0921 28.1127C23.9624 28.0892 22.8323 28.0881 21.7025 28.1095C21.3947 28.1149 21.3245 28.0187 21.3267 27.7229C21.3407 25.9713 21.3332 24.2198 21.3332 22.4672ZM67.1549 21.8711C67.1549 17.3605 67.1549 12.8521 67.1603 8.34261C67.1603 8.18819 67.0501 7.93874 67.2607 7.88907C67.5686 7.82425 67.8868 7.82646 68.1937 7.89555C68.2207 7.90095 68.2423 7.99058 68.2466 8.04133C68.2542 8.15471 68.2488 8.27026 68.2488 8.3858C68.2488 17.3756 68.2488 26.3655 68.2444 35.3553C68.2444 35.5259 68.3589 35.8035 68.1527 35.8542C67.8579 35.9287 67.522 35.9438 67.224 35.838C67.0793 35.7862 67.1581 35.5778 67.1581 35.4417C67.1538 31.565 67.1549 27.6872 67.1549 23.8094V21.8711Z" fill="#FEFCFD"/>
<path fill-rule="evenodd" clip-rule="evenodd" d="M84.6118 17.0021C87.6613 17.0366 90.0813 19.4858 90.0413 22.4986C90.0014 25.5394 87.5501 27.9432 84.5276 27.9054C81.5201 27.8687 79.1175 25.3796 79.1617 22.3452C79.2049 19.3961 81.68 16.9675 84.6118 17.0021Z" fill="#E20613"/>
<path fill-rule="evenodd" clip-rule="evenodd" d="M88.9101 18.0753C90.1088 17.7146 91.1541 16.4609 91.3506 15.1877C93.7026 17.1337 95.3278 21.1961 94.1475 25.2596C93.4196 27.7649 90.7545 30.9721 89.3712 30.9861C90.1072 30.4732 90.7692 29.8617 91.3387 29.1687C90.5855 28.8541 89.9213 28.359 89.4047 27.7271C88.9123 27.1278 88.9209 26.8643 89.3939 26.2779C91.2232 24.0102 91.1508 20.6821 89.2211 18.4273C89.1294 18.3193 89.0343 18.2157 88.9101 18.0753ZM80.3134 26.8416C78.8804 27.266 78.1958 28.3307 77.7606 29.673C77.0122 28.997 76.4097 28.1893 75.914 27.2973C73.8968 23.6657 74.3666 19.0893 77.0544 15.9534C77.2952 15.6726 77.5252 15.6208 77.8383 15.7374C78.705 16.0555 79.4453 16.6457 79.9484 17.4198C80.0888 17.6304 80.159 17.6552 80.3555 17.5008C80.7518 17.192 81.1978 16.9652 81.6686 16.7838C81.8122 16.7287 81.9558 16.6456 82.1859 16.7406C80.2788 17.7449 78.97 19.2113 78.5878 21.344C78.2076 23.466 78.8448 25.3071 80.3134 26.8416ZM53.2272 23.4465C52.8255 23.4368 52.4821 23.4282 52.1485 23.3277C51.9146 23.2615 51.6936 23.156 51.4951 23.0157C50.7328 22.4541 50.4315 21.0449 50.8062 19.7912C51.0816 18.8668 51.7586 18.3723 52.8374 18.3226C53.1372 18.306 53.4378 18.3111 53.7369 18.3377C54.7866 18.4424 55.4615 19.0947 55.6289 20.1367C55.7044 20.6086 55.7109 21.0762 55.6396 21.5514C55.4733 22.6777 54.806 23.3223 53.6819 23.4195C53.5112 23.4346 53.3385 23.4411 53.2272 23.4465Z" fill="#E20613"/>
</g>
<defs>
<clipPath id="clip0_639_4694">
<rect width="102.587" height="43.1944" fill="white" transform="translate(0.319336 0.570801)"/>
</clipPath>
</defs>
</svg>
